<?xml version="1.0" encoding="utf-8"?>
<svg xmlns="http://www.w3.org/2000/svg" xmlns:xlink="http://www.w3.org/1999/xlink" width="672" height="480" viewBox="0 0 2688 1920">
<defs>
  <clipPath id="clip270">
    <rect x="0" y="0" width="2688" height="1920"/>
  </clipPath>
</defs>
<path clip-path="url(#clip270)" d="
M0 1920 L2688 1920 L2688 0 L0 0  Z
  " fill="#ffffff" fill-rule="evenodd" fill-opacity="1"/>
<defs>
  <clipPath id="clip271">
    <rect x="537" y="0" width="1883" height="1883"/>
  </clipPath>
</defs>
<path clip-path="url(#clip270)" d="
M141.712 1558.87 L2640.76 1558.87 L2640.76 47.2441 L141.712 47.2441  Z
  " fill="#ffffff" fill-rule="evenodd" fill-opacity="1"/>
<defs>
  <clipPath id="clip272">
    <rect x="141" y="47" width="2500" height="1513"/>
  </clipPath>
</defs>
<polyline clip-path="url(#clip272)" style="stroke:#000000; stroke-linecap:round; stroke-linejoin:round; stroke-width:2; stroke-opacity:0.1; fill:none" points="
  432.553,1558.87 432.553,47.2441 
  "/>
<polyline clip-path="url(#clip272)" style="stroke:#000000; stroke-linecap:round; stroke-linejoin:round; stroke-width:2; stroke-opacity:0.1; fill:none" points="
  816.025,1558.87 816.025,47.2441 
  "/>
<polyline clip-path="url(#clip272)" style="stroke:#000000; stroke-linecap:round; stroke-linejoin:round; stroke-width:2; stroke-opacity:0.1; fill:none" points="
  1199.5,1558.87 1199.5,47.2441 
  "/>
<polyline clip-path="url(#clip272)" style="stroke:#000000; stroke-linecap:round; stroke-linejoin:round; stroke-width:2; stroke-opacity:0.1; fill:none" points="
  1582.97,1558.87 1582.97,47.2441 
  "/>
<polyline clip-path="url(#clip272)" style="stroke:#000000; stroke-linecap:round; stroke-linejoin:round; stroke-width:2; stroke-opacity:0.1; fill:none" points="
  1966.44,1558.87 1966.44,47.2441 
  "/>
<polyline clip-path="url(#clip272)" style="stroke:#000000; stroke-linecap:round; stroke-linejoin:round; stroke-width:2; stroke-opacity:0.1; fill:none" points="
  2349.92,1558.87 2349.92,47.2441 
  "/>
<polyline clip-path="url(#clip270)" style="stroke:#000000; stroke-linecap:round; stroke-linejoin:round; stroke-width:4; stroke-opacity:1; fill:none" points="
  141.712,1558.87 2640.76,1558.87 
  "/>
<polyline clip-path="url(#clip270)" style="stroke:#000000; stroke-linecap:round; stroke-linejoin:round; stroke-width:4; stroke-opacity:1; fill:none" points="
  432.553,1558.87 432.553,1539.98 
  "/>
<polyline clip-path="url(#clip270)" style="stroke:#000000; stroke-linecap:round; stroke-linejoin:round; stroke-width:4; stroke-opacity:1; fill:none" points="
  816.025,1558.87 816.025,1539.98 
  "/>
<polyline clip-path="url(#clip270)" style="stroke:#000000; stroke-linecap:round; stroke-linejoin:round; stroke-width:4; stroke-opacity:1; fill:none" points="
  1199.5,1558.87 1199.5,1539.98 
  "/>
<polyline clip-path="url(#clip270)" style="stroke:#000000; stroke-linecap:round; stroke-linejoin:round; stroke-width:4; stroke-opacity:1; fill:none" points="
  1582.97,1558.87 1582.97,1539.98 
  "/>
<polyline clip-path="url(#clip270)" style="stroke:#000000; stroke-linecap:round; stroke-linejoin:round; stroke-width:4; stroke-opacity:1; fill:none" points="
  1966.44,1558.87 1966.44,1539.98 
  "/>
<polyline clip-path="url(#clip270)" style="stroke:#000000; stroke-linecap:round; stroke-linejoin:round; stroke-width:4; stroke-opacity:1; fill:none" points="
  2349.92,1558.87 2349.92,1539.98 
  "/>
<path clip-path="url(#clip270)" d="M449.833 1580.38 L449.833 1587.35 L426.315 1596.17 L449.833 1605.03 L449.833 1612 L415.273 1612 L415.273 1607.44 L445.62 1607.44 L421.916 1598.53 L421.916 1593.83 L445.62 1584.92 L415.273 1584.92 L415.273 1580.38 L449.833 1580.38 Z" fill="#000000" fill-rule="evenodd" fill-opacity="1" /><path clip-path="url(#clip270)" d="M449.833 1621.28 L449.833 1643.13 L445.898 1643.13 L445.898 1625.96 L435.666 1625.96 L435.666 1642.41 L431.731 1642.41 L431.731 1625.96 L419.208 1625.96 L419.208 1643.55 L415.273 1643.55 L415.273 1621.28 L449.833 1621.28 Z" fill="#000000" fill-rule="evenodd" fill-opacity="1" /><path clip-path="url(#clip270)" d="M447.171 1677.11 L442.24 1677.11 Q444.439 1674.75 445.527 1672.07 Q446.615 1669.41 446.615 1666.4 Q446.615 1660.47 442.981 1657.32 Q439.37 1654.17 432.518 1654.17 Q425.69 1654.17 422.055 1657.32 Q418.444 1660.47 418.444 1666.4 Q418.444 1669.41 419.532 1672.07 Q420.62 1674.75 422.819 1677.11 L417.935 1677.11 Q416.268 1674.66 415.435 1671.91 Q414.602 1669.17 414.602 1666.12 Q414.602 1658.27 419.393 1653.76 Q424.208 1649.24 432.518 1649.24 Q440.852 1649.24 445.643 1653.76 Q450.458 1658.27 450.458 1666.12 Q450.458 1669.22 449.625 1671.95 Q448.814 1674.71 447.171 1677.11 Z" fill="#000000" fill-rule="evenodd" fill-opacity="1" /><path clip-path="url(#clip270)" d="M449.833 1684.34 L449.833 1689.01 L435.666 1689.01 L435.666 1706 L449.833 1706 L449.833 1710.68 L415.273 1710.68 L415.273 1706 L431.731 1706 L431.731 1689.01 L415.273 1689.01 L415.273 1684.34 L449.833 1684.34 Z" fill="#000000" fill-rule="evenodd" fill-opacity="1" /><path clip-path="url(#clip270)" d="M445.226 1731.53 L428.028 1725.19 L428.028 1737.9 L445.226 1731.53 M449.833 1728.9 L449.833 1734.2 L415.273 1747.37 L415.273 1742.51 L424.139 1739.36 L424.139 1723.78 L415.273 1720.63 L415.273 1715.7 L449.833 1728.9 Z" fill="#000000" fill-rule="evenodd" fill-opacity="1" /><path clip-path="url(#clip270)" d="M449.833 1752.41 L449.833 1758.71 L420.921 1774.03 L449.833 1774.03 L449.833 1778.57 L415.273 1778.57 L415.273 1772.28 L444.185 1756.95 L415.273 1756.95 L415.273 1752.41 L449.833 1752.41 Z" fill="#000000" fill-rule="evenodd" fill-opacity="1" /><path clip-path="url(#clip270)" d="M449.833 1787.88 L449.833 1792.55 L415.273 1792.55 L415.273 1787.88 L449.833 1787.88 Z" fill="#000000" fill-rule="evenodd" fill-opacity="1" /><path clip-path="url(#clip270)" d="M447.171 1827.74 L442.24 1827.74 Q444.439 1825.38 445.527 1822.69 Q446.615 1820.03 446.615 1817.02 Q446.615 1811.09 442.981 1807.95 Q439.37 1804.8 432.518 1804.8 Q425.69 1804.8 422.055 1807.95 Q418.444 1811.09 418.444 1817.02 Q418.444 1820.03 419.532 1822.69 Q420.62 1825.38 422.819 1827.74 L417.935 1827.74 Q416.268 1825.28 415.435 1822.53 Q414.602 1819.8 414.602 1816.74 Q414.602 1808.9 419.393 1804.38 Q424.208 1799.87 432.518 1799.87 Q440.852 1799.87 445.643 1804.38 Q450.458 1808.9 450.458 1816.74 Q450.458 1819.84 449.625 1822.58 Q448.814 1825.33 447.171 1827.74 Z" fill="#000000" fill-rule="evenodd" fill-opacity="1" /><path clip-path="url(#clip270)" d="M448.699 1855.68 L444.139 1855.68 Q445.412 1853.02 446.037 1850.65 Q446.662 1848.29 446.662 1846.09 Q446.662 1842.27 445.18 1840.19 Q443.699 1838.13 440.967 1838.13 Q438.676 1838.13 437.495 1839.5 Q436.338 1840.89 435.62 1844.73 L435.041 1847.55 Q434.046 1852.78 431.523 1855.26 Q429.023 1857.76 424.81 1857.76 Q419.787 1857.76 417.194 1854.38 Q414.602 1851.02 414.602 1844.52 Q414.602 1842.07 415.157 1839.29 Q415.713 1836.53 416.801 1833.57 L421.616 1833.57 Q420.018 1836.42 419.208 1839.15 Q418.398 1841.88 418.398 1844.52 Q418.398 1848.52 419.972 1850.7 Q421.546 1852.88 424.463 1852.88 Q427.009 1852.88 428.444 1851.3 Q429.879 1849.75 430.597 1846.19 L431.152 1843.34 Q432.194 1838.11 434.416 1835.77 Q436.639 1833.43 440.597 1833.43 Q445.18 1833.43 447.819 1836.65 Q450.458 1839.89 450.458 1845.56 Q450.458 1847.99 450.018 1850.52 Q449.578 1853.04 448.699 1855.68 Z" fill="#000000" fill-rule="evenodd" fill-opacity="1" /><path clip-path="url(#clip270)" d="M833.305 1580.38 L833.305 1585.1 L804.093 1592.37 L833.305 1599.61 L833.305 1604.87 L804.093 1612.14 L833.305 1619.38 L833.305 1624.13 L798.745 1615.45 L798.745 1609.57 L828.745 1602.28 L798.745 1594.92 L798.745 1589.04 L833.305 1580.38 Z" fill="#000000" fill-rule="evenodd" fill-opacity="1" /><path clip-path="url(#clip270)" d="M814.949 1646.72 Q814.44 1648.23 812.773 1649.64 Q811.106 1651.07 808.19 1652.51 L798.745 1657.25 L798.745 1652.23 L807.611 1647.81 Q811.083 1646.1 812.218 1644.48 Q813.352 1642.88 813.352 1640.1 L813.352 1635.01 L798.745 1635.01 L798.745 1630.33 L833.305 1630.33 L833.305 1640.89 Q833.305 1646.81 830.829 1649.73 Q828.352 1652.65 823.352 1652.65 Q820.088 1652.65 817.935 1651.12 Q815.782 1649.61 814.949 1646.72 M829.463 1635.01 L817.194 1635.01 L817.194 1640.89 Q817.194 1644.27 818.745 1645.98 Q820.319 1647.72 823.352 1647.72 Q826.384 1647.72 827.912 1645.98 Q829.463 1644.27 829.463 1640.89 L829.463 1635.01 Z" fill="#000000" fill-rule="evenodd" fill-opacity="1" /><path clip-path="url(#clip270)" d="M833.305 1663.27 L833.305 1667.95 L798.745 1667.95 L798.745 1663.27 L833.305 1663.27 Z" fill="#000000" fill-rule="evenodd" fill-opacity="1" /><path clip-path="url(#clip270)" d="M833.305 1672.46 L833.305 1701.7 L829.37 1701.7 L829.37 1689.43 L798.745 1689.43 L798.745 1684.73 L829.37 1684.73 L829.37 1672.46 L833.305 1672.46 Z" fill="#000000" fill-rule="evenodd" fill-opacity="1" /><path clip-path="url(#clip270)" d="M833.305 1706.21 L833.305 1710.89 L798.745 1710.89 L798.745 1706.21 L833.305 1706.21 Z" fill="#000000" fill-rule="evenodd" fill-opacity="1" /><path clip-path="url(#clip270)" d="M833.305 1720.19 L833.305 1726.49 L804.393 1741.81 L833.305 1741.81 L833.305 1746.35 L798.745 1746.35 L798.745 1740.05 L827.657 1724.73 L798.745 1724.73 L798.745 1720.19 L833.305 1720.19 Z" fill="#000000" fill-rule="evenodd" fill-opacity="1" /><path clip-path="url(#clip270)" d="M803.676 1779.22 L812.958 1779.22 L812.958 1771.58 L816.801 1771.58 L816.801 1783.85 L801.963 1783.85 Q800.042 1781.14 799.046 1777.88 Q798.074 1774.61 798.074 1770.91 Q798.074 1762.81 802.796 1758.22 Q807.542 1753.66 815.991 1753.66 Q824.463 1753.66 829.185 1758.22 Q833.93 1762.81 833.93 1770.91 Q833.93 1774.29 833.097 1777.32 Q832.264 1780.38 830.643 1782.95 L825.667 1782.95 Q827.866 1780.35 828.977 1777.44 Q830.088 1774.52 830.088 1771.3 Q830.088 1764.96 826.546 1761.77 Q823.005 1758.59 815.991 1758.59 Q809 1758.59 805.458 1761.77 Q801.917 1764.96 801.917 1771.3 Q801.917 1773.78 802.333 1775.72 Q802.773 1777.67 803.676 1779.22 Z" fill="#000000" fill-rule="evenodd" fill-opacity="1" /><path clip-path="url(#clip270)" d="M1215.64 1602.62 L1211.08 1602.62 Q1212.36 1599.96 1212.98 1597.6 Q1213.61 1595.24 1213.61 1593.04 Q1213.61 1589.22 1212.13 1587.14 Q1210.64 1585.08 1207.91 1585.08 Q1205.62 1585.08 1204.44 1586.44 Q1203.28 1587.83 1202.56 1591.67 L1201.99 1594.5 Q1200.99 1599.73 1198.47 1602.21 Q1195.97 1604.71 1191.75 1604.71 Q1186.73 1604.71 1184.14 1601.33 Q1181.55 1597.97 1181.55 1591.47 Q1181.55 1589.01 1182.1 1586.23 Q1182.66 1583.48 1183.75 1580.52 L1188.56 1580.52 Q1186.96 1583.36 1186.15 1586.1 Q1185.34 1588.83 1185.34 1591.47 Q1185.34 1595.47 1186.92 1597.65 Q1188.49 1599.82 1191.41 1599.82 Q1193.95 1599.82 1195.39 1598.25 Q1196.82 1596.7 1197.54 1593.13 L1198.1 1590.29 Q1199.14 1585.05 1201.36 1582.72 Q1203.58 1580.38 1207.54 1580.38 Q1212.13 1580.38 1214.76 1583.6 Q1217.4 1586.84 1217.4 1592.51 Q1217.4 1594.94 1216.96 1597.46 Q1216.52 1599.98 1215.64 1602.62 Z" fill="#000000" fill-rule="evenodd" fill-opacity="1" /><path clip-path="url(#clip270)" d="M1212.94 1616.67 L1199.95 1616.67 L1199.95 1622.55 Q1199.95 1625.82 1201.64 1627.6 Q1203.33 1629.38 1206.45 1629.38 Q1209.56 1629.38 1211.25 1627.6 Q1212.94 1625.82 1212.94 1622.55 L1212.94 1616.67 M1216.78 1612 L1216.78 1622.55 Q1216.78 1628.36 1214.14 1631.33 Q1211.52 1634.31 1206.45 1634.31 Q1201.34 1634.31 1198.72 1631.33 Q1196.11 1628.36 1196.11 1622.55 L1196.11 1616.67 L1182.22 1616.67 L1182.22 1612 L1216.78 1612 Z" fill="#000000" fill-rule="evenodd" fill-opacity="1" /><path clip-path="url(#clip270)" d="M1216.78 1640.59 L1216.78 1662.44 L1212.84 1662.44 L1212.84 1645.26 L1202.61 1645.26 L1202.61 1661.72 L1198.68 1661.72 L1198.68 1645.26 L1186.15 1645.26 L1186.15 1662.85 L1182.22 1662.85 L1182.22 1640.59 L1216.78 1640.59 Z" fill="#000000" fill-rule="evenodd" fill-opacity="1" /><path clip-path="url(#clip270)" d="M1214.12 1696.42 L1209.19 1696.42 Q1211.38 1694.06 1212.47 1691.37 Q1213.56 1688.71 1213.56 1685.7 Q1213.56 1679.78 1209.93 1676.63 Q1206.31 1673.48 1199.46 1673.48 Q1192.63 1673.48 1189 1676.63 Q1185.39 1679.78 1185.39 1685.7 Q1185.39 1688.71 1186.48 1691.37 Q1187.56 1694.06 1189.76 1696.42 L1184.88 1696.42 Q1183.21 1693.97 1182.38 1691.21 Q1181.55 1688.48 1181.55 1685.42 Q1181.55 1677.58 1186.34 1673.06 Q1191.15 1668.55 1199.46 1668.55 Q1207.8 1668.55 1212.59 1673.06 Q1217.4 1677.58 1217.4 1685.42 Q1217.4 1688.53 1216.57 1691.26 Q1215.76 1694.01 1214.12 1696.42 Z" fill="#000000" fill-rule="evenodd" fill-opacity="1" /><path clip-path="url(#clip270)" d="M1216.78 1703.64 L1216.78 1708.32 L1182.22 1708.32 L1182.22 1703.64 L1216.78 1703.64 Z" fill="#000000" fill-rule="evenodd" fill-opacity="1" /><path clip-path="url(#clip270)" d="M1216.78 1717.62 L1216.78 1737.48 L1212.84 1737.48 L1212.84 1722.3 L1202.66 1722.3 L1202.66 1736 L1198.72 1736 L1198.72 1722.3 L1182.22 1722.3 L1182.22 1717.62 L1216.78 1717.62 Z" fill="#000000" fill-rule="evenodd" fill-opacity="1" /><path clip-path="url(#clip270)" d="M1216.78 1744.89 L1216.78 1749.57 L1182.22 1749.57 L1182.22 1744.89 L1216.78 1744.89 Z" fill="#000000" fill-rule="evenodd" fill-opacity="1" /><path clip-path="url(#clip270)" d="M1214.12 1784.75 L1209.19 1784.75 Q1211.38 1782.39 1212.47 1779.71 Q1213.56 1777.04 1213.56 1774.03 Q1213.56 1768.11 1209.93 1764.96 Q1206.31 1761.81 1199.46 1761.81 Q1192.63 1761.81 1189 1764.96 Q1185.39 1768.11 1185.39 1774.03 Q1185.39 1777.04 1186.48 1779.71 Q1187.56 1782.39 1189.76 1784.75 L1184.88 1784.75 Q1183.21 1782.3 1182.38 1779.54 Q1181.55 1776.81 1181.55 1773.76 Q1181.55 1765.91 1186.34 1761.4 Q1191.15 1756.88 1199.46 1756.88 Q1207.8 1756.88 1212.59 1761.4 Q1217.4 1765.91 1217.4 1773.76 Q1217.4 1776.86 1216.57 1779.59 Q1215.76 1782.34 1214.12 1784.75 Z" fill="#000000" fill-rule="evenodd" fill-opacity="1" /><path clip-path="url(#clip270)" d="M1174.35 1811.49 L1171.04 1811.49 L1171.04 1786.86 L1174.35 1786.86 L1174.35 1811.49 Z" fill="#000000" fill-rule="evenodd" fill-opacity="1" /><path clip-path="url(#clip270)" d="M1214.12 1841.56 L1209.19 1841.56 Q1211.38 1839.2 1212.47 1836.51 Q1213.56 1833.85 1213.56 1830.84 Q1213.56 1824.91 1209.93 1821.77 Q1206.31 1818.62 1199.46 1818.62 Q1192.63 1818.62 1189 1821.77 Q1185.39 1824.91 1185.39 1830.84 Q1185.39 1833.85 1186.48 1836.51 Q1187.56 1839.2 1189.76 1841.56 L1184.88 1841.56 Q1183.21 1839.1 1182.38 1836.35 Q1181.55 1833.62 1181.55 1830.56 Q1181.55 1822.71 1186.34 1818.2 Q1191.15 1813.69 1199.46 1813.69 Q1207.8 1813.69 1212.59 1818.2 Q1217.4 1822.71 1217.4 1830.56 Q1217.4 1833.66 1216.57 1836.4 Q1215.76 1839.15 1214.12 1841.56 Z" fill="#000000" fill-rule="evenodd" fill-opacity="1" /><path clip-path="url(#clip270)" d="M1212.17 1860.33 L1194.97 1853.99 L1194.97 1866.7 L1212.17 1860.33 M1216.78 1857.69 L1216.78 1862.99 L1182.22 1876.16 L1182.22 1871.3 L1191.08 1868.15 L1191.08 1852.58 L1182.22 1849.43 L1182.22 1844.5 L1216.78 1857.69 Z" fill="#000000" fill-rule="evenodd" fill-opacity="1" /><path clip-path="url(#clip270)" d="M1215.64 1901.93 L1211.08 1901.93 Q1212.36 1899.27 1212.98 1896.9 Q1213.61 1894.54 1213.61 1892.34 Q1213.61 1888.52 1212.13 1886.44 Q1210.64 1884.38 1207.91 1884.38 Q1205.62 1884.38 1204.44 1885.75 Q1203.28 1887.14 1202.56 1890.98 L1201.99 1893.8 Q1200.99 1899.03 1198.47 1901.51 Q1195.97 1904.01 1191.75 1904.01 Q1186.73 1904.01 1184.14 1900.63 Q1181.55 1897.27 1181.55 1890.77 Q1181.55 1888.32 1182.1 1885.54 Q1182.66 1882.78 1183.75 1879.82 L1188.56 1879.82 Q1186.96 1882.67 1186.15 1885.4 Q1185.34 1888.13 1185.34 1890.77 Q1185.34 1894.77 1186.92 1896.95 Q1188.49 1899.13 1191.41 1899.13 Q1193.95 1899.13 1195.39 1897.55 Q1196.82 1896 1197.54 1892.44 L1198.1 1889.59 Q1199.14 1884.36 1201.36 1882.02 Q1203.58 1879.68 1207.54 1879.68 Q1212.13 1879.68 1214.76 1882.9 Q1217.4 1886.14 1217.4 1891.81 Q1217.4 1894.24 1216.96 1896.77 Q1216.52 1899.29 1215.64 1901.93 Z" fill="#000000" fill-rule="evenodd" fill-opacity="1" /><path clip-path="url(#clip270)" d="M1216.78 1911.3 L1216.78 1933.15 L1212.84 1933.15 L1212.84 1915.98 L1202.61 1915.98 L1202.61 1932.44 L1198.68 1932.44 L1198.68 1915.98 L1186.15 1915.98 L1186.15 1933.57 L1182.22 1933.57 L1182.22 1911.3 L1216.78 1911.3 Z" fill="#000000" fill-rule="evenodd" fill-opacity="1" /><path clip-path="url(#clip270)" d="M1600.25 1580.38 L1600.25 1587.35 L1576.73 1596.17 L1600.25 1605.03 L1600.25 1612 L1565.69 1612 L1565.69 1607.44 L1596.04 1607.44 L1572.33 1598.53 L1572.33 1593.83 L1596.04 1584.92 L1565.69 1584.92 L1565.69 1580.38 L1600.25 1580.38 Z" fill="#000000" fill-rule="evenodd" fill-opacity="1" /><path clip-path="url(#clip270)" d="M1600.25 1621.28 L1600.25 1625.96 L1565.69 1625.96 L1565.69 1621.28 L1600.25 1621.28 Z" fill="#000000" fill-rule="evenodd" fill-opacity="1" /><path clip-path="url(#clip270)" d="M1600.25 1633.6 L1600.25 1638.62 L1587.4 1647.21 L1600.25 1655.84 L1600.25 1660.86 L1583.65 1649.75 L1565.69 1661.6 L1565.69 1656.58 L1580.39 1646.86 L1565.69 1637.07 L1565.69 1632.02 L1584.14 1644.36 L1600.25 1633.6 Z" fill="#000000" fill-rule="evenodd" fill-opacity="1" /><path clip-path="url(#clip270)" d="M1600.25 1667.74 L1600.25 1689.59 L1596.32 1689.59 L1596.32 1672.41 L1586.08 1672.41 L1586.08 1688.87 L1582.15 1688.87 L1582.15 1672.41 L1569.63 1672.41 L1569.63 1690.01 L1565.69 1690.01 L1565.69 1667.74 L1600.25 1667.74 Z" fill="#000000" fill-rule="evenodd" fill-opacity="1" /><path clip-path="url(#clip270)" d="M1596.41 1702.37 L1569.53 1702.37 L1569.53 1708.02 Q1569.53 1715.17 1572.77 1718.48 Q1576.01 1721.81 1583 1721.81 Q1589.95 1721.81 1593.17 1718.48 Q1596.41 1715.17 1596.41 1708.02 L1596.41 1702.37 M1600.25 1697.69 L1600.25 1707.3 Q1600.25 1717.35 1596.06 1722.04 Q1591.89 1726.74 1583 1726.74 Q1574.07 1726.74 1569.88 1722.02 Q1565.69 1717.3 1565.69 1707.3 L1565.69 1697.69 L1600.25 1697.69 Z" fill="#000000" fill-rule="evenodd" fill-opacity="1" /><path clip-path="url(#clip270)" d="M1557.82 1753.71 L1554.51 1753.71 L1554.51 1729.08 L1557.82 1729.08 L1557.82 1753.71 Z" fill="#000000" fill-rule="evenodd" fill-opacity="1" /><path clip-path="url(#clip270)" d="M1600.25 1753.11 L1600.25 1782.34 L1596.32 1782.34 L1596.32 1770.08 L1565.69 1770.08 L1565.69 1765.38 L1596.32 1765.38 L1596.32 1753.11 L1600.25 1753.11 Z" fill="#000000" fill-rule="evenodd" fill-opacity="1" /><path clip-path="url(#clip270)" d="M1600.25 1786.86 L1600.25 1791.53 L1586.08 1791.53 L1586.08 1808.53 L1600.25 1808.53 L1600.25 1813.2 L1565.69 1813.2 L1565.69 1808.53 L1582.15 1808.53 L1582.15 1791.53 L1565.69 1791.53 L1565.69 1786.86 L1600.25 1786.86 Z" fill="#000000" fill-rule="evenodd" fill-opacity="1" /><path clip-path="url(#clip270)" d="M1600.25 1822.51 L1600.25 1844.36 L1596.32 1844.36 L1596.32 1827.18 L1586.08 1827.18 L1586.08 1843.64 L1582.15 1843.64 L1582.15 1827.18 L1569.63 1827.18 L1569.63 1844.77 L1565.69 1844.77 L1565.69 1822.51 L1600.25 1822.51 Z" fill="#000000" fill-rule="evenodd" fill-opacity="1" /><path clip-path="url(#clip270)" d="M1597.08 1866.49 Q1597.08 1861.4 1593.28 1858.39 Q1589.49 1855.4 1582.94 1855.4 Q1576.41 1855.4 1572.61 1858.39 Q1568.82 1861.4 1568.82 1866.49 Q1568.82 1871.58 1572.61 1874.54 Q1576.41 1877.53 1582.94 1877.53 Q1589.49 1877.53 1593.28 1874.54 Q1597.08 1871.58 1597.08 1866.49 M1600.88 1866.49 Q1600.88 1873.76 1595.99 1878.11 Q1591.13 1882.46 1582.94 1882.46 Q1574.76 1882.46 1569.88 1878.11 Q1565.02 1873.76 1565.02 1866.49 Q1565.02 1859.2 1569.88 1854.82 Q1574.74 1850.47 1582.94 1850.47 Q1591.13 1850.47 1595.99 1854.82 Q1600.88 1859.2 1600.88 1866.49 Z" fill="#000000" fill-rule="evenodd" fill-opacity="1" /><path clip-path="url(#clip270)" d="M1581.89 1906.16 Q1581.38 1907.67 1579.72 1909.08 Q1578.05 1910.52 1575.13 1911.95 L1565.69 1916.7 L1565.69 1911.67 L1574.56 1907.25 Q1578.03 1905.54 1579.16 1903.92 Q1580.3 1902.32 1580.3 1899.54 L1580.3 1894.45 L1565.69 1894.45 L1565.69 1889.77 L1600.25 1889.77 L1600.25 1900.33 Q1600.25 1906.26 1597.77 1909.17 Q1595.3 1912.09 1590.3 1912.09 Q1587.03 1912.09 1584.88 1910.56 Q1582.73 1909.06 1581.89 1906.16 M1596.41 1894.45 L1584.14 1894.45 L1584.14 1900.33 Q1584.14 1903.71 1585.69 1905.42 Q1587.26 1907.16 1590.3 1907.16 Q1593.33 1907.16 1594.86 1905.42 Q1596.41 1903.71 1596.41 1900.33 L1596.41 1894.45 Z" fill="#000000" fill-rule="evenodd" fill-opacity="1" /><path clip-path="url(#clip270)" d="M1600.25 1914.94 L1600.25 1919.96 L1586.04 1929.54 L1600.25 1939.06 L1600.25 1944.08 L1582.15 1931.86 L1565.69 1931.86 L1565.69 1927.16 L1582.15 1927.16 L1600.25 1914.94 Z" fill="#000000" fill-rule="evenodd" fill-opacity="1" /><path clip-path="url(#clip270)" d="M1983.72 1580.38 L1983.72 1585.1 L1954.51 1592.37 L1983.72 1599.61 L1983.72 1604.87 L1954.51 1612.14 L1983.72 1619.38 L1983.72 1624.13 L1949.16 1615.45 L1949.16 1609.57 L1979.16 1602.28 L1949.16 1594.92 L1949.16 1589.04 L1983.72 1580.38 Z" fill="#000000" fill-rule="evenodd" fill-opacity="1" /><path clip-path="url(#clip270)" d="M1979.12 1639.29 L1961.92 1632.95 L1961.92 1645.66 L1979.12 1639.29 M1983.72 1636.65 L1983.72 1641.95 L1949.16 1655.12 L1949.16 1650.26 L1958.03 1647.11 L1958.03 1631.54 L1949.16 1628.39 L1949.16 1623.46 L1983.72 1636.65 Z" fill="#000000" fill-rule="evenodd" fill-opacity="1" /><path clip-path="url(#clip270)" d="M1982.59 1680.89 L1978.03 1680.89 Q1979.3 1678.22 1979.93 1675.86 Q1980.55 1673.5 1980.55 1671.3 Q1980.55 1667.48 1979.07 1665.4 Q1977.59 1663.34 1974.86 1663.34 Q1972.57 1663.34 1971.38 1664.71 Q1970.23 1666.1 1969.51 1669.94 L1968.93 1672.76 Q1967.94 1677.99 1965.41 1680.47 Q1962.91 1682.97 1958.7 1682.97 Q1953.68 1682.97 1951.08 1679.59 Q1948.49 1676.23 1948.49 1669.73 Q1948.49 1667.28 1949.05 1664.5 Q1949.6 1661.74 1950.69 1658.78 L1955.51 1658.78 Q1953.91 1661.63 1953.1 1664.36 Q1952.29 1667.09 1952.29 1669.73 Q1952.29 1673.73 1953.86 1675.91 Q1955.44 1678.09 1958.35 1678.09 Q1960.9 1678.09 1962.33 1676.51 Q1963.77 1674.96 1964.49 1671.4 L1965.04 1668.55 Q1966.08 1663.32 1968.31 1660.98 Q1970.53 1658.64 1974.49 1658.64 Q1979.07 1658.64 1981.71 1661.86 Q1984.35 1665.1 1984.35 1670.77 Q1984.35 1673.2 1983.91 1675.72 Q1983.47 1678.25 1982.59 1680.89 Z" fill="#000000" fill-rule="evenodd" fill-opacity="1" /><path clip-path="url(#clip270)" d="M1983.72 1690.26 L1983.72 1694.94 L1969.56 1694.94 L1969.56 1711.93 L1983.72 1711.93 L1983.72 1716.6 L1949.16 1716.6 L1949.16 1711.93 L1965.62 1711.93 L1965.62 1694.94 L1949.16 1694.94 L1949.16 1690.26 L1983.72 1690.26 Z" fill="#000000" fill-rule="evenodd" fill-opacity="1" /><path clip-path="url(#clip270)" d="M1983.72 1721.16 L1983.72 1726.19 L1969.51 1735.77 L1983.72 1745.28 L1983.72 1750.31 L1965.62 1738.09 L1949.16 1738.09 L1949.16 1733.39 L1965.62 1733.39 L1983.72 1721.16 Z" fill="#000000" fill-rule="evenodd" fill-opacity="1" /><path clip-path="url(#clip270)" d="M2367.2 1580.38 L2367.2 1587.35 L2343.68 1596.17 L2367.2 1605.03 L2367.2 1612 L2332.64 1612 L2332.64 1607.44 L2362.98 1607.44 L2339.28 1598.53 L2339.28 1593.83 L2362.98 1584.92 L2332.64 1584.92 L2332.64 1580.38 L2367.2 1580.38 Z" fill="#000000" fill-rule="evenodd" fill-opacity="1" /><path clip-path="url(#clip270)" d="M2364.02 1635.31 Q2364.02 1630.22 2360.23 1627.21 Q2356.43 1624.22 2349.88 1624.22 Q2343.35 1624.22 2339.56 1627.21 Q2335.76 1630.22 2335.76 1635.31 Q2335.76 1640.4 2339.56 1643.36 Q2343.35 1646.35 2349.88 1646.35 Q2356.43 1646.35 2360.23 1643.36 Q2364.02 1640.4 2364.02 1635.31 M2367.82 1635.31 Q2367.82 1642.58 2362.94 1646.93 Q2358.07 1651.28 2349.88 1651.28 Q2341.71 1651.28 2336.82 1646.93 Q2331.96 1642.58 2331.96 1635.31 Q2331.96 1628.02 2336.82 1623.64 Q2341.69 1619.29 2349.88 1619.29 Q2358.07 1619.29 2362.94 1623.64 Q2367.82 1628.02 2367.82 1635.31 Z" fill="#000000" fill-rule="evenodd" fill-opacity="1" /><path clip-path="url(#clip270)" d="M2348.84 1674.98 Q2348.33 1676.49 2346.66 1677.9 Q2345 1679.34 2342.08 1680.77 L2332.64 1685.52 L2332.64 1680.49 L2341.5 1676.07 Q2344.97 1674.36 2346.11 1672.74 Q2347.24 1671.14 2347.24 1668.36 L2347.24 1663.27 L2332.64 1663.27 L2332.64 1658.6 L2367.2 1658.6 L2367.2 1669.15 Q2367.2 1675.08 2364.72 1677.99 Q2362.24 1680.91 2357.24 1680.91 Q2353.98 1680.91 2351.82 1679.38 Q2349.67 1677.88 2348.84 1674.98 M2363.35 1663.27 L2351.08 1663.27 L2351.08 1669.15 Q2351.08 1672.53 2352.63 1674.24 Q2354.21 1675.98 2357.24 1675.98 Q2360.27 1675.98 2361.8 1674.24 Q2363.35 1672.53 2363.35 1669.15 L2363.35 1663.27 Z" fill="#000000" fill-rule="evenodd" fill-opacity="1" /><path clip-path="url(#clip270)" d="M2362.59 1701.16 L2345.39 1694.82 L2345.39 1707.53 L2362.59 1701.16 M2367.2 1698.53 L2367.2 1703.83 L2332.64 1717 L2332.64 1712.14 L2341.5 1708.99 L2341.5 1693.41 L2332.64 1690.26 L2332.64 1685.33 L2367.2 1698.53 Z" fill="#000000" fill-rule="evenodd" fill-opacity="1" /><path clip-path="url(#clip270)" d="M2367.2 1722.04 L2367.2 1726.72 L2336.57 1726.72 L2336.57 1743.55 L2332.64 1743.55 L2332.64 1722.04 L2367.2 1722.04 Z" fill="#000000" fill-rule="evenodd" fill-opacity="1" /><path clip-path="url(#clip270)" d="M2324.76 1767.97 L2321.45 1767.97 L2321.45 1743.34 L2324.76 1743.34 L2324.76 1767.97 Z" fill="#000000" fill-rule="evenodd" fill-opacity="1" /><path clip-path="url(#clip270)" d="M2363.35 1776.84 L2350.37 1776.84 L2350.37 1782.72 Q2350.37 1785.98 2352.06 1787.76 Q2353.75 1789.54 2356.87 1789.54 Q2359.97 1789.54 2361.66 1787.76 Q2363.35 1785.98 2363.35 1782.72 L2363.35 1776.84 M2367.2 1772.16 L2367.2 1782.72 Q2367.2 1788.53 2364.56 1791.49 Q2361.94 1794.47 2356.87 1794.47 Q2351.76 1794.47 2349.14 1791.49 Q2346.52 1788.53 2346.52 1782.72 L2346.52 1776.84 L2332.64 1776.84 L2332.64 1772.16 L2367.2 1772.16 Z" fill="#000000" fill-rule="evenodd" fill-opacity="1" /><path clip-path="url(#clip270)" d="M2348.84 1817.14 Q2348.33 1818.64 2346.66 1820.05 Q2345 1821.49 2342.08 1822.92 L2332.64 1827.67 L2332.64 1822.65 L2341.5 1818.22 Q2344.97 1816.51 2346.11 1814.89 Q2347.24 1813.29 2347.24 1810.52 L2347.24 1805.42 L2332.64 1805.42 L2332.64 1800.75 L2367.2 1800.75 L2367.2 1811.3 Q2367.2 1817.23 2364.72 1820.15 Q2362.24 1823.06 2357.24 1823.06 Q2353.98 1823.06 2351.82 1821.53 Q2349.67 1820.03 2348.84 1817.14 M2363.35 1805.42 L2351.08 1805.42 L2351.08 1811.3 Q2351.08 1814.68 2352.63 1816.4 Q2354.21 1818.13 2357.24 1818.13 Q2360.27 1818.13 2361.8 1816.4 Q2363.35 1814.68 2363.35 1811.3 L2363.35 1805.42 Z" fill="#000000" fill-rule="evenodd" fill-opacity="1" /><path clip-path="url(#clip270)" d="M2367.2 1833.69 L2367.2 1855.54 L2363.26 1855.54 L2363.26 1838.36 L2353.03 1838.36 L2353.03 1854.82 L2349.09 1854.82 L2349.09 1838.36 L2336.57 1838.36 L2336.57 1855.96 L2332.64 1855.96 L2332.64 1833.69 L2367.2 1833.69 Z" fill="#000000" fill-rule="evenodd" fill-opacity="1" /><path clip-path="url(#clip270)" d="M2367.2 1863.64 L2367.2 1870.61 L2343.68 1879.43 L2367.2 1888.29 L2367.2 1895.26 L2332.64 1895.26 L2332.64 1890.7 L2362.98 1890.7 L2339.28 1881.79 L2339.28 1877.09 L2362.98 1868.18 L2332.64 1868.18 L2332.64 1863.64 L2367.2 1863.64 Z" fill="#000000" fill-rule="evenodd" fill-opacity="1" /><path clip-path="url(#clip270)" d="M2367.2 1904.54 L2367.2 1909.22 L2332.64 1909.22 L2332.64 1904.54 L2367.2 1904.54 Z" fill="#000000" fill-rule="evenodd" fill-opacity="1" /><path clip-path="url(#clip270)" d="M2366.06 1939.24 L2361.5 1939.24 Q2362.77 1936.58 2363.4 1934.22 Q2364.02 1931.86 2364.02 1929.66 Q2364.02 1925.84 2362.54 1923.76 Q2361.06 1921.7 2358.33 1921.7 Q2356.04 1921.7 2354.86 1923.06 Q2353.7 1924.45 2352.98 1928.29 L2352.4 1931.12 Q2351.41 1936.35 2348.88 1938.83 Q2346.39 1941.33 2342.17 1941.33 Q2337.15 1941.33 2334.56 1937.95 Q2331.96 1934.59 2331.96 1928.08 Q2331.96 1925.63 2332.52 1922.85 Q2333.07 1920.1 2334.16 1917.14 L2338.98 1917.14 Q2337.38 1919.98 2336.57 1922.71 Q2335.76 1925.45 2335.76 1928.08 Q2335.76 1932.09 2337.33 1934.27 Q2338.91 1936.44 2341.82 1936.44 Q2344.37 1936.44 2345.81 1934.87 Q2347.24 1933.32 2347.96 1929.75 L2348.51 1926.9 Q2349.56 1921.67 2351.78 1919.33 Q2354 1917 2357.96 1917 Q2362.54 1917 2365.18 1920.21 Q2367.82 1923.46 2367.82 1929.13 Q2367.82 1931.56 2367.38 1934.08 Q2366.94 1936.6 2366.06 1939.24 Z" fill="#000000" fill-rule="evenodd" fill-opacity="1" /><path clip-path="url(#clip270)" d="M2367.2 1948.62 L2367.2 1970.47 L2363.26 1970.47 L2363.26 1953.29 L2353.03 1953.29 L2353.03 1969.75 L2349.09 1969.75 L2349.09 1953.29 L2336.57 1953.29 L2336.57 1970.89 L2332.64 1970.89 L2332.64 1948.62 L2367.2 1948.62 Z" fill="#000000" fill-rule="evenodd" fill-opacity="1" /><polyline clip-path="url(#clip272)" style="stroke:#000000; stroke-linecap:round; stroke-linejoin:round; stroke-width:2; stroke-opacity:0.1; fill:none" points="
  141.712,1516.09 2640.76,1516.09 
  "/>
<polyline clip-path="url(#clip272)" style="stroke:#000000; stroke-linecap:round; stroke-linejoin:round; stroke-width:2; stroke-opacity:0.1; fill:none" points="
  141.712,1091.67 2640.76,1091.67 
  "/>
<polyline clip-path="url(#clip272)" style="stroke:#000000; stroke-linecap:round; stroke-linejoin:round; stroke-width:2; stroke-opacity:0.1; fill:none" points="
  141.712,667.243 2640.76,667.243 
  "/>
<polyline clip-path="url(#clip272)" style="stroke:#000000; stroke-linecap:round; stroke-linejoin:round; stroke-width:2; stroke-opacity:0.1; fill:none" points="
  141.712,242.819 2640.76,242.819 
  "/>
<polyline clip-path="url(#clip270)" style="stroke:#000000; stroke-linecap:round; stroke-linejoin:round; stroke-width:4; stroke-opacity:1; fill:none" points="
  141.712,1558.87 141.712,47.2441 
  "/>
<polyline clip-path="url(#clip270)" style="stroke:#000000; stroke-linecap:round; stroke-linejoin:round; stroke-width:4; stroke-opacity:1; fill:none" points="
  141.712,1516.09 160.61,1516.09 
  "/>
<polyline clip-path="url(#clip270)" style="stroke:#000000; stroke-linecap:round; stroke-linejoin:round; stroke-width:4; stroke-opacity:1; fill:none" points="
  141.712,1091.67 160.61,1091.67 
  "/>
<polyline clip-path="url(#clip270)" style="stroke:#000000; stroke-linecap:round; stroke-linejoin:round; stroke-width:4; stroke-opacity:1; fill:none" points="
  141.712,667.243 160.61,667.243 
  "/>
<polyline clip-path="url(#clip270)" style="stroke:#000000; stroke-linecap:round; stroke-linejoin:round; stroke-width:4; stroke-opacity:1; fill:none" points="
  141.712,242.819 160.61,242.819 
  "/>
<path clip-path="url(#clip270)" d="M89.6734 1516.09 Q89.6734 1512.48 86.1086 1510.65 Q82.567 1508.85 75.4374 1508.85 Q68.331 1508.85 64.7662 1510.65 Q61.2245 1512.48 61.2245 1516.09 Q61.2245 1519.73 64.7662 1521.53 Q68.331 1523.36 75.4374 1523.36 Q82.567 1523.36 86.1086 1521.53 Q89.6734 1519.73 89.6734 1516.09 M93.3771 1516.09 Q93.3771 1521.9 88.7707 1524.96 Q84.1874 1528.04 75.4374 1528.04 Q66.7106 1528.04 62.1041 1524.96 Q57.5208 1521.9 57.5208 1516.09 Q57.5208 1510.28 62.1041 1507.2 Q66.7106 1504.15 75.4374 1504.15 Q84.1874 1504.15 88.7707 1507.2 Q93.3771 1510.28 93.3771 1516.09 Z" fill="#000000" fill-rule="evenodd" fill-opacity="1" /><path clip-path="url(#clip270)" d="M92.7521 1066.37 L92.7521 1084.72 L88.817 1084.72 L88.817 1070.65 L80.3448 1070.65 Q80.692 1071.67 80.854 1072.69 Q81.0392 1073.7 81.0392 1074.72 Q81.0392 1080.51 77.8679 1083.89 Q74.6967 1087.27 69.28 1087.27 Q63.7014 1087.27 60.5995 1083.8 Q57.5208 1080.33 57.5208 1074.01 Q57.5208 1071.83 57.8912 1069.56 Q58.2616 1067.32 59.0023 1064.91 L63.7014 1064.91 Q62.5671 1066.99 62.0115 1069.21 Q61.456 1071.44 61.456 1073.91 Q61.456 1077.92 63.5625 1080.26 Q65.6689 1082.59 69.28 1082.59 Q72.8911 1082.59 74.9976 1080.26 Q77.1041 1077.92 77.1041 1073.91 Q77.1041 1072.04 76.6874 1070.16 Q76.2707 1068.31 75.3911 1066.37 L92.7521 1066.37 Z" fill="#000000" fill-rule="evenodd" fill-opacity="1" /><path clip-path="url(#clip270)" d="M89.6734 1106.48 Q89.6734 1102.87 86.1086 1101.04 Q82.567 1099.24 75.4374 1099.24 Q68.331 1099.24 64.7662 1101.04 Q61.2245 1102.87 61.2245 1106.48 Q61.2245 1110.12 64.7662 1111.92 Q68.331 1113.75 75.4374 1113.75 Q82.567 1113.75 86.1086 1111.92 Q89.6734 1110.12 89.6734 1106.48 M93.3771 1106.48 Q93.3771 1112.29 88.7707 1115.35 Q84.1874 1118.43 75.4374 1118.43 Q66.7106 1118.43 62.1041 1115.35 Q57.5208 1112.29 57.5208 1106.48 Q57.5208 1100.67 62.1041 1097.59 Q66.7106 1094.54 75.4374 1094.54 Q84.1874 1094.54 88.7707 1097.59 Q93.3771 1100.67 93.3771 1106.48 Z" fill="#000000" fill-rule="evenodd" fill-opacity="1" /><path clip-path="url(#clip270)" d="M62.1273 626.85 L62.1273 634.489 L88.4929 634.489 L86.8262 626.179 L91.0855 626.179 L92.7521 634.443 L92.7521 639.118 L62.1273 639.118 L62.1273 646.757 L58.1921 646.757 L58.1921 626.85 L62.1273 626.85 Z" fill="#000000" fill-rule="evenodd" fill-opacity="1" /><path clip-path="url(#clip270)" d="M89.6734 666.202 Q89.6734 662.591 86.1086 660.762 Q82.567 658.956 75.4374 658.956 Q68.331 658.956 64.7662 660.762 Q61.2245 662.591 61.2245 666.202 Q61.2245 669.836 64.7662 671.641 Q68.331 673.47 75.4374 673.47 Q82.567 673.47 86.1086 671.641 Q89.6734 669.836 89.6734 666.202 M93.3771 666.202 Q93.3771 672.012 88.7707 675.067 Q84.1874 678.146 75.4374 678.146 Q66.7106 678.146 62.1041 675.067 Q57.5208 672.012 57.5208 666.202 Q57.5208 660.392 62.1041 657.313 Q66.7106 654.257 75.4374 654.257 Q84.1874 654.257 88.7707 657.313 Q93.3771 660.392 93.3771 666.202 Z" fill="#000000" fill-rule="evenodd" fill-opacity="1" /><path clip-path="url(#clip270)" d="M89.6734 696.364 Q89.6734 692.752 86.1086 690.924 Q82.567 689.118 75.4374 689.118 Q68.331 689.118 64.7662 690.924 Q61.2245 692.752 61.2245 696.364 Q61.2245 699.998 64.7662 701.803 Q68.331 703.632 75.4374 703.632 Q82.567 703.632 86.1086 701.803 Q89.6734 699.998 89.6734 696.364 M93.3771 696.364 Q93.3771 702.174 88.7707 705.229 Q84.1874 708.308 75.4374 708.308 Q66.7106 708.308 62.1041 705.229 Q57.5208 702.174 57.5208 696.364 Q57.5208 690.553 62.1041 687.475 Q66.7106 684.419 75.4374 684.419 Q84.1874 684.419 88.7707 687.475 Q93.3771 690.553 93.3771 696.364 Z" fill="#000000" fill-rule="evenodd" fill-opacity="1" /><path clip-path="url(#clip270)" d="M62.1273 202.426 L62.1273 210.064 L88.4929 210.064 L86.8262 201.754 L91.0855 201.754 L92.7521 210.018 L92.7521 214.694 L62.1273 214.694 L62.1273 222.333 L58.1921 222.333 L58.1921 202.426 L62.1273 202.426 Z" fill="#000000" fill-rule="evenodd" fill-opacity="1" /><path clip-path="url(#clip270)" d="M92.7521 231.824 L92.7521 250.18 L88.817 250.18 L88.817 236.106 L80.3448 236.106 Q80.692 237.124 80.854 238.143 Q81.0392 239.161 81.0392 240.18 Q81.0392 245.967 77.8679 249.347 Q74.6967 252.726 69.28 252.726 Q63.7014 252.726 60.5995 249.254 Q57.5208 245.782 57.5208 239.462 Q57.5208 237.286 57.8912 235.018 Q58.2616 232.773 59.0023 230.365 L63.7014 230.365 Q62.5671 232.449 62.0115 234.671 Q61.456 236.893 61.456 239.37 Q61.456 243.374 63.5625 245.712 Q65.6689 248.05 69.28 248.05 Q72.8911 248.05 74.9976 245.712 Q77.1041 243.374 77.1041 239.37 Q77.1041 237.495 76.6874 235.62 Q76.2707 233.768 75.3911 231.824 L92.7521 231.824 Z" fill="#000000" fill-rule="evenodd" fill-opacity="1" /><path clip-path="url(#clip270)" d="M89.6734 271.939 Q89.6734 268.328 86.1086 266.499 Q82.567 264.694 75.4374 264.694 Q68.331 264.694 64.7662 266.499 Q61.2245 268.328 61.2245 271.939 Q61.2245 275.573 64.7662 277.379 Q68.331 279.208 75.4374 279.208 Q82.567 279.208 86.1086 277.379 Q89.6734 275.573 89.6734 271.939 M93.3771 271.939 Q93.3771 277.749 88.7707 280.805 Q84.1874 283.883 75.4374 283.883 Q66.7106 283.883 62.1041 280.805 Q57.5208 277.749 57.5208 271.939 Q57.5208 266.129 62.1041 263.05 Q66.7106 259.995 75.4374 259.995 Q84.1874 259.995 88.7707 263.05 Q93.3771 266.129 93.3771 271.939 Z" fill="#000000" fill-rule="evenodd" fill-opacity="1" /><path clip-path="url(#clip272)" d="
M279.164 90.0261 L279.164 1516.09 L585.942 1516.09 L585.942 90.0261 L279.164 90.0261 L279.164 90.0261  Z
  " fill="#009af9" fill-rule="evenodd" fill-opacity="1"/>
<polyline clip-path="url(#clip272)" style="stroke:#000000; stroke-linecap:round; stroke-linejoin:round; stroke-width:4; stroke-opacity:1; fill:none" points="
  279.164,90.0261 279.164,1516.09 585.942,1516.09 585.942,90.0261 279.164,90.0261 
  "/>
<path clip-path="url(#clip272)" d="
M662.636 242.819 L662.636 1516.09 L969.414 1516.09 L969.414 242.819 L662.636 242.819 L662.636 242.819  Z
  " fill="#009af9" fill-rule="evenodd" fill-opacity="1"/>
<polyline clip-path="url(#clip272)" style="stroke:#000000; stroke-linecap:round; stroke-linejoin:round; stroke-width:4; stroke-opacity:1; fill:none" points="
  662.636,242.819 662.636,1516.09 969.414,1516.09 969.414,242.819 662.636,242.819 
  "/>
<path clip-path="url(#clip272)" d="
M1046.11 837.013 L1046.11 1516.09 L1352.89 1516.09 L1352.89 837.013 L1046.11 837.013 L1046.11 837.013  Z
  " fill="#009af9" fill-rule="evenodd" fill-opacity="1"/>
<polyline clip-path="url(#clip272)" style="stroke:#000000; stroke-linecap:round; stroke-linejoin:round; stroke-width:4; stroke-opacity:1; fill:none" points="
  1046.11,837.013 1046.11,1516.09 1352.89,1516.09 1352.89,837.013 1046.11,837.013 
  "/>
<path clip-path="url(#clip272)" d="
M1429.58 904.921 L1429.58 1516.09 L1736.36 1516.09 L1736.36 904.921 L1429.58 904.921 L1429.58 904.921  Z
  " fill="#009af9" fill-rule="evenodd" fill-opacity="1"/>
<polyline clip-path="url(#clip272)" style="stroke:#000000; stroke-linecap:round; stroke-linejoin:round; stroke-width:4; stroke-opacity:1; fill:none" points="
  1429.58,904.921 1429.58,1516.09 1736.36,1516.09 1736.36,904.921 1429.58,904.921 
  "/>
<path clip-path="url(#clip272)" d="
M1813.05 1091.67 L1813.05 1516.09 L2119.83 1516.09 L2119.83 1091.67 L1813.05 1091.67 L1813.05 1091.67  Z
  " fill="#009af9" fill-rule="evenodd" fill-opacity="1"/>
<polyline clip-path="url(#clip272)" style="stroke:#000000; stroke-linecap:round; stroke-linejoin:round; stroke-width:4; stroke-opacity:1; fill:none" points="
  1813.05,1091.67 1813.05,1516.09 2119.83,1516.09 2119.83,1091.67 1813.05,1091.67 
  "/>
<path clip-path="url(#clip272)" d="
M2196.53 1117.13 L2196.53 1516.09 L2503.3 1516.09 L2503.3 1117.13 L2196.53 1117.13 L2196.53 1117.13  Z
  " fill="#009af9" fill-rule="evenodd" fill-opacity="1"/>
<polyline clip-path="url(#clip272)" style="stroke:#000000; stroke-linecap:round; stroke-linejoin:round; stroke-width:4; stroke-opacity:1; fill:none" points="
  2196.53,1117.13 2196.53,1516.09 2503.3,1516.09 2503.3,1117.13 2196.53,1117.13 
  "/>
<circle clip-path="url(#clip272)" style="fill:#009af9; stroke:none; fill-opacity:0" cx="432.553" cy="90.0261" r="2"/>
<circle clip-path="url(#clip272)" style="fill:#009af9; stroke:none; fill-opacity:0" cx="816.025" cy="242.819" r="2"/>
<circle clip-path="url(#clip272)" style="fill:#009af9; stroke:none; fill-opacity:0" cx="1199.5" cy="837.013" r="2"/>
<circle clip-path="url(#clip272)" style="fill:#009af9; stroke:none; fill-opacity:0" cx="1582.97" cy="904.921" r="2"/>
<circle clip-path="url(#clip272)" style="fill:#009af9; stroke:none; fill-opacity:0" cx="1966.44" cy="1091.67" r="2"/>
<circle clip-path="url(#clip272)" style="fill:#009af9; stroke:none; fill-opacity:0" cx="2349.92" cy="1117.13" r="2"/>
</svg>
