<?xml version="1.0" encoding="utf-8"?>
<svg xmlns="http://www.w3.org/2000/svg" xmlns:xlink="http://www.w3.org/1999/xlink" width="672" height="480" viewBox="0 0 2688 1920">
<defs>
  <clipPath id="clip760">
    <rect x="0" y="0" width="2688" height="1920"/>
  </clipPath>
</defs>
<path clip-path="url(#clip760)" d="
M0 1920 L2688 1920 L2688 0 L0 0  Z
  " fill="#ffffff" fill-rule="evenodd" fill-opacity="1"/>
<defs>
  <clipPath id="clip761">
    <rect x="537" y="0" width="1883" height="1883"/>
  </clipPath>
</defs>
<path clip-path="url(#clip760)" d="
M141.712 1490.85 L2640.76 1490.85 L2640.76 47.2441 L141.712 47.2441  Z
  " fill="#ffffff" fill-rule="evenodd" fill-opacity="1"/>
<defs>
  <clipPath id="clip762">
    <rect x="141" y="47" width="2500" height="1445"/>
  </clipPath>
</defs>
<polyline clip-path="url(#clip762)" style="stroke:#000000; stroke-linecap:round; stroke-linejoin:round; stroke-width:2; stroke-opacity:0.1; fill:none" points="
  369.945,1490.85 369.945,47.2441 
  "/>
<polyline clip-path="url(#clip762)" style="stroke:#000000; stroke-linecap:round; stroke-linejoin:round; stroke-width:2; stroke-opacity:0.1; fill:none" points="
  596.898,1490.85 596.898,47.2441 
  "/>
<polyline clip-path="url(#clip762)" style="stroke:#000000; stroke-linecap:round; stroke-linejoin:round; stroke-width:2; stroke-opacity:0.1; fill:none" points="
  823.851,1490.85 823.851,47.2441 
  "/>
<polyline clip-path="url(#clip762)" style="stroke:#000000; stroke-linecap:round; stroke-linejoin:round; stroke-width:2; stroke-opacity:0.1; fill:none" points="
  1050.8,1490.85 1050.8,47.2441 
  "/>
<polyline clip-path="url(#clip762)" style="stroke:#000000; stroke-linecap:round; stroke-linejoin:round; stroke-width:2; stroke-opacity:0.1; fill:none" points="
  1277.76,1490.85 1277.76,47.2441 
  "/>
<polyline clip-path="url(#clip762)" style="stroke:#000000; stroke-linecap:round; stroke-linejoin:round; stroke-width:2; stroke-opacity:0.1; fill:none" points="
  1504.71,1490.85 1504.71,47.2441 
  "/>
<polyline clip-path="url(#clip762)" style="stroke:#000000; stroke-linecap:round; stroke-linejoin:round; stroke-width:2; stroke-opacity:0.1; fill:none" points="
  1731.66,1490.85 1731.66,47.2441 
  "/>
<polyline clip-path="url(#clip762)" style="stroke:#000000; stroke-linecap:round; stroke-linejoin:round; stroke-width:2; stroke-opacity:0.1; fill:none" points="
  1958.62,1490.85 1958.62,47.2441 
  "/>
<polyline clip-path="url(#clip762)" style="stroke:#000000; stroke-linecap:round; stroke-linejoin:round; stroke-width:2; stroke-opacity:0.1; fill:none" points="
  2185.57,1490.85 2185.57,47.2441 
  "/>
<polyline clip-path="url(#clip762)" style="stroke:#000000; stroke-linecap:round; stroke-linejoin:round; stroke-width:2; stroke-opacity:0.1; fill:none" points="
  2412.52,1490.85 2412.52,47.2441 
  "/>
<polyline clip-path="url(#clip760)" style="stroke:#000000; stroke-linecap:round; stroke-linejoin:round; stroke-width:4; stroke-opacity:1; fill:none" points="
  141.712,1490.85 2640.76,1490.85 
  "/>
<polyline clip-path="url(#clip760)" style="stroke:#000000; stroke-linecap:round; stroke-linejoin:round; stroke-width:4; stroke-opacity:1; fill:none" points="
  369.945,1490.85 369.945,1471.95 
  "/>
<polyline clip-path="url(#clip760)" style="stroke:#000000; stroke-linecap:round; stroke-linejoin:round; stroke-width:4; stroke-opacity:1; fill:none" points="
  596.898,1490.85 596.898,1471.95 
  "/>
<polyline clip-path="url(#clip760)" style="stroke:#000000; stroke-linecap:round; stroke-linejoin:round; stroke-width:4; stroke-opacity:1; fill:none" points="
  823.851,1490.85 823.851,1471.95 
  "/>
<polyline clip-path="url(#clip760)" style="stroke:#000000; stroke-linecap:round; stroke-linejoin:round; stroke-width:4; stroke-opacity:1; fill:none" points="
  1050.8,1490.85 1050.8,1471.95 
  "/>
<polyline clip-path="url(#clip760)" style="stroke:#000000; stroke-linecap:round; stroke-linejoin:round; stroke-width:4; stroke-opacity:1; fill:none" points="
  1277.76,1490.85 1277.76,1471.95 
  "/>
<polyline clip-path="url(#clip760)" style="stroke:#000000; stroke-linecap:round; stroke-linejoin:round; stroke-width:4; stroke-opacity:1; fill:none" points="
  1504.71,1490.85 1504.71,1471.95 
  "/>
<polyline clip-path="url(#clip760)" style="stroke:#000000; stroke-linecap:round; stroke-linejoin:round; stroke-width:4; stroke-opacity:1; fill:none" points="
  1731.66,1490.85 1731.66,1471.95 
  "/>
<polyline clip-path="url(#clip760)" style="stroke:#000000; stroke-linecap:round; stroke-linejoin:round; stroke-width:4; stroke-opacity:1; fill:none" points="
  1958.62,1490.85 1958.62,1471.95 
  "/>
<polyline clip-path="url(#clip760)" style="stroke:#000000; stroke-linecap:round; stroke-linejoin:round; stroke-width:4; stroke-opacity:1; fill:none" points="
  2185.57,1490.85 2185.57,1471.95 
  "/>
<polyline clip-path="url(#clip760)" style="stroke:#000000; stroke-linecap:round; stroke-linejoin:round; stroke-width:4; stroke-opacity:1; fill:none" points="
  2412.52,1490.85 2412.52,1471.95 
  "/>
<path clip-path="url(#clip760)" d="M384.563 1540.23 L379.633 1540.23 Q381.832 1537.87 382.92 1535.18 Q384.008 1532.52 384.008 1529.51 Q384.008 1523.58 380.373 1520.43 Q376.762 1517.29 369.91 1517.29 Q363.082 1517.29 359.448 1520.43 Q355.836 1523.58 355.836 1529.51 Q355.836 1532.52 356.924 1535.18 Q358.012 1537.87 360.211 1540.23 L355.327 1540.23 Q353.661 1537.77 352.827 1535.02 Q351.994 1532.29 351.994 1529.23 Q351.994 1521.38 356.786 1516.87 Q361.6 1512.36 369.91 1512.36 Q378.244 1512.36 383.035 1516.87 Q387.85 1521.38 387.85 1529.23 Q387.85 1532.33 387.017 1535.06 Q386.207 1537.82 384.563 1540.23 Z" fill="#000000" fill-rule="evenodd" fill-opacity="1" /><path clip-path="url(#clip760)" d="M387.225 1547.45 L387.225 1552.12 L352.665 1552.12 L352.665 1547.45 L387.225 1547.45 Z" fill="#000000" fill-rule="evenodd" fill-opacity="1" /><path clip-path="url(#clip760)" d="M387.225 1556.64 L387.225 1585.87 L383.29 1585.87 L383.29 1573.61 L352.665 1573.61 L352.665 1568.91 L383.29 1568.91 L383.29 1556.64 L387.225 1556.64 Z" fill="#000000" fill-rule="evenodd" fill-opacity="1" /><path clip-path="url(#clip760)" d="M382.619 1598.26 L365.42 1591.92 L365.42 1604.62 L382.619 1598.26 M387.225 1595.62 L387.225 1600.92 L352.665 1614.09 L352.665 1609.23 L361.531 1606.08 L361.531 1590.5 L352.665 1587.36 L352.665 1582.43 L387.225 1595.62 Z" fill="#000000" fill-rule="evenodd" fill-opacity="1" /><path clip-path="url(#clip760)" d="M387.225 1610.67 L387.225 1639.9 L383.29 1639.9 L383.29 1627.63 L352.665 1627.63 L352.665 1622.93 L383.29 1622.93 L383.29 1610.67 L387.225 1610.67 Z" fill="#000000" fill-rule="evenodd" fill-opacity="1" /><path clip-path="url(#clip760)" d="M387.225 1644.42 L387.225 1649.09 L352.665 1649.09 L352.665 1644.42 L387.225 1644.42 Z" fill="#000000" fill-rule="evenodd" fill-opacity="1" /><path clip-path="url(#clip760)" d="M384.054 1672.42 Q384.054 1667.33 380.258 1664.32 Q376.461 1661.34 369.91 1661.34 Q363.383 1661.34 359.586 1664.32 Q355.79 1667.33 355.79 1672.42 Q355.79 1677.52 359.586 1680.48 Q363.383 1683.47 369.91 1683.47 Q376.461 1683.47 380.258 1680.48 Q384.054 1677.52 384.054 1672.42 M387.85 1672.42 Q387.85 1679.69 382.966 1684.04 Q378.105 1688.4 369.91 1688.4 Q361.739 1688.4 356.855 1684.04 Q351.994 1679.69 351.994 1672.42 Q351.994 1665.13 356.855 1660.76 Q361.716 1656.41 369.91 1656.41 Q378.105 1656.41 382.966 1660.76 Q387.85 1665.13 387.85 1672.42 Z" fill="#000000" fill-rule="evenodd" fill-opacity="1" /><path clip-path="url(#clip760)" d="M387.225 1695.71 L387.225 1702.01 L358.313 1717.33 L387.225 1717.33 L387.225 1721.87 L352.665 1721.87 L352.665 1715.57 L381.577 1700.25 L352.665 1700.25 L352.665 1695.71 L387.225 1695.71 Z" fill="#000000" fill-rule="evenodd" fill-opacity="1" /><path clip-path="url(#clip760)" d="M386.091 1751.89 L381.531 1751.89 Q382.804 1749.23 383.429 1746.87 Q384.054 1744.51 384.054 1742.31 Q384.054 1738.49 382.572 1736.41 Q381.091 1734.35 378.36 1734.35 Q376.068 1734.35 374.887 1735.71 Q373.73 1737.1 373.012 1740.94 L372.434 1743.77 Q371.438 1749 368.915 1751.48 Q366.415 1753.98 362.202 1753.98 Q357.179 1753.98 354.586 1750.6 Q351.994 1747.24 351.994 1740.73 Q351.994 1738.28 352.549 1735.5 Q353.105 1732.75 354.193 1729.79 L359.008 1729.79 Q357.411 1732.63 356.6 1735.36 Q355.79 1738.1 355.79 1740.73 Q355.79 1744.74 357.364 1746.91 Q358.938 1749.09 361.855 1749.09 Q364.401 1749.09 365.836 1747.52 Q367.272 1745.97 367.989 1742.4 L368.545 1739.55 Q369.586 1734.32 371.809 1731.98 Q374.031 1729.65 377.989 1729.65 Q382.572 1729.65 385.211 1732.86 Q387.85 1736.1 387.85 1741.78 Q387.85 1744.21 387.41 1746.73 Q386.971 1749.25 386.091 1751.89 Z" fill="#000000" fill-rule="evenodd" fill-opacity="1" /><path clip-path="url(#clip760)" d="M613.044 1534.6 L608.484 1534.6 Q609.757 1531.94 610.382 1529.58 Q611.007 1527.22 611.007 1525.02 Q611.007 1521.2 609.526 1519.12 Q608.044 1517.06 605.313 1517.06 Q603.021 1517.06 601.84 1518.42 Q600.683 1519.81 599.965 1523.65 L599.387 1526.48 Q598.391 1531.71 595.868 1534.18 Q593.368 1536.68 589.155 1536.68 Q584.132 1536.68 581.54 1533.31 Q578.947 1529.95 578.947 1523.44 Q578.947 1520.99 579.503 1518.21 Q580.058 1515.46 581.146 1512.49 L585.961 1512.49 Q584.364 1515.34 583.553 1518.07 Q582.743 1520.81 582.743 1523.44 Q582.743 1527.45 584.317 1529.62 Q585.891 1531.8 588.808 1531.8 Q591.354 1531.8 592.79 1530.23 Q594.225 1528.68 594.942 1525.11 L595.498 1522.26 Q596.539 1517.03 598.762 1514.69 Q600.984 1512.36 604.942 1512.36 Q609.526 1512.36 612.164 1515.57 Q614.803 1518.81 614.803 1524.49 Q614.803 1526.92 614.363 1529.44 Q613.924 1531.96 613.044 1534.6 Z" fill="#000000" fill-rule="evenodd" fill-opacity="1" /><path clip-path="url(#clip760)" d="M610.336 1548.65 L597.35 1548.65 L597.35 1554.53 Q597.35 1557.8 599.039 1559.58 Q600.729 1561.36 603.854 1561.36 Q606.956 1561.36 608.646 1559.58 Q610.336 1557.8 610.336 1554.53 L610.336 1548.65 M614.178 1543.98 L614.178 1554.53 Q614.178 1560.34 611.539 1563.3 Q608.924 1566.29 603.854 1566.29 Q598.739 1566.29 596.123 1563.3 Q593.507 1560.34 593.507 1554.53 L593.507 1548.65 L579.618 1548.65 L579.618 1543.98 L614.178 1543.98 Z" fill="#000000" fill-rule="evenodd" fill-opacity="1" /><path clip-path="url(#clip760)" d="M614.178 1572.56 L614.178 1594.42 L610.243 1594.42 L610.243 1577.24 L600.012 1577.24 L600.012 1593.7 L596.077 1593.7 L596.077 1577.24 L583.553 1577.24 L583.553 1594.83 L579.618 1594.83 L579.618 1572.56 L614.178 1572.56 Z" fill="#000000" fill-rule="evenodd" fill-opacity="1" /><path clip-path="url(#clip760)" d="M611.516 1628.4 L606.586 1628.4 Q608.785 1626.04 609.873 1623.35 Q610.961 1620.69 610.961 1617.68 Q610.961 1611.75 607.326 1608.61 Q603.715 1605.46 596.864 1605.46 Q590.035 1605.46 586.401 1608.61 Q582.79 1611.75 582.79 1617.68 Q582.79 1620.69 583.878 1623.35 Q584.965 1626.04 587.165 1628.4 L582.28 1628.4 Q580.614 1625.94 579.78 1623.19 Q578.947 1620.46 578.947 1617.4 Q578.947 1609.55 583.739 1605.04 Q588.553 1600.53 596.864 1600.53 Q605.197 1600.53 609.988 1605.04 Q614.803 1609.55 614.803 1617.4 Q614.803 1620.5 613.97 1623.24 Q613.16 1625.99 611.516 1628.4 Z" fill="#000000" fill-rule="evenodd" fill-opacity="1" /><path clip-path="url(#clip760)" d="M614.178 1635.62 L614.178 1640.3 L579.618 1640.3 L579.618 1635.62 L614.178 1635.62 Z" fill="#000000" fill-rule="evenodd" fill-opacity="1" /><path clip-path="url(#clip760)" d="M614.178 1649.6 L614.178 1669.46 L610.243 1669.46 L610.243 1654.28 L600.058 1654.28 L600.058 1667.98 L596.123 1667.98 L596.123 1654.28 L579.618 1654.28 L579.618 1649.6 L614.178 1649.6 Z" fill="#000000" fill-rule="evenodd" fill-opacity="1" /><path clip-path="url(#clip760)" d="M614.178 1676.87 L614.178 1681.54 L579.618 1681.54 L579.618 1676.87 L614.178 1676.87 Z" fill="#000000" fill-rule="evenodd" fill-opacity="1" /><path clip-path="url(#clip760)" d="M611.516 1716.73 L606.586 1716.73 Q608.785 1714.37 609.873 1711.68 Q610.961 1709.02 610.961 1706.01 Q610.961 1700.09 607.326 1696.94 Q603.715 1693.79 596.864 1693.79 Q590.035 1693.79 586.401 1696.94 Q582.79 1700.09 582.79 1706.01 Q582.79 1709.02 583.878 1711.68 Q584.965 1714.37 587.165 1716.73 L582.28 1716.73 Q580.614 1714.28 579.78 1711.52 Q578.947 1708.79 578.947 1705.73 Q578.947 1697.89 583.739 1693.37 Q588.553 1688.86 596.864 1688.86 Q605.197 1688.86 609.988 1693.37 Q614.803 1697.89 614.803 1705.73 Q614.803 1708.84 613.97 1711.57 Q613.16 1714.32 611.516 1716.73 Z" fill="#000000" fill-rule="evenodd" fill-opacity="1" /><path clip-path="url(#clip760)" d="M571.748 1743.47 L568.438 1743.47 L568.438 1718.84 L571.748 1718.84 L571.748 1743.47 Z" fill="#000000" fill-rule="evenodd" fill-opacity="1" /><path clip-path="url(#clip760)" d="M611.516 1773.54 L606.586 1773.54 Q608.785 1771.17 609.873 1768.49 Q610.961 1765.83 610.961 1762.82 Q610.961 1756.89 607.326 1753.74 Q603.715 1750.6 596.864 1750.6 Q590.035 1750.6 586.401 1753.74 Q582.79 1756.89 582.79 1762.82 Q582.79 1765.83 583.878 1768.49 Q584.965 1771.17 587.165 1773.54 L582.28 1773.54 Q580.614 1771.08 579.78 1768.33 Q578.947 1765.6 578.947 1762.54 Q578.947 1754.69 583.739 1750.18 Q588.553 1745.66 596.864 1745.66 Q605.197 1745.66 609.988 1750.18 Q614.803 1754.69 614.803 1762.54 Q614.803 1765.64 613.97 1768.37 Q613.16 1771.13 611.516 1773.54 Z" fill="#000000" fill-rule="evenodd" fill-opacity="1" /><path clip-path="url(#clip760)" d="M609.572 1792.31 L592.373 1785.97 L592.373 1798.67 L609.572 1792.31 M614.178 1789.67 L614.178 1794.97 L579.618 1808.14 L579.618 1803.28 L588.484 1800.13 L588.484 1784.55 L579.618 1781.41 L579.618 1776.48 L614.178 1789.67 Z" fill="#000000" fill-rule="evenodd" fill-opacity="1" /><path clip-path="url(#clip760)" d="M613.044 1833.91 L608.484 1833.91 Q609.757 1831.24 610.382 1828.88 Q611.007 1826.52 611.007 1824.32 Q611.007 1820.5 609.526 1818.42 Q608.044 1816.36 605.313 1816.36 Q603.021 1816.36 601.84 1817.72 Q600.683 1819.11 599.965 1822.96 L599.387 1825.78 Q598.391 1831.01 595.868 1833.49 Q593.368 1835.99 589.155 1835.99 Q584.132 1835.99 581.54 1832.61 Q578.947 1829.25 578.947 1822.75 Q578.947 1820.29 579.503 1817.52 Q580.058 1814.76 581.146 1811.8 L585.961 1811.8 Q584.364 1814.65 583.553 1817.38 Q582.743 1820.11 582.743 1822.75 Q582.743 1826.75 584.317 1828.93 Q585.891 1831.1 588.808 1831.1 Q591.354 1831.1 592.79 1829.53 Q594.225 1827.98 594.942 1824.41 L595.498 1821.57 Q596.539 1816.34 598.762 1814 Q600.984 1811.66 604.942 1811.66 Q609.526 1811.66 612.164 1814.88 Q614.803 1818.12 614.803 1823.79 Q614.803 1826.22 614.363 1828.74 Q613.924 1831.27 613.044 1833.91 Z" fill="#000000" fill-rule="evenodd" fill-opacity="1" /><path clip-path="url(#clip760)" d="M614.178 1843.28 L614.178 1865.13 L610.243 1865.13 L610.243 1847.96 L600.012 1847.96 L600.012 1864.41 L596.077 1864.41 L596.077 1847.96 L583.553 1847.96 L583.553 1865.55 L579.618 1865.55 L579.618 1843.28 L614.178 1843.28 Z" fill="#000000" fill-rule="evenodd" fill-opacity="1" /><path clip-path="url(#clip760)" d="M841.131 1512.36 L841.131 1519.32 L817.613 1528.14 L841.131 1537.01 L841.131 1543.98 L806.571 1543.98 L806.571 1539.42 L836.918 1539.42 L813.215 1530.5 L813.215 1525.81 L836.918 1516.89 L806.571 1516.89 L806.571 1512.36 L841.131 1512.36 Z" fill="#000000" fill-rule="evenodd" fill-opacity="1" /><path clip-path="url(#clip760)" d="M841.131 1553.26 L841.131 1557.93 L806.571 1557.93 L806.571 1553.26 L841.131 1553.26 Z" fill="#000000" fill-rule="evenodd" fill-opacity="1" /><path clip-path="url(#clip760)" d="M841.131 1565.57 L841.131 1570.6 L828.284 1579.18 L841.131 1587.82 L841.131 1592.84 L824.534 1581.73 L806.571 1593.58 L806.571 1588.56 L821.27 1578.84 L806.571 1569.05 L806.571 1564 L825.02 1576.34 L841.131 1565.57 Z" fill="#000000" fill-rule="evenodd" fill-opacity="1" /><path clip-path="url(#clip760)" d="M841.131 1599.72 L841.131 1621.57 L837.196 1621.57 L837.196 1604.39 L826.965 1604.39 L826.965 1620.85 L823.03 1620.85 L823.03 1604.39 L810.507 1604.39 L810.507 1621.99 L806.571 1621.99 L806.571 1599.72 L841.131 1599.72 Z" fill="#000000" fill-rule="evenodd" fill-opacity="1" /><path clip-path="url(#clip760)" d="M837.289 1634.35 L810.414 1634.35 L810.414 1639.99 Q810.414 1647.15 813.655 1650.46 Q816.895 1653.79 823.886 1653.79 Q830.83 1653.79 834.048 1650.46 Q837.289 1647.15 837.289 1639.99 L837.289 1634.35 M841.131 1629.67 L841.131 1639.28 Q841.131 1649.32 836.942 1654.02 Q832.775 1658.72 823.886 1658.72 Q814.951 1658.72 810.761 1654 Q806.571 1649.28 806.571 1639.28 L806.571 1629.67 L841.131 1629.67 Z" fill="#000000" fill-rule="evenodd" fill-opacity="1" /><path clip-path="url(#clip760)" d="M798.701 1685.69 L795.391 1685.69 L795.391 1661.06 L798.701 1661.06 L798.701 1685.69 Z" fill="#000000" fill-rule="evenodd" fill-opacity="1" /><path clip-path="url(#clip760)" d="M841.131 1685.09 L841.131 1714.32 L837.196 1714.32 L837.196 1702.05 L806.571 1702.05 L806.571 1697.36 L837.196 1697.36 L837.196 1685.09 L841.131 1685.09 Z" fill="#000000" fill-rule="evenodd" fill-opacity="1" /><path clip-path="url(#clip760)" d="M841.131 1718.84 L841.131 1723.51 L826.965 1723.51 L826.965 1740.5 L841.131 1740.5 L841.131 1745.18 L806.571 1745.18 L806.571 1740.5 L823.03 1740.5 L823.03 1723.51 L806.571 1723.51 L806.571 1718.84 L841.131 1718.84 Z" fill="#000000" fill-rule="evenodd" fill-opacity="1" /><path clip-path="url(#clip760)" d="M841.131 1754.48 L841.131 1776.34 L837.196 1776.34 L837.196 1759.16 L826.965 1759.16 L826.965 1775.62 L823.03 1775.62 L823.03 1759.16 L810.507 1759.16 L810.507 1776.75 L806.571 1776.75 L806.571 1754.48 L841.131 1754.48 Z" fill="#000000" fill-rule="evenodd" fill-opacity="1" /><path clip-path="url(#clip760)" d="M837.96 1798.47 Q837.96 1793.37 834.164 1790.36 Q830.368 1787.38 823.817 1787.38 Q817.289 1787.38 813.493 1790.36 Q809.696 1793.37 809.696 1798.47 Q809.696 1803.56 813.493 1806.52 Q817.289 1809.51 823.817 1809.51 Q830.368 1809.51 834.164 1806.52 Q837.96 1803.56 837.96 1798.47 M841.756 1798.47 Q841.756 1805.73 836.872 1810.09 Q832.011 1814.44 823.817 1814.44 Q815.645 1814.44 810.761 1810.09 Q805.9 1805.73 805.9 1798.47 Q805.9 1791.17 810.761 1786.8 Q815.622 1782.45 823.817 1782.45 Q832.011 1782.45 836.872 1786.8 Q841.756 1791.17 841.756 1798.47 Z" fill="#000000" fill-rule="evenodd" fill-opacity="1" /><path clip-path="url(#clip760)" d="M822.775 1838.14 Q822.266 1839.65 820.599 1841.06 Q818.932 1842.49 816.016 1843.93 L806.571 1848.67 L806.571 1843.65 L815.437 1839.23 Q818.909 1837.52 820.043 1835.9 Q821.178 1834.3 821.178 1831.52 L821.178 1826.43 L806.571 1826.43 L806.571 1821.75 L841.131 1821.75 L841.131 1832.31 Q841.131 1838.23 838.655 1841.15 Q836.178 1844.07 831.178 1844.07 Q827.914 1844.07 825.761 1842.54 Q823.608 1841.03 822.775 1838.14 M837.289 1826.43 L825.02 1826.43 L825.02 1832.31 Q825.02 1835.69 826.571 1837.4 Q828.145 1839.14 831.178 1839.14 Q834.21 1839.14 835.738 1837.4 Q837.289 1835.69 837.289 1832.31 L837.289 1826.43 Z" fill="#000000" fill-rule="evenodd" fill-opacity="1" /><path clip-path="url(#clip760)" d="M841.131 1846.91 L841.131 1851.94 L826.918 1861.52 L841.131 1871.03 L841.131 1876.06 L823.03 1863.84 L806.571 1863.84 L806.571 1859.14 L823.03 1859.14 L841.131 1846.91 Z" fill="#000000" fill-rule="evenodd" fill-opacity="1" /><path clip-path="url(#clip760)" d="M1050.03 1517.03 L1037.37 1517.03 L1037.37 1524.53 Q1037.37 1528.31 1038.92 1530.11 Q1040.49 1531.94 1043.71 1531.94 Q1046.95 1531.94 1048.48 1530.11 Q1050.03 1528.31 1050.03 1524.53 L1050.03 1517.03 M1064.24 1517.03 L1053.83 1517.03 L1053.83 1523.95 Q1053.83 1527.38 1055.1 1529.05 Q1056.39 1530.74 1059.03 1530.74 Q1061.65 1530.74 1062.95 1529.05 Q1064.24 1527.38 1064.24 1523.95 L1064.24 1517.03 M1068.08 1512.36 L1068.08 1524.3 Q1068.08 1529.65 1065.86 1532.54 Q1063.64 1535.43 1059.54 1535.43 Q1056.37 1535.43 1054.5 1533.95 Q1052.62 1532.47 1052.16 1529.6 Q1051.42 1533.05 1049.06 1534.95 Q1046.72 1536.87 1043.2 1536.87 Q1038.57 1536.87 1036.05 1533.72 Q1033.52 1530.57 1033.52 1524.76 L1033.52 1512.36 L1068.08 1512.36 Z" fill="#000000" fill-rule="evenodd" fill-opacity="1" /><path clip-path="url(#clip760)" d="M1068.08 1544.35 L1068.08 1549.05 L1047.09 1549.05 Q1041.53 1549.05 1039.08 1551.06 Q1036.65 1553.07 1036.65 1557.59 Q1036.65 1562.08 1039.08 1564.09 Q1041.53 1566.11 1047.09 1566.11 L1068.08 1566.11 L1068.08 1570.8 L1046.51 1570.8 Q1039.75 1570.8 1036.3 1567.45 Q1032.85 1564.12 1032.85 1557.59 Q1032.85 1551.04 1036.3 1547.68 Q1039.75 1544.35 1046.51 1544.35 L1068.08 1544.35 Z" fill="#000000" fill-rule="evenodd" fill-opacity="1" /><path clip-path="url(#clip760)" d="M1049.73 1595.97 Q1049.22 1597.47 1047.55 1598.88 Q1045.89 1600.32 1042.97 1601.75 L1033.52 1606.5 L1033.52 1601.48 L1042.39 1597.05 Q1045.86 1595.34 1047 1593.72 Q1048.13 1592.12 1048.13 1589.35 L1048.13 1584.25 L1033.52 1584.25 L1033.52 1579.58 L1068.08 1579.58 L1068.08 1590.13 Q1068.08 1596.06 1065.61 1598.98 Q1063.13 1601.89 1058.13 1601.89 Q1054.87 1601.89 1052.71 1600.36 Q1050.56 1598.86 1049.73 1595.97 M1064.24 1584.25 L1051.97 1584.25 L1051.97 1590.13 Q1051.97 1593.51 1053.52 1595.23 Q1055.1 1596.96 1058.13 1596.96 Q1061.16 1596.96 1062.69 1595.23 Q1064.24 1593.51 1064.24 1590.13 L1064.24 1584.25 Z" fill="#000000" fill-rule="evenodd" fill-opacity="1" /><path clip-path="url(#clip760)" d="M1068.08 1612.52 L1068.08 1617.19 L1033.52 1617.19 L1033.52 1612.52 L1068.08 1612.52 Z" fill="#000000" fill-rule="evenodd" fill-opacity="1" /><path clip-path="url(#clip760)" d="M1068.08 1626.5 L1068.08 1648.35 L1064.15 1648.35 L1064.15 1631.17 L1053.92 1631.17 L1053.92 1647.63 L1049.98 1647.63 L1049.98 1631.17 L1037.46 1631.17 L1037.46 1648.77 L1033.52 1648.77 L1033.52 1626.5 L1068.08 1626.5 Z" fill="#000000" fill-rule="evenodd" fill-opacity="1" /><path clip-path="url(#clip760)" d="M1064.24 1661.13 L1037.37 1661.13 L1037.37 1666.78 Q1037.37 1673.93 1040.61 1677.24 Q1043.85 1680.57 1050.84 1680.57 Q1057.78 1680.57 1061 1677.24 Q1064.24 1673.93 1064.24 1666.78 L1064.24 1661.13 M1068.08 1656.45 L1068.08 1666.06 Q1068.08 1676.11 1063.89 1680.8 Q1059.73 1685.5 1050.84 1685.5 Q1041.9 1685.5 1037.71 1680.78 Q1033.52 1676.06 1033.52 1666.06 L1033.52 1656.45 L1068.08 1656.45 Z" fill="#000000" fill-rule="evenodd" fill-opacity="1" /><path clip-path="url(#clip760)" d="M1025.65 1712.47 L1022.34 1712.47 L1022.34 1687.84 L1025.65 1687.84 L1025.65 1712.47 Z" fill="#000000" fill-rule="evenodd" fill-opacity="1" /><path clip-path="url(#clip760)" d="M1065.42 1742.54 L1060.49 1742.54 Q1062.69 1740.18 1063.78 1737.49 Q1064.87 1734.83 1064.87 1731.82 Q1064.87 1725.9 1061.23 1722.75 Q1057.62 1719.6 1050.77 1719.6 Q1043.94 1719.6 1040.31 1722.75 Q1036.7 1725.9 1036.7 1731.82 Q1036.7 1734.83 1037.78 1737.49 Q1038.87 1740.18 1041.07 1742.54 L1036.19 1742.54 Q1034.52 1740.09 1033.69 1737.33 Q1032.85 1734.6 1032.85 1731.54 Q1032.85 1723.7 1037.64 1719.18 Q1042.46 1714.67 1050.77 1714.67 Q1059.1 1714.67 1063.89 1719.18 Q1068.71 1723.7 1068.71 1731.54 Q1068.71 1734.65 1067.88 1737.38 Q1067.07 1740.13 1065.42 1742.54 Z" fill="#000000" fill-rule="evenodd" fill-opacity="1" /><path clip-path="url(#clip760)" d="M1068.08 1749.76 L1068.08 1754.44 L1037.46 1754.44 L1037.46 1771.27 L1033.52 1771.27 L1033.52 1749.76 L1068.08 1749.76 Z" fill="#000000" fill-rule="evenodd" fill-opacity="1" /><path clip-path="url(#clip760)" d="M1063.48 1788.81 L1046.28 1782.47 L1046.28 1795.18 L1063.48 1788.81 M1068.08 1786.17 L1068.08 1791.47 L1033.52 1804.65 L1033.52 1799.79 L1042.39 1796.64 L1042.39 1781.06 L1033.52 1777.91 L1033.52 1772.98 L1068.08 1786.17 Z" fill="#000000" fill-rule="evenodd" fill-opacity="1" /><path clip-path="url(#clip760)" d="M1068.08 1809.69 L1068.08 1814.37 L1033.52 1814.37 L1033.52 1809.69 L1068.08 1809.69 Z" fill="#000000" fill-rule="evenodd" fill-opacity="1" /><path clip-path="url(#clip760)" d="M1068.08 1823.67 L1068.08 1830.64 L1044.57 1839.46 L1068.08 1848.33 L1068.08 1855.29 L1033.52 1855.29 L1033.52 1850.73 L1063.87 1850.73 L1040.17 1841.82 L1040.17 1837.12 L1063.87 1828.21 L1033.52 1828.21 L1033.52 1823.67 L1068.08 1823.67 Z" fill="#000000" fill-rule="evenodd" fill-opacity="1" /><path clip-path="url(#clip760)" d="M1295.04 1512.36 L1295.04 1517.08 L1265.82 1524.35 L1295.04 1531.59 L1295.04 1536.85 L1265.82 1544.12 L1295.04 1551.36 L1295.04 1556.11 L1260.48 1547.43 L1260.48 1541.55 L1290.48 1534.25 L1260.48 1526.89 L1260.48 1521.01 L1295.04 1512.36 Z" fill="#000000" fill-rule="evenodd" fill-opacity="1" /><path clip-path="url(#clip760)" d="M1290.43 1571.27 L1273.23 1564.93 L1273.23 1577.63 L1290.43 1571.27 M1295.04 1568.63 L1295.04 1573.93 L1260.48 1587.1 L1260.48 1582.24 L1269.34 1579.09 L1269.34 1563.51 L1260.48 1560.37 L1260.48 1555.43 L1295.04 1568.63 Z" fill="#000000" fill-rule="evenodd" fill-opacity="1" /><path clip-path="url(#clip760)" d="M1293.9 1612.86 L1289.34 1612.86 Q1290.62 1610.2 1291.24 1607.84 Q1291.87 1605.48 1291.87 1603.28 Q1291.87 1599.46 1290.38 1597.38 Q1288.9 1595.32 1286.17 1595.32 Q1283.88 1595.32 1282.7 1596.68 Q1281.54 1598.07 1280.82 1601.92 L1280.25 1604.74 Q1279.25 1609.97 1276.73 1612.45 Q1274.23 1614.95 1270.01 1614.95 Q1264.99 1614.95 1262.4 1611.57 Q1259.81 1608.21 1259.81 1601.71 Q1259.81 1599.25 1260.36 1596.48 Q1260.92 1593.72 1262.01 1590.76 L1266.82 1590.76 Q1265.22 1593.61 1264.41 1596.34 Q1263.6 1599.07 1263.6 1601.71 Q1263.6 1605.71 1265.18 1607.89 Q1266.75 1610.06 1269.67 1610.06 Q1272.21 1610.06 1273.65 1608.49 Q1275.08 1606.94 1275.8 1603.37 L1276.36 1600.53 Q1277.4 1595.3 1279.62 1592.96 Q1281.84 1590.62 1285.8 1590.62 Q1290.38 1590.62 1293.02 1593.84 Q1295.66 1597.08 1295.66 1602.75 Q1295.66 1605.18 1295.22 1607.7 Q1294.78 1610.23 1293.9 1612.86 Z" fill="#000000" fill-rule="evenodd" fill-opacity="1" /><path clip-path="url(#clip760)" d="M1295.04 1622.24 L1295.04 1626.92 L1280.87 1626.92 L1280.87 1643.91 L1295.04 1643.91 L1295.04 1648.58 L1260.48 1648.58 L1260.48 1643.91 L1276.94 1643.91 L1276.94 1626.92 L1260.48 1626.92 L1260.48 1622.24 L1295.04 1622.24 Z" fill="#000000" fill-rule="evenodd" fill-opacity="1" /><path clip-path="url(#clip760)" d="M1295.04 1653.14 L1295.04 1658.17 L1280.82 1667.75 L1295.04 1677.26 L1295.04 1682.29 L1276.94 1670.06 L1260.48 1670.06 L1260.48 1665.36 L1276.94 1665.36 L1295.04 1653.14 Z" fill="#000000" fill-rule="evenodd" fill-opacity="1" /><path clip-path="url(#clip760)" d="M1521.99 1512.36 L1521.99 1517.06 L1501 1517.06 Q1495.44 1517.06 1492.99 1519.07 Q1490.56 1521.08 1490.56 1525.6 Q1490.56 1530.09 1492.99 1532.1 Q1495.44 1534.12 1501 1534.12 L1521.99 1534.12 L1521.99 1538.81 L1500.42 1538.81 Q1493.66 1538.81 1490.21 1535.46 Q1486.76 1532.12 1486.76 1525.6 Q1486.76 1519.05 1490.21 1515.69 Q1493.66 1512.36 1500.42 1512.36 L1521.99 1512.36 Z" fill="#000000" fill-rule="evenodd" fill-opacity="1" /><path clip-path="url(#clip760)" d="M1521.99 1547.59 L1521.99 1553.88 L1493.08 1569.21 L1521.99 1569.21 L1521.99 1573.74 L1487.43 1573.74 L1487.43 1567.45 L1516.34 1552.12 L1487.43 1552.12 L1487.43 1547.59 L1521.99 1547.59 Z" fill="#000000" fill-rule="evenodd" fill-opacity="1" /><path clip-path="url(#clip760)" d="M1519.33 1608.93 L1514.4 1608.93 Q1516.6 1606.57 1517.69 1603.88 Q1518.77 1601.22 1518.77 1598.21 Q1518.77 1592.29 1515.14 1589.14 Q1511.53 1585.99 1504.68 1585.99 Q1497.85 1585.99 1494.21 1589.14 Q1490.6 1592.29 1490.6 1598.21 Q1490.6 1601.22 1491.69 1603.88 Q1492.78 1606.57 1494.98 1608.93 L1490.09 1608.93 Q1488.43 1606.48 1487.59 1603.72 Q1486.76 1600.99 1486.76 1597.93 Q1486.76 1590.09 1491.55 1585.57 Q1496.37 1581.06 1504.68 1581.06 Q1513.01 1581.06 1517.8 1585.57 Q1522.62 1590.09 1522.62 1597.93 Q1522.62 1601.04 1521.78 1603.77 Q1520.97 1606.52 1519.33 1608.93 Z" fill="#000000" fill-rule="evenodd" fill-opacity="1" /><path clip-path="url(#clip760)" d="M1521.99 1616.15 L1521.99 1620.83 L1491.37 1620.83 L1491.37 1637.66 L1487.43 1637.66 L1487.43 1616.15 L1521.99 1616.15 Z" fill="#000000" fill-rule="evenodd" fill-opacity="1" /><path clip-path="url(#clip760)" d="M1521.99 1642.56 L1521.99 1664.42 L1518.06 1664.42 L1518.06 1647.24 L1507.82 1647.24 L1507.82 1663.7 L1503.89 1663.7 L1503.89 1647.24 L1491.37 1647.24 L1491.37 1664.83 L1487.43 1664.83 L1487.43 1642.56 L1521.99 1642.56 Z" fill="#000000" fill-rule="evenodd" fill-opacity="1" /><path clip-path="url(#clip760)" d="M1517.38 1684.07 L1500.19 1677.73 L1500.19 1690.43 L1517.38 1684.07 M1521.99 1681.43 L1521.99 1686.73 L1487.43 1699.9 L1487.43 1695.04 L1496.3 1691.89 L1496.3 1676.31 L1487.43 1673.17 L1487.43 1668.23 L1521.99 1681.43 Z" fill="#000000" fill-rule="evenodd" fill-opacity="1" /><path clip-path="url(#clip760)" d="M1503.63 1721.34 Q1503.12 1722.84 1501.46 1724.25 Q1499.79 1725.69 1496.87 1727.12 L1487.43 1731.87 L1487.43 1726.85 L1496.3 1722.42 Q1499.77 1720.71 1500.9 1719.09 Q1502.04 1717.49 1502.04 1714.72 L1502.04 1709.62 L1487.43 1709.62 L1487.43 1704.95 L1521.99 1704.95 L1521.99 1715.5 Q1521.99 1721.43 1519.51 1724.35 Q1517.04 1727.26 1512.04 1727.26 Q1508.77 1727.26 1506.62 1725.73 Q1504.47 1724.23 1503.63 1721.34 M1518.15 1709.62 L1505.88 1709.62 L1505.88 1715.5 Q1505.88 1718.88 1507.43 1720.6 Q1509 1722.33 1512.04 1722.33 Q1515.07 1722.33 1516.6 1720.6 Q1518.15 1718.88 1518.15 1715.5 L1518.15 1709.62 Z" fill="#000000" fill-rule="evenodd" fill-opacity="1" /><path clip-path="url(#clip760)" d="M1479.56 1757.4 L1476.25 1757.4 L1476.25 1732.77 L1479.56 1732.77 L1479.56 1757.4 Z" fill="#000000" fill-rule="evenodd" fill-opacity="1" /><path clip-path="url(#clip760)" d="M1520.86 1782.31 L1516.3 1782.31 Q1517.57 1779.65 1518.19 1777.29 Q1518.82 1774.92 1518.82 1772.73 Q1518.82 1768.91 1517.34 1766.82 Q1515.86 1764.76 1513.12 1764.76 Q1510.83 1764.76 1509.65 1766.13 Q1508.5 1767.52 1507.78 1771.36 L1507.2 1774.18 Q1506.2 1779.41 1503.68 1781.89 Q1501.18 1784.39 1496.97 1784.39 Q1491.94 1784.39 1489.35 1781.01 Q1486.76 1777.66 1486.76 1771.15 Q1486.76 1768.7 1487.31 1765.92 Q1487.87 1763.16 1488.96 1760.2 L1493.77 1760.2 Q1492.18 1763.05 1491.37 1765.78 Q1490.56 1768.51 1490.56 1771.15 Q1490.56 1775.16 1492.13 1777.33 Q1493.7 1779.51 1496.62 1779.51 Q1499.17 1779.51 1500.6 1777.93 Q1502.04 1776.38 1502.75 1772.82 L1503.31 1769.97 Q1504.35 1764.74 1506.57 1762.4 Q1508.8 1760.06 1512.75 1760.06 Q1517.34 1760.06 1519.98 1763.28 Q1522.62 1766.52 1522.62 1772.19 Q1522.62 1774.62 1522.18 1777.15 Q1521.74 1779.67 1520.86 1782.31 Z" fill="#000000" fill-rule="evenodd" fill-opacity="1" /><path clip-path="url(#clip760)" d="M1521.99 1786.89 L1521.99 1816.13 L1518.06 1816.13 L1518.06 1803.86 L1487.43 1803.86 L1487.43 1799.16 L1518.06 1799.16 L1518.06 1786.89 L1521.99 1786.89 Z" fill="#000000" fill-rule="evenodd" fill-opacity="1" /><path clip-path="url(#clip760)" d="M1503.63 1837.03 Q1503.12 1838.53 1501.46 1839.95 Q1499.79 1841.38 1496.87 1842.82 L1487.43 1847.56 L1487.43 1842.54 L1496.3 1838.12 Q1499.77 1836.41 1500.9 1834.78 Q1502.04 1833.19 1502.04 1830.41 L1502.04 1825.32 L1487.43 1825.32 L1487.43 1820.64 L1521.99 1820.64 L1521.99 1831.2 Q1521.99 1837.12 1519.51 1840.04 Q1517.04 1842.96 1512.04 1842.96 Q1508.77 1842.96 1506.62 1841.43 Q1504.47 1839.92 1503.63 1837.03 M1518.15 1825.32 L1505.88 1825.32 L1505.88 1831.2 Q1505.88 1834.58 1507.43 1836.29 Q1509 1838.03 1512.04 1838.03 Q1515.07 1838.03 1516.6 1836.29 Q1518.15 1834.58 1518.15 1831.2 L1518.15 1825.32 Z" fill="#000000" fill-rule="evenodd" fill-opacity="1" /><path clip-path="url(#clip760)" d="M1517.38 1863.21 L1500.19 1856.87 L1500.19 1869.58 L1517.38 1863.21 M1521.99 1860.57 L1521.99 1865.87 L1487.43 1879.04 L1487.43 1874.18 L1496.3 1871.03 L1496.3 1855.46 L1487.43 1852.31 L1487.43 1847.38 L1521.99 1860.57 Z" fill="#000000" fill-rule="evenodd" fill-opacity="1" /><path clip-path="url(#clip760)" d="M1521.99 1875.62 L1521.99 1904.85 L1518.06 1904.85 L1518.06 1892.59 L1487.43 1892.59 L1487.43 1887.89 L1518.06 1887.89 L1518.06 1875.62 L1521.99 1875.62 Z" fill="#000000" fill-rule="evenodd" fill-opacity="1" /><path clip-path="url(#clip760)" d="M1521.99 1909.37 L1521.99 1931.22 L1518.06 1931.22 L1518.06 1914.04 L1507.82 1914.04 L1507.82 1930.5 L1503.89 1930.5 L1503.89 1914.04 L1491.37 1914.04 L1491.37 1931.64 L1487.43 1931.64 L1487.43 1909.37 L1521.99 1909.37 Z" fill="#000000" fill-rule="evenodd" fill-opacity="1" /><path clip-path="url(#clip760)" d="M1492.36 1962.89 L1501.64 1962.89 L1501.64 1955.25 L1505.49 1955.25 L1505.49 1967.52 L1490.65 1967.52 Q1488.73 1964.81 1487.73 1961.54 Q1486.76 1958.28 1486.76 1954.58 Q1486.76 1946.47 1491.48 1941.89 Q1496.23 1937.33 1504.68 1937.33 Q1513.15 1937.33 1517.87 1941.89 Q1522.62 1946.47 1522.62 1954.58 Q1522.62 1957.96 1521.78 1960.99 Q1520.95 1964.04 1519.33 1966.61 L1514.35 1966.61 Q1516.55 1964.02 1517.66 1961.1 Q1518.77 1958.19 1518.77 1954.97 Q1518.77 1948.63 1515.23 1945.43 Q1511.69 1942.26 1504.68 1942.26 Q1497.69 1942.26 1494.14 1945.43 Q1490.6 1948.63 1490.6 1954.97 Q1490.6 1957.45 1491.02 1959.39 Q1491.46 1961.34 1492.36 1962.89 Z" fill="#000000" fill-rule="evenodd" fill-opacity="1" /><path clip-path="url(#clip760)" d="M1521.99 1968.95 L1521.99 1973.97 L1507.78 1983.56 L1521.99 1993.07 L1521.99 1998.09 L1503.89 1985.87 L1487.43 1985.87 L1487.43 1981.17 L1503.89 1981.17 L1521.99 1968.95 Z" fill="#000000" fill-rule="evenodd" fill-opacity="1" /><path clip-path="url(#clip760)" d="M1748.94 1512.36 L1748.94 1519.32 L1725.43 1528.14 L1748.94 1537.01 L1748.94 1543.98 L1714.38 1543.98 L1714.38 1539.42 L1744.73 1539.42 L1721.03 1530.5 L1721.03 1525.81 L1744.73 1516.89 L1714.38 1516.89 L1714.38 1512.36 L1748.94 1512.36 Z" fill="#000000" fill-rule="evenodd" fill-opacity="1" /><path clip-path="url(#clip760)" d="M1745.77 1567.29 Q1745.77 1562.19 1741.98 1559.18 Q1738.18 1556.2 1731.63 1556.2 Q1725.1 1556.2 1721.3 1559.18 Q1717.51 1562.19 1717.51 1567.29 Q1717.51 1572.38 1721.3 1575.34 Q1725.1 1578.33 1731.63 1578.33 Q1738.18 1578.33 1741.98 1575.34 Q1745.77 1572.38 1745.77 1567.29 M1749.57 1567.29 Q1749.57 1574.55 1744.68 1578.91 Q1739.82 1583.26 1731.63 1583.26 Q1723.46 1583.26 1718.57 1578.91 Q1713.71 1574.55 1713.71 1567.29 Q1713.71 1559.99 1718.57 1555.62 Q1723.43 1551.27 1731.63 1551.27 Q1739.82 1551.27 1744.68 1555.62 Q1749.57 1559.99 1749.57 1567.29 Z" fill="#000000" fill-rule="evenodd" fill-opacity="1" /><path clip-path="url(#clip760)" d="M1730.59 1606.96 Q1730.08 1608.47 1728.41 1609.88 Q1726.74 1611.31 1723.83 1612.75 L1714.38 1617.49 L1714.38 1612.47 L1723.25 1608.05 Q1726.72 1606.34 1727.86 1604.72 Q1728.99 1603.12 1728.99 1600.34 L1728.99 1595.25 L1714.38 1595.25 L1714.38 1590.57 L1748.94 1590.57 L1748.94 1601.13 Q1748.94 1607.05 1746.47 1609.97 Q1743.99 1612.89 1738.99 1612.89 Q1735.73 1612.89 1733.57 1611.36 Q1731.42 1609.86 1730.59 1606.96 M1745.1 1595.25 L1732.83 1595.25 L1732.83 1601.13 Q1732.83 1604.51 1734.38 1606.22 Q1735.96 1607.96 1738.99 1607.96 Q1742.02 1607.96 1743.55 1606.22 Q1745.1 1604.51 1745.1 1601.13 L1745.1 1595.25 Z" fill="#000000" fill-rule="evenodd" fill-opacity="1" /><path clip-path="url(#clip760)" d="M1744.34 1633.14 L1727.14 1626.8 L1727.14 1639.51 L1744.34 1633.14 M1748.94 1630.5 L1748.94 1635.8 L1714.38 1648.98 L1714.38 1644.11 L1723.25 1640.97 L1723.25 1625.39 L1714.38 1622.24 L1714.38 1617.31 L1748.94 1630.5 Z" fill="#000000" fill-rule="evenodd" fill-opacity="1" /><path clip-path="url(#clip760)" d="M1748.94 1654.02 L1748.94 1658.7 L1718.32 1658.7 L1718.32 1675.53 L1714.38 1675.53 L1714.38 1654.02 L1748.94 1654.02 Z" fill="#000000" fill-rule="evenodd" fill-opacity="1" /><path clip-path="url(#clip760)" d="M1706.51 1699.95 L1703.2 1699.95 L1703.2 1675.32 L1706.51 1675.32 L1706.51 1699.95 Z" fill="#000000" fill-rule="evenodd" fill-opacity="1" /><path clip-path="url(#clip760)" d="M1745.1 1708.81 L1732.12 1708.81 L1732.12 1714.69 Q1732.12 1717.96 1733.8 1719.74 Q1735.49 1721.52 1738.62 1721.52 Q1741.72 1721.52 1743.41 1719.74 Q1745.1 1717.96 1745.1 1714.69 L1745.1 1708.81 M1748.94 1704.14 L1748.94 1714.69 Q1748.94 1720.5 1746.3 1723.47 Q1743.69 1726.45 1738.62 1726.45 Q1733.5 1726.45 1730.89 1723.47 Q1728.27 1720.5 1728.27 1714.69 L1728.27 1708.81 L1714.38 1708.81 L1714.38 1704.14 L1748.94 1704.14 Z" fill="#000000" fill-rule="evenodd" fill-opacity="1" /><path clip-path="url(#clip760)" d="M1730.59 1749.11 Q1730.08 1750.62 1728.41 1752.03 Q1726.74 1753.47 1723.83 1754.9 L1714.38 1759.65 L1714.38 1754.62 L1723.25 1750.2 Q1726.72 1748.49 1727.86 1746.87 Q1728.99 1745.27 1728.99 1742.49 L1728.99 1737.4 L1714.38 1737.4 L1714.38 1732.73 L1748.94 1732.73 L1748.94 1743.28 Q1748.94 1749.21 1746.47 1752.12 Q1743.99 1755.04 1738.99 1755.04 Q1735.73 1755.04 1733.57 1753.51 Q1731.42 1752.01 1730.59 1749.11 M1745.1 1737.4 L1732.83 1737.4 L1732.83 1743.28 Q1732.83 1746.66 1734.38 1748.37 Q1735.96 1750.11 1738.99 1750.11 Q1742.02 1750.11 1743.55 1748.37 Q1745.1 1746.66 1745.1 1743.28 L1745.1 1737.4 Z" fill="#000000" fill-rule="evenodd" fill-opacity="1" /><path clip-path="url(#clip760)" d="M1748.94 1765.66 L1748.94 1787.52 L1745.01 1787.52 L1745.01 1770.34 L1734.78 1770.34 L1734.78 1786.8 L1730.84 1786.8 L1730.84 1770.34 L1718.32 1770.34 L1718.32 1787.93 L1714.38 1787.93 L1714.38 1765.66 L1748.94 1765.66 Z" fill="#000000" fill-rule="evenodd" fill-opacity="1" /><path clip-path="url(#clip760)" d="M1748.94 1795.62 L1748.94 1802.59 L1725.43 1811.41 L1748.94 1820.27 L1748.94 1827.24 L1714.38 1827.24 L1714.38 1822.68 L1744.73 1822.68 L1721.03 1813.77 L1721.03 1809.07 L1744.73 1800.16 L1714.38 1800.16 L1714.38 1795.62 L1748.94 1795.62 Z" fill="#000000" fill-rule="evenodd" fill-opacity="1" /><path clip-path="url(#clip760)" d="M1748.94 1836.52 L1748.94 1841.2 L1714.38 1841.2 L1714.38 1836.52 L1748.94 1836.52 Z" fill="#000000" fill-rule="evenodd" fill-opacity="1" /><path clip-path="url(#clip760)" d="M1747.81 1871.22 L1743.25 1871.22 Q1744.52 1868.56 1745.15 1866.2 Q1745.77 1863.84 1745.77 1861.64 Q1745.77 1857.82 1744.29 1855.73 Q1742.81 1853.67 1740.08 1853.67 Q1737.79 1853.67 1736.61 1855.04 Q1735.45 1856.43 1734.73 1860.27 L1734.15 1863.09 Q1733.16 1868.33 1730.63 1870.8 Q1728.13 1873.3 1723.92 1873.3 Q1718.9 1873.3 1716.3 1869.92 Q1713.71 1866.57 1713.71 1860.06 Q1713.71 1857.61 1714.27 1854.83 Q1714.82 1852.08 1715.91 1849.11 L1720.73 1849.11 Q1719.13 1851.96 1718.32 1854.69 Q1717.51 1857.42 1717.51 1860.06 Q1717.51 1864.07 1719.08 1866.24 Q1720.66 1868.42 1723.57 1868.42 Q1726.12 1868.42 1727.55 1866.84 Q1728.99 1865.29 1729.71 1861.73 L1730.26 1858.88 Q1731.3 1853.65 1733.53 1851.31 Q1735.75 1848.97 1739.71 1848.97 Q1744.29 1848.97 1746.93 1852.19 Q1749.57 1855.43 1749.57 1861.1 Q1749.57 1863.53 1749.13 1866.06 Q1748.69 1868.58 1747.81 1871.22 Z" fill="#000000" fill-rule="evenodd" fill-opacity="1" /><path clip-path="url(#clip760)" d="M1748.94 1880.59 L1748.94 1902.45 L1745.01 1902.45 L1745.01 1885.27 L1734.78 1885.27 L1734.78 1901.73 L1730.84 1901.73 L1730.84 1885.27 L1718.32 1885.27 L1718.32 1902.86 L1714.38 1902.86 L1714.38 1880.59 L1748.94 1880.59 Z" fill="#000000" fill-rule="evenodd" fill-opacity="1" /><path clip-path="url(#clip760)" d="M1975.9 1512.36 L1975.9 1541.59 L1971.96 1541.59 L1971.96 1529.32 L1941.34 1529.32 L1941.34 1524.62 L1971.96 1524.62 L1971.96 1512.36 L1975.9 1512.36 Z" fill="#000000" fill-rule="evenodd" fill-opacity="1" /><path clip-path="url(#clip760)" d="M1975.9 1546.11 L1975.9 1550.78 L1961.73 1550.78 L1961.73 1567.77 L1975.9 1567.77 L1975.9 1572.45 L1941.34 1572.45 L1941.34 1567.77 L1957.79 1567.77 L1957.79 1550.78 L1941.34 1550.78 L1941.34 1546.11 L1975.9 1546.11 Z" fill="#000000" fill-rule="evenodd" fill-opacity="1" /><path clip-path="url(#clip760)" d="M1975.9 1581.75 L1975.9 1586.43 L1941.34 1586.43 L1941.34 1581.75 L1975.9 1581.75 Z" fill="#000000" fill-rule="evenodd" fill-opacity="1" /><path clip-path="url(#clip760)" d="M1975.9 1595.74 L1975.9 1602.03 L1946.98 1617.36 L1975.9 1617.36 L1975.9 1621.89 L1941.34 1621.89 L1941.34 1615.6 L1970.25 1600.27 L1941.34 1600.27 L1941.34 1595.74 L1975.9 1595.74 Z" fill="#000000" fill-rule="evenodd" fill-opacity="1" /><path clip-path="url(#clip760)" d="M1975.9 1631.2 L1975.9 1635.87 L1961.29 1635.87 L1975.9 1651.38 L1975.9 1657.4 L1959.79 1640.25 L1941.34 1658.63 L1941.34 1652.47 L1957.98 1635.87 L1941.34 1635.87 L1941.34 1631.2 L1975.9 1631.2 Z" fill="#000000" fill-rule="evenodd" fill-opacity="1" /><path clip-path="url(#clip760)" d="M1975.9 1662.29 L1975.9 1666.96 L1941.34 1666.96 L1941.34 1662.29 L1975.9 1662.29 Z" fill="#000000" fill-rule="evenodd" fill-opacity="1" /><path clip-path="url(#clip760)" d="M1975.9 1676.27 L1975.9 1682.56 L1946.98 1697.89 L1975.9 1697.89 L1975.9 1702.42 L1941.34 1702.42 L1941.34 1696.13 L1970.25 1680.8 L1941.34 1680.8 L1941.34 1676.27 L1975.9 1676.27 Z" fill="#000000" fill-rule="evenodd" fill-opacity="1" /><path clip-path="url(#clip760)" d="M1946.27 1735.29 L1955.55 1735.29 L1955.55 1727.66 L1959.39 1727.66 L1959.39 1739.92 L1944.55 1739.92 Q1942.63 1737.22 1941.64 1733.95 Q1940.67 1730.69 1940.67 1726.98 Q1940.67 1718.88 1945.39 1714.3 Q1950.13 1709.74 1958.58 1709.74 Q1967.05 1709.74 1971.78 1714.3 Q1976.52 1718.88 1976.52 1726.98 Q1976.52 1730.36 1975.69 1733.4 Q1974.86 1736.45 1973.23 1739.02 L1968.26 1739.02 Q1970.46 1736.43 1971.57 1733.51 Q1972.68 1730.6 1972.68 1727.38 Q1972.68 1721.04 1969.14 1717.84 Q1965.6 1714.67 1958.58 1714.67 Q1951.59 1714.67 1948.05 1717.84 Q1944.51 1721.04 1944.51 1727.38 Q1944.51 1729.85 1944.92 1731.8 Q1945.36 1733.74 1946.27 1735.29 Z" fill="#000000" fill-rule="evenodd" fill-opacity="1" /><path clip-path="url(#clip760)" d="M2202.85 1512.36 L2202.85 1517.03 L2188.68 1517.03 L2188.68 1534.02 L2202.85 1534.02 L2202.85 1538.7 L2168.29 1538.7 L2168.29 1534.02 L2184.75 1534.02 L2184.75 1517.03 L2168.29 1517.03 L2168.29 1512.36 L2202.85 1512.36 Z" fill="#000000" fill-rule="evenodd" fill-opacity="1" /><path clip-path="url(#clip760)" d="M2202.85 1548 L2202.85 1552.68 L2168.29 1552.68 L2168.29 1548 L2202.85 1548 Z" fill="#000000" fill-rule="evenodd" fill-opacity="1" /><path clip-path="url(#clip760)" d="M2201.72 1582.7 L2197.16 1582.7 Q2198.43 1580.04 2199.05 1577.68 Q2199.68 1575.32 2199.68 1573.12 Q2199.68 1569.3 2198.2 1567.22 Q2196.72 1565.16 2193.98 1565.16 Q2191.69 1565.16 2190.51 1566.52 Q2189.35 1567.91 2188.64 1571.75 L2188.06 1574.58 Q2187.06 1579.81 2184.54 1582.29 Q2182.04 1584.79 2177.83 1584.79 Q2172.8 1584.79 2170.21 1581.41 Q2167.62 1578.05 2167.62 1571.55 Q2167.62 1569.09 2168.17 1566.31 Q2168.73 1563.56 2169.82 1560.6 L2174.63 1560.6 Q2173.04 1563.44 2172.22 1566.18 Q2171.41 1568.91 2171.41 1571.55 Q2171.41 1575.55 2172.99 1577.73 Q2174.56 1579.9 2177.48 1579.9 Q2180.03 1579.9 2181.46 1578.33 Q2182.9 1576.78 2183.61 1573.21 L2184.17 1570.37 Q2185.21 1565.13 2187.43 1562.8 Q2189.66 1560.46 2193.61 1560.46 Q2198.2 1560.46 2200.84 1563.68 Q2203.47 1566.92 2203.47 1572.59 Q2203.47 1575.02 2203.03 1577.54 Q2202.6 1580.06 2201.72 1582.7 Z" fill="#000000" fill-rule="evenodd" fill-opacity="1" /><path clip-path="url(#clip760)" d="M2202.85 1587.29 L2202.85 1616.52 L2198.91 1616.52 L2198.91 1604.25 L2168.29 1604.25 L2168.29 1599.55 L2198.91 1599.55 L2198.91 1587.29 L2202.85 1587.29 Z" fill="#000000" fill-rule="evenodd" fill-opacity="1" /><path clip-path="url(#clip760)" d="M2199.68 1635.06 Q2199.68 1629.97 2195.88 1626.96 Q2192.09 1623.98 2185.54 1623.98 Q2179.01 1623.98 2175.21 1626.96 Q2171.41 1629.97 2171.41 1635.06 Q2171.41 1640.16 2175.21 1643.12 Q2179.01 1646.11 2185.54 1646.11 Q2192.09 1646.11 2195.88 1643.12 Q2199.68 1640.16 2199.68 1635.06 M2203.47 1635.06 Q2203.47 1642.33 2198.59 1646.68 Q2193.73 1651.04 2185.54 1651.04 Q2177.36 1651.04 2172.48 1646.68 Q2167.62 1642.33 2167.62 1635.06 Q2167.62 1627.77 2172.48 1623.4 Q2177.34 1619.05 2185.54 1619.05 Q2193.73 1619.05 2198.59 1623.4 Q2203.47 1627.77 2203.47 1635.06 Z" fill="#000000" fill-rule="evenodd" fill-opacity="1" /><path clip-path="url(#clip760)" d="M2184.49 1674.74 Q2183.98 1676.24 2182.32 1677.66 Q2180.65 1679.09 2177.73 1680.53 L2168.29 1685.27 L2168.29 1680.25 L2177.16 1675.83 Q2180.63 1674.11 2181.76 1672.49 Q2182.9 1670.9 2182.9 1668.12 L2182.9 1663.03 L2168.29 1663.03 L2168.29 1658.35 L2202.85 1658.35 L2202.85 1668.91 Q2202.85 1674.83 2200.37 1677.75 Q2197.9 1680.67 2192.9 1680.67 Q2189.63 1680.67 2187.48 1679.14 Q2185.33 1677.63 2184.49 1674.74 M2199.01 1663.03 L2186.74 1663.03 L2186.74 1668.91 Q2186.74 1672.29 2188.29 1674 Q2189.86 1675.73 2192.9 1675.73 Q2195.93 1675.73 2197.46 1674 Q2199.01 1672.29 2199.01 1668.91 L2199.01 1663.03 Z" fill="#000000" fill-rule="evenodd" fill-opacity="1" /><path clip-path="url(#clip760)" d="M2202.85 1683.51 L2202.85 1688.54 L2188.64 1698.12 L2202.85 1707.63 L2202.85 1712.66 L2184.75 1700.43 L2168.29 1700.43 L2168.29 1695.73 L2184.75 1695.73 L2202.85 1683.51 Z" fill="#000000" fill-rule="evenodd" fill-opacity="1" /><path clip-path="url(#clip760)" d="M2425.96 1517.03 L2412.97 1517.03 L2412.97 1522.91 Q2412.97 1526.18 2414.66 1527.96 Q2416.35 1529.74 2419.48 1529.74 Q2422.58 1529.74 2424.27 1527.96 Q2425.96 1526.18 2425.96 1522.91 L2425.96 1517.03 M2429.8 1512.36 L2429.8 1522.91 Q2429.8 1528.72 2427.16 1531.68 Q2424.55 1534.67 2419.48 1534.67 Q2414.36 1534.67 2411.75 1531.68 Q2409.13 1528.72 2409.13 1522.91 L2409.13 1517.03 L2395.24 1517.03 L2395.24 1512.36 L2429.8 1512.36 Z" fill="#000000" fill-rule="evenodd" fill-opacity="1" /><path clip-path="url(#clip760)" d="M2425.2 1549.46 L2408 1543.12 L2408 1555.83 L2425.2 1549.46 M2429.8 1546.82 L2429.8 1552.12 L2395.24 1565.3 L2395.24 1560.43 L2404.11 1557.29 L2404.11 1541.71 L2395.24 1538.56 L2395.24 1533.63 L2429.8 1546.82 Z" fill="#000000" fill-rule="evenodd" fill-opacity="1" /><path clip-path="url(#clip760)" d="M2428.67 1591.06 L2424.11 1591.06 Q2425.38 1588.4 2426.01 1586.04 Q2426.63 1583.68 2426.63 1581.48 Q2426.63 1577.66 2425.15 1575.57 Q2423.67 1573.51 2420.94 1573.51 Q2418.65 1573.51 2417.46 1574.88 Q2416.31 1576.27 2415.59 1580.11 L2415.01 1582.93 Q2414.02 1588.17 2411.49 1590.64 Q2408.99 1593.14 2404.78 1593.14 Q2399.76 1593.14 2397.16 1589.76 Q2394.57 1586.41 2394.57 1579.9 Q2394.57 1577.45 2395.13 1574.67 Q2395.68 1571.92 2396.77 1568.95 L2401.59 1568.95 Q2399.99 1571.8 2399.18 1574.53 Q2398.37 1577.26 2398.37 1579.9 Q2398.37 1583.91 2399.94 1586.08 Q2401.52 1588.26 2404.43 1588.26 Q2406.98 1588.26 2408.41 1586.68 Q2409.85 1585.13 2410.57 1581.57 L2411.12 1578.72 Q2412.16 1573.49 2414.39 1571.15 Q2416.61 1568.81 2420.57 1568.81 Q2425.15 1568.81 2427.79 1572.03 Q2430.43 1575.27 2430.43 1580.94 Q2430.43 1583.37 2429.99 1585.9 Q2429.55 1588.42 2428.67 1591.06 Z" fill="#000000" fill-rule="evenodd" fill-opacity="1" /><path clip-path="url(#clip760)" d="M2428.67 1621.15 L2424.11 1621.15 Q2425.38 1618.49 2426.01 1616.13 Q2426.63 1613.77 2426.63 1611.57 Q2426.63 1607.75 2425.15 1605.67 Q2423.67 1603.61 2420.94 1603.61 Q2418.65 1603.61 2417.46 1604.97 Q2416.31 1606.36 2415.59 1610.2 L2415.01 1613.03 Q2414.02 1618.26 2411.49 1620.74 Q2408.99 1623.24 2404.78 1623.24 Q2399.76 1623.24 2397.16 1619.86 Q2394.57 1616.5 2394.57 1609.99 Q2394.57 1607.54 2395.13 1604.76 Q2395.68 1602.01 2396.77 1599.05 L2401.59 1599.05 Q2399.99 1601.89 2399.18 1604.62 Q2398.37 1607.36 2398.37 1609.99 Q2398.37 1614 2399.94 1616.17 Q2401.52 1618.35 2404.43 1618.35 Q2406.98 1618.35 2408.41 1616.78 Q2409.85 1615.23 2410.57 1611.66 L2411.12 1608.81 Q2412.16 1603.58 2414.39 1601.24 Q2416.61 1598.91 2420.57 1598.91 Q2425.15 1598.91 2427.79 1602.12 Q2430.43 1605.36 2430.43 1611.04 Q2430.43 1613.47 2429.99 1615.99 Q2429.55 1618.51 2428.67 1621.15 Z" fill="#000000" fill-rule="evenodd" fill-opacity="1" /><path clip-path="url(#clip760)" d="M2429.8 1630.53 L2429.8 1635.2 L2395.24 1635.2 L2395.24 1630.53 L2429.8 1630.53 Z" fill="#000000" fill-rule="evenodd" fill-opacity="1" /><path clip-path="url(#clip760)" d="M2395.24 1653.42 L2429.8 1640.23 L2429.8 1645.11 L2400.71 1656.06 L2429.8 1667.03 L2429.8 1671.89 L2395.24 1658.72 L2395.24 1653.42 Z" fill="#000000" fill-rule="evenodd" fill-opacity="1" /><path clip-path="url(#clip760)" d="M2429.8 1676.94 L2429.8 1698.79 L2425.87 1698.79 L2425.87 1681.61 L2415.64 1681.61 L2415.64 1698.07 L2411.7 1698.07 L2411.7 1681.61 L2399.18 1681.61 L2399.18 1699.21 L2395.24 1699.21 L2395.24 1676.94 L2429.8 1676.94 Z" fill="#000000" fill-rule="evenodd" fill-opacity="1" /><polyline clip-path="url(#clip762)" style="stroke:#000000; stroke-linecap:round; stroke-linejoin:round; stroke-width:2; stroke-opacity:0.1; fill:none" points="
  141.712,1450 2640.76,1450 
  "/>
<polyline clip-path="url(#clip762)" style="stroke:#000000; stroke-linecap:round; stroke-linejoin:round; stroke-width:2; stroke-opacity:0.1; fill:none" points="
  141.712,1125.73 2640.76,1125.73 
  "/>
<polyline clip-path="url(#clip762)" style="stroke:#000000; stroke-linecap:round; stroke-linejoin:round; stroke-width:2; stroke-opacity:0.1; fill:none" points="
  141.712,801.474 2640.76,801.474 
  "/>
<polyline clip-path="url(#clip762)" style="stroke:#000000; stroke-linecap:round; stroke-linejoin:round; stroke-width:2; stroke-opacity:0.1; fill:none" points="
  141.712,477.214 2640.76,477.214 
  "/>
<polyline clip-path="url(#clip762)" style="stroke:#000000; stroke-linecap:round; stroke-linejoin:round; stroke-width:2; stroke-opacity:0.1; fill:none" points="
  141.712,152.953 2640.76,152.953 
  "/>
<polyline clip-path="url(#clip760)" style="stroke:#000000; stroke-linecap:round; stroke-linejoin:round; stroke-width:4; stroke-opacity:1; fill:none" points="
  141.712,1490.85 141.712,47.2441 
  "/>
<polyline clip-path="url(#clip760)" style="stroke:#000000; stroke-linecap:round; stroke-linejoin:round; stroke-width:4; stroke-opacity:1; fill:none" points="
  141.712,1450 160.61,1450 
  "/>
<polyline clip-path="url(#clip760)" style="stroke:#000000; stroke-linecap:round; stroke-linejoin:round; stroke-width:4; stroke-opacity:1; fill:none" points="
  141.712,1125.73 160.61,1125.73 
  "/>
<polyline clip-path="url(#clip760)" style="stroke:#000000; stroke-linecap:round; stroke-linejoin:round; stroke-width:4; stroke-opacity:1; fill:none" points="
  141.712,801.474 160.61,801.474 
  "/>
<polyline clip-path="url(#clip760)" style="stroke:#000000; stroke-linecap:round; stroke-linejoin:round; stroke-width:4; stroke-opacity:1; fill:none" points="
  141.712,477.214 160.61,477.214 
  "/>
<polyline clip-path="url(#clip760)" style="stroke:#000000; stroke-linecap:round; stroke-linejoin:round; stroke-width:4; stroke-opacity:1; fill:none" points="
  141.712,152.953 160.61,152.953 
  "/>
<path clip-path="url(#clip760)" d="M89.6734 1450 Q89.6734 1446.38 86.1086 1444.56 Q82.567 1442.75 75.4374 1442.75 Q68.331 1442.75 64.7662 1444.56 Q61.2245 1446.38 61.2245 1450 Q61.2245 1453.63 64.7662 1455.44 Q68.331 1457.26 75.4374 1457.26 Q82.567 1457.26 86.1086 1455.44 Q89.6734 1453.63 89.6734 1450 M93.3771 1450 Q93.3771 1455.81 88.7707 1458.86 Q84.1874 1461.94 75.4374 1461.94 Q66.7106 1461.94 62.1041 1458.86 Q57.5208 1455.81 57.5208 1450 Q57.5208 1444.19 62.1041 1441.11 Q66.7106 1438.05 75.4374 1438.05 Q84.1874 1438.05 88.7707 1441.11 Q93.3771 1444.19 93.3771 1450 Z" fill="#000000" fill-rule="evenodd" fill-opacity="1" /><path clip-path="url(#clip760)" d="M62.1273 1104.51 L62.1273 1120.83 L58.1921 1120.83 L58.1921 1098.88 L62.1273 1098.88 Q64.8819 1101.54 69.5115 1106.13 Q74.1643 1110.73 75.5068 1111.92 Q78.03 1114.16 79.7661 1115.04 Q81.5253 1115.94 83.2151 1115.94 Q85.9698 1115.94 87.7059 1114 Q89.442 1112.08 89.442 1108.98 Q89.442 1106.78 88.6781 1104.32 Q87.9142 1101.89 86.3633 1099.11 L91.0855 1099.11 Q92.2197 1101.94 92.7984 1104.39 Q93.3771 1106.85 93.3771 1108.88 Q93.3771 1114.25 90.692 1117.45 Q88.0068 1120.64 83.5161 1120.64 Q81.3864 1120.64 79.4652 1119.83 Q77.567 1119.04 74.9744 1116.94 Q74.3032 1116.36 71.0856 1113.26 Q67.8911 1110.16 62.1273 1104.51 Z" fill="#000000" fill-rule="evenodd" fill-opacity="1" /><path clip-path="url(#clip760)" d="M89.6734 1140.64 Q89.6734 1137.03 86.1086 1135.2 Q82.567 1133.4 75.4374 1133.4 Q68.331 1133.4 64.7662 1135.2 Q61.2245 1137.03 61.2245 1140.64 Q61.2245 1144.28 64.7662 1146.08 Q68.331 1147.91 75.4374 1147.91 Q82.567 1147.91 86.1086 1146.08 Q89.6734 1144.28 89.6734 1140.64 M93.3771 1140.64 Q93.3771 1146.45 88.7707 1149.51 Q84.1874 1152.59 75.4374 1152.59 Q66.7106 1152.59 62.1041 1149.51 Q57.5208 1146.45 57.5208 1140.64 Q57.5208 1134.83 62.1041 1131.75 Q66.7106 1128.7 75.4374 1128.7 Q84.1874 1128.7 88.7707 1131.75 Q93.3771 1134.83 93.3771 1140.64 Z" fill="#000000" fill-rule="evenodd" fill-opacity="1" /><path clip-path="url(#clip760)" d="M88.6781 789.645 L70.2291 777.84 L70.2291 789.645 L88.6781 789.645 M92.7521 788.419 L92.7521 794.298 L70.2291 794.298 L70.2291 799.229 L66.3402 799.229 L66.3402 794.298 L58.1921 794.298 L58.1921 789.645 L66.3402 789.645 L66.3402 774.044 L70.8541 774.044 L92.7521 788.419 Z" fill="#000000" fill-rule="evenodd" fill-opacity="1" /><path clip-path="url(#clip760)" d="M89.6734 816.96 Q89.6734 813.349 86.1086 811.52 Q82.567 809.715 75.4374 809.715 Q68.331 809.715 64.7662 811.52 Q61.2245 813.349 61.2245 816.96 Q61.2245 820.594 64.7662 822.4 Q68.331 824.229 75.4374 824.229 Q82.567 824.229 86.1086 822.4 Q89.6734 820.594 89.6734 816.96 M93.3771 816.96 Q93.3771 822.77 88.7707 825.826 Q84.1874 828.905 75.4374 828.905 Q66.7106 828.905 62.1041 825.826 Q57.5208 822.77 57.5208 816.96 Q57.5208 811.15 62.1041 808.071 Q66.7106 805.016 75.4374 805.016 Q84.1874 805.016 88.7707 808.071 Q93.3771 811.15 93.3771 816.96 Z" fill="#000000" fill-rule="evenodd" fill-opacity="1" /><path clip-path="url(#clip760)" d="M77.3355 462.619 Q77.3355 459.471 75.1828 457.619 Q73.03 455.79 69.28 455.79 Q65.5532 455.79 63.3773 457.619 Q61.2245 459.471 61.2245 462.619 Q61.2245 465.767 63.3773 467.596 Q65.5532 469.447 69.28 469.447 Q73.03 469.447 75.1828 467.596 Q77.3355 465.767 77.3355 462.619 M91.9882 471.901 L87.729 471.901 Q88.5623 470.142 89.0021 468.336 Q89.442 466.554 89.442 464.795 Q89.442 460.165 86.317 457.711 Q83.192 455.281 76.8726 454.934 Q78.8865 456.299 79.9513 458.36 Q81.0392 460.42 81.0392 462.897 Q81.0392 468.105 77.8679 471.114 Q74.7198 474.146 69.28 474.146 Q63.956 474.146 60.7384 470.998 Q57.5208 467.85 57.5208 462.619 Q57.5208 456.623 62.1041 453.452 Q66.7106 450.281 75.4374 450.281 Q83.6318 450.281 88.4929 454.17 Q93.3771 458.059 93.3771 464.609 Q93.3771 466.369 93.0299 468.151 Q92.6827 469.957 91.9882 471.901 Z" fill="#000000" fill-rule="evenodd" fill-opacity="1" /><path clip-path="url(#clip760)" d="M89.6734 492.202 Q89.6734 488.591 86.1086 486.762 Q82.567 484.957 75.4374 484.957 Q68.331 484.957 64.7662 486.762 Q61.2245 488.591 61.2245 492.202 Q61.2245 495.836 64.7662 497.642 Q68.331 499.47 75.4374 499.47 Q82.567 499.47 86.1086 497.642 Q89.6734 495.836 89.6734 492.202 M93.3771 492.202 Q93.3771 498.012 88.7707 501.068 Q84.1874 504.146 75.4374 504.146 Q66.7106 504.146 62.1041 501.068 Q57.5208 498.012 57.5208 492.202 Q57.5208 486.392 62.1041 483.313 Q66.7106 480.258 75.4374 480.258 Q84.1874 480.258 88.7707 483.313 Q93.3771 486.392 93.3771 492.202 Z" fill="#000000" fill-rule="evenodd" fill-opacity="1" /><path clip-path="url(#clip760)" d="M74.6041 137.826 Q74.6041 134.492 72.8217 132.571 Q71.0393 130.673 67.9143 130.673 Q64.7893 130.673 63.0069 132.571 Q61.2245 134.492 61.2245 137.826 Q61.2245 141.159 63.0069 143.08 Q64.8125 145.002 67.9143 145.002 Q71.0393 145.002 72.8217 143.08 Q74.6041 141.182 74.6041 137.826 M76.5948 133.15 Q77.3355 130.141 79.3957 128.451 Q81.4559 126.784 84.4188 126.784 Q88.5623 126.784 90.9697 129.724 Q93.3771 132.687 93.3771 137.826 Q93.3771 142.988 90.9697 145.928 Q88.5623 148.867 84.4188 148.867 Q81.4559 148.867 79.3957 147.178 Q77.3355 145.511 76.5948 142.525 Q75.8078 145.904 73.5161 147.779 Q71.2245 149.678 67.9143 149.678 Q62.8912 149.678 60.206 146.599 Q57.5208 143.543 57.5208 137.826 Q57.5208 132.108 60.206 129.03 Q62.8912 125.974 67.9143 125.974 Q71.2245 125.974 73.5161 127.872 Q75.8078 129.77 76.5948 133.15 M83.979 131.437 Q81.2939 131.437 79.7892 133.104 Q78.2846 134.793 78.2846 137.826 Q78.2846 140.835 79.7892 142.525 Q81.2939 144.238 83.979 144.238 Q86.6642 144.238 88.1688 142.525 Q89.6734 140.835 89.6734 137.826 Q89.6734 134.793 88.1688 133.104 Q86.6642 131.437 83.979 131.437 Z" fill="#000000" fill-rule="evenodd" fill-opacity="1" /><path clip-path="url(#clip760)" d="M89.6734 167.988 Q89.6734 164.377 86.1086 162.548 Q82.567 160.742 75.4374 160.742 Q68.331 160.742 64.7662 162.548 Q61.2245 164.377 61.2245 167.988 Q61.2245 171.622 64.7662 173.427 Q68.331 175.256 75.4374 175.256 Q82.567 175.256 86.1086 173.427 Q89.6734 171.622 89.6734 167.988 M93.3771 167.988 Q93.3771 173.798 88.7707 176.853 Q84.1874 179.932 75.4374 179.932 Q66.7106 179.932 62.1041 176.853 Q57.5208 173.798 57.5208 167.988 Q57.5208 162.178 62.1041 159.099 Q66.7106 156.043 75.4374 156.043 Q84.1874 156.043 88.7707 159.099 Q93.3771 162.178 93.3771 167.988 Z" fill="#000000" fill-rule="evenodd" fill-opacity="1" /><path clip-path="url(#clip762)" d="
M279.164 88.1009 L279.164 1450 L460.726 1450 L460.726 88.1009 L279.164 88.1009 L279.164 88.1009  Z
  " fill="#009af9" fill-rule="evenodd" fill-opacity="1"/>
<polyline clip-path="url(#clip762)" style="stroke:#000000; stroke-linecap:round; stroke-linejoin:round; stroke-width:4; stroke-opacity:1; fill:none" points="
  279.164,88.1009 279.164,1450 460.726,1450 460.726,88.1009 279.164,88.1009 
  "/>
<path clip-path="url(#clip762)" d="
M506.117 152.953 L506.117 1450 L687.68 1450 L687.68 152.953 L506.117 152.953 L506.117 152.953  Z
  " fill="#009af9" fill-rule="evenodd" fill-opacity="1"/>
<polyline clip-path="url(#clip762)" style="stroke:#000000; stroke-linecap:round; stroke-linejoin:round; stroke-width:4; stroke-opacity:1; fill:none" points="
  506.117,152.953 506.117,1450 687.68,1450 687.68,152.953 506.117,152.953 
  "/>
<path clip-path="url(#clip762)" d="
M733.07 282.657 L733.07 1450 L914.633 1450 L914.633 282.657 L733.07 282.657 L733.07 282.657  Z
  " fill="#009af9" fill-rule="evenodd" fill-opacity="1"/>
<polyline clip-path="url(#clip762)" style="stroke:#000000; stroke-linecap:round; stroke-linejoin:round; stroke-width:4; stroke-opacity:1; fill:none" points="
  733.07,282.657 733.07,1450 914.633,1450 914.633,282.657 733.07,282.657 
  "/>
<path clip-path="url(#clip762)" d="
M960.023 606.918 L960.023 1450 L1141.59 1450 L1141.59 606.918 L960.023 606.918 L960.023 606.918  Z
  " fill="#009af9" fill-rule="evenodd" fill-opacity="1"/>
<polyline clip-path="url(#clip762)" style="stroke:#000000; stroke-linecap:round; stroke-linejoin:round; stroke-width:4; stroke-opacity:1; fill:none" points="
  960.023,606.918 960.023,1450 1141.59,1450 1141.59,606.918 960.023,606.918 
  "/>
<path clip-path="url(#clip762)" d="
M1186.98 639.344 L1186.98 1450 L1368.54 1450 L1368.54 639.344 L1186.98 639.344 L1186.98 639.344  Z
  " fill="#009af9" fill-rule="evenodd" fill-opacity="1"/>
<polyline clip-path="url(#clip762)" style="stroke:#000000; stroke-linecap:round; stroke-linejoin:round; stroke-width:4; stroke-opacity:1; fill:none" points="
  1186.98,639.344 1186.98,1450 1368.54,1450 1368.54,639.344 1186.98,639.344 
  "/>
<path clip-path="url(#clip762)" d="
M1413.93 639.344 L1413.93 1450 L1595.49 1450 L1595.49 639.344 L1413.93 639.344 L1413.93 639.344  Z
  " fill="#009af9" fill-rule="evenodd" fill-opacity="1"/>
<polyline clip-path="url(#clip762)" style="stroke:#000000; stroke-linecap:round; stroke-linejoin:round; stroke-width:4; stroke-opacity:1; fill:none" points="
  1413.93,639.344 1413.93,1450 1595.49,1450 1595.49,639.344 1413.93,639.344 
  "/>
<path clip-path="url(#clip762)" d="
M1640.88 687.983 L1640.88 1450 L1822.44 1450 L1822.44 687.983 L1640.88 687.983 L1640.88 687.983  Z
  " fill="#009af9" fill-rule="evenodd" fill-opacity="1"/>
<polyline clip-path="url(#clip762)" style="stroke:#000000; stroke-linecap:round; stroke-linejoin:round; stroke-width:4; stroke-opacity:1; fill:none" points="
  1640.88,687.983 1640.88,1450 1822.44,1450 1822.44,687.983 1640.88,687.983 
  "/>
<path clip-path="url(#clip762)" d="
M1867.84 914.965 L1867.84 1450 L2049.4 1450 L2049.4 914.965 L1867.84 914.965 L1867.84 914.965  Z
  " fill="#009af9" fill-rule="evenodd" fill-opacity="1"/>
<polyline clip-path="url(#clip762)" style="stroke:#000000; stroke-linecap:round; stroke-linejoin:round; stroke-width:4; stroke-opacity:1; fill:none" points="
  1867.84,914.965 1867.84,1450 2049.4,1450 2049.4,914.965 1867.84,914.965 
  "/>
<path clip-path="url(#clip762)" d="
M2094.79 996.03 L2094.79 1450 L2276.35 1450 L2276.35 996.03 L2094.79 996.03 L2094.79 996.03  Z
  " fill="#009af9" fill-rule="evenodd" fill-opacity="1"/>
<polyline clip-path="url(#clip762)" style="stroke:#000000; stroke-linecap:round; stroke-linejoin:round; stroke-width:4; stroke-opacity:1; fill:none" points="
  2094.79,996.03 2094.79,1450 2276.35,1450 2276.35,996.03 2094.79,996.03 
  "/>
<path clip-path="url(#clip762)" d="
M2321.74 996.03 L2321.74 1450 L2503.3 1450 L2503.3 996.03 L2321.74 996.03 L2321.74 996.03  Z
  " fill="#009af9" fill-rule="evenodd" fill-opacity="1"/>
<polyline clip-path="url(#clip762)" style="stroke:#000000; stroke-linecap:round; stroke-linejoin:round; stroke-width:4; stroke-opacity:1; fill:none" points="
  2321.74,996.03 2321.74,1450 2503.3,1450 2503.3,996.03 2321.74,996.03 
  "/>
<circle clip-path="url(#clip762)" style="fill:#009af9; stroke:none; fill-opacity:0" cx="369.945" cy="88.1009" r="2"/>
<circle clip-path="url(#clip762)" style="fill:#009af9; stroke:none; fill-opacity:0" cx="596.898" cy="152.953" r="2"/>
<circle clip-path="url(#clip762)" style="fill:#009af9; stroke:none; fill-opacity:0" cx="823.851" cy="282.657" r="2"/>
<circle clip-path="url(#clip762)" style="fill:#009af9; stroke:none; fill-opacity:0" cx="1050.8" cy="606.918" r="2"/>
<circle clip-path="url(#clip762)" style="fill:#009af9; stroke:none; fill-opacity:0" cx="1277.76" cy="639.344" r="2"/>
<circle clip-path="url(#clip762)" style="fill:#009af9; stroke:none; fill-opacity:0" cx="1504.71" cy="639.344" r="2"/>
<circle clip-path="url(#clip762)" style="fill:#009af9; stroke:none; fill-opacity:0" cx="1731.66" cy="687.983" r="2"/>
<circle clip-path="url(#clip762)" style="fill:#009af9; stroke:none; fill-opacity:0" cx="1958.62" cy="914.965" r="2"/>
<circle clip-path="url(#clip762)" style="fill:#009af9; stroke:none; fill-opacity:0" cx="2185.57" cy="996.03" r="2"/>
<circle clip-path="url(#clip762)" style="fill:#009af9; stroke:none; fill-opacity:0" cx="2412.52" cy="996.03" r="2"/>
</svg>
