<?xml version="1.0" encoding="utf-8"?>
<svg xmlns="http://www.w3.org/2000/svg" xmlns:xlink="http://www.w3.org/1999/xlink" width="672" height="480" viewBox="0 0 2688 1920">
<defs>
  <clipPath id="clip230">
    <rect x="0" y="0" width="2688" height="1920"/>
  </clipPath>
</defs>
<path clip-path="url(#clip230)" d="
M0 1920 L2688 1920 L2688 0 L0 0  Z
  " fill="#ffffff" fill-rule="evenodd" fill-opacity="1"/>
<defs>
  <clipPath id="clip231">
    <rect x="537" y="0" width="1883" height="1883"/>
  </clipPath>
</defs>
<path clip-path="url(#clip230)" d="
M141.712 1639.68 L2640.76 1639.68 L2640.76 47.2441 L141.712 47.2441  Z
  " fill="#ffffff" fill-rule="evenodd" fill-opacity="1"/>
<defs>
  <clipPath id="clip232">
    <rect x="141" y="47" width="2500" height="1593"/>
  </clipPath>
</defs>
<polyline clip-path="url(#clip232)" style="stroke:#000000; stroke-linecap:round; stroke-linejoin:round; stroke-width:2; stroke-opacity:0.1; fill:none" points="
  513.284,1639.68 513.284,47.2441 
  "/>
<polyline clip-path="url(#clip232)" style="stroke:#000000; stroke-linecap:round; stroke-linejoin:round; stroke-width:2; stroke-opacity:0.1; fill:none" points="
  1098.58,1639.68 1098.58,47.2441 
  "/>
<polyline clip-path="url(#clip232)" style="stroke:#000000; stroke-linecap:round; stroke-linejoin:round; stroke-width:2; stroke-opacity:0.1; fill:none" points="
  1683.88,1639.68 1683.88,47.2441 
  "/>
<polyline clip-path="url(#clip232)" style="stroke:#000000; stroke-linecap:round; stroke-linejoin:round; stroke-width:2; stroke-opacity:0.1; fill:none" points="
  2269.18,1639.68 2269.18,47.2441 
  "/>
<polyline clip-path="url(#clip230)" style="stroke:#000000; stroke-linecap:round; stroke-linejoin:round; stroke-width:4; stroke-opacity:1; fill:none" points="
  141.712,1639.68 2640.76,1639.68 
  "/>
<polyline clip-path="url(#clip230)" style="stroke:#000000; stroke-linecap:round; stroke-linejoin:round; stroke-width:4; stroke-opacity:1; fill:none" points="
  513.284,1639.68 513.284,1620.78 
  "/>
<polyline clip-path="url(#clip230)" style="stroke:#000000; stroke-linecap:round; stroke-linejoin:round; stroke-width:4; stroke-opacity:1; fill:none" points="
  1098.58,1639.68 1098.58,1620.78 
  "/>
<polyline clip-path="url(#clip230)" style="stroke:#000000; stroke-linecap:round; stroke-linejoin:round; stroke-width:4; stroke-opacity:1; fill:none" points="
  1683.88,1639.68 1683.88,1620.78 
  "/>
<polyline clip-path="url(#clip230)" style="stroke:#000000; stroke-linecap:round; stroke-linejoin:round; stroke-width:4; stroke-opacity:1; fill:none" points="
  2269.18,1639.68 2269.18,1620.78 
  "/>
<path clip-path="url(#clip230)" d="M530.564 1661.18 L530.564 1668.15 L507.046 1676.97 L530.564 1685.83 L530.564 1692.8 L496.004 1692.8 L496.004 1688.24 L526.351 1688.24 L502.647 1679.33 L502.647 1674.63 L526.351 1665.72 L496.004 1665.72 L496.004 1661.18 L530.564 1661.18 Z" fill="#000000" fill-rule="evenodd" fill-opacity="1" /><path clip-path="url(#clip230)" d="M530.564 1702.08 L530.564 1723.94 L526.629 1723.94 L526.629 1706.76 L516.397 1706.76 L516.397 1723.22 L512.462 1723.22 L512.462 1706.76 L499.939 1706.76 L499.939 1724.35 L496.004 1724.35 L496.004 1702.08 L530.564 1702.08 Z" fill="#000000" fill-rule="evenodd" fill-opacity="1" /><path clip-path="url(#clip230)" d="M527.902 1757.92 L522.971 1757.92 Q525.17 1755.56 526.258 1752.87 Q527.346 1750.21 527.346 1747.2 Q527.346 1741.27 523.712 1738.13 Q520.101 1734.98 513.249 1734.98 Q506.421 1734.98 502.786 1738.13 Q499.175 1741.27 499.175 1747.2 Q499.175 1750.21 500.263 1752.87 Q501.351 1755.56 503.55 1757.92 L498.666 1757.92 Q496.999 1755.46 496.166 1752.71 Q495.333 1749.98 495.333 1746.92 Q495.333 1739.07 500.124 1734.56 Q504.939 1730.05 513.249 1730.05 Q521.583 1730.05 526.374 1734.56 Q531.189 1739.07 531.189 1746.92 Q531.189 1750.02 530.356 1752.75 Q529.545 1755.51 527.902 1757.92 Z" fill="#000000" fill-rule="evenodd" fill-opacity="1" /><path clip-path="url(#clip230)" d="M530.564 1765.14 L530.564 1769.81 L516.397 1769.81 L516.397 1786.81 L530.564 1786.81 L530.564 1791.48 L496.004 1791.48 L496.004 1786.81 L512.462 1786.81 L512.462 1769.81 L496.004 1769.81 L496.004 1765.14 L530.564 1765.14 Z" fill="#000000" fill-rule="evenodd" fill-opacity="1" /><path clip-path="url(#clip230)" d="M525.958 1812.34 L508.759 1806 L508.759 1818.7 L525.958 1812.34 M530.564 1809.7 L530.564 1815 L496.004 1828.17 L496.004 1823.31 L504.87 1820.16 L504.87 1804.58 L496.004 1801.44 L496.004 1796.5 L530.564 1809.7 Z" fill="#000000" fill-rule="evenodd" fill-opacity="1" /><path clip-path="url(#clip230)" d="M530.564 1833.22 L530.564 1839.51 L501.652 1854.84 L530.564 1854.84 L530.564 1859.37 L496.004 1859.37 L496.004 1853.08 L524.916 1837.75 L496.004 1837.75 L496.004 1833.22 L530.564 1833.22 Z" fill="#000000" fill-rule="evenodd" fill-opacity="1" /><path clip-path="url(#clip230)" d="M530.564 1868.68 L530.564 1873.36 L496.004 1873.36 L496.004 1868.68 L530.564 1868.68 Z" fill="#000000" fill-rule="evenodd" fill-opacity="1" /><path clip-path="url(#clip230)" d="M527.902 1908.54 L522.971 1908.54 Q525.17 1906.18 526.258 1903.49 Q527.346 1900.83 527.346 1897.82 Q527.346 1891.9 523.712 1888.75 Q520.101 1885.6 513.249 1885.6 Q506.421 1885.6 502.786 1888.75 Q499.175 1891.9 499.175 1897.82 Q499.175 1900.83 500.263 1903.49 Q501.351 1906.18 503.55 1908.54 L498.666 1908.54 Q496.999 1906.09 496.166 1903.33 Q495.333 1900.6 495.333 1897.55 Q495.333 1889.7 500.124 1885.18 Q504.939 1880.67 513.249 1880.67 Q521.583 1880.67 526.374 1885.18 Q531.189 1889.7 531.189 1897.55 Q531.189 1900.65 530.356 1903.38 Q529.545 1906.13 527.902 1908.54 Z" fill="#000000" fill-rule="evenodd" fill-opacity="1" /><path clip-path="url(#clip230)" d="M529.43 1936.48 L524.87 1936.48 Q526.143 1933.82 526.768 1931.46 Q527.393 1929.1 527.393 1926.9 Q527.393 1923.08 525.911 1920.99 Q524.43 1918.93 521.698 1918.93 Q519.407 1918.93 518.226 1920.3 Q517.069 1921.69 516.351 1925.53 L515.772 1928.36 Q514.777 1933.59 512.254 1936.06 Q509.754 1938.56 505.541 1938.56 Q500.518 1938.56 497.925 1935.18 Q495.333 1931.83 495.333 1925.32 Q495.333 1922.87 495.888 1920.09 Q496.444 1917.34 497.532 1914.37 L502.347 1914.37 Q500.749 1917.22 499.939 1919.95 Q499.129 1922.68 499.129 1925.32 Q499.129 1929.33 500.703 1931.5 Q502.277 1933.68 505.194 1933.68 Q507.74 1933.68 509.175 1932.11 Q510.61 1930.55 511.328 1926.99 L511.884 1924.14 Q512.925 1918.91 515.147 1916.57 Q517.37 1914.24 521.328 1914.24 Q525.911 1914.24 528.55 1917.45 Q531.189 1920.69 531.189 1926.37 Q531.189 1928.8 530.749 1931.32 Q530.309 1933.84 529.43 1936.48 Z" fill="#000000" fill-rule="evenodd" fill-opacity="1" /><path clip-path="url(#clip230)" d="M1111.26 1677.01 L1094.06 1670.67 L1094.06 1683.38 L1111.26 1677.01 M1115.86 1674.38 L1115.86 1679.68 L1081.3 1692.85 L1081.3 1687.99 L1090.17 1684.84 L1090.17 1669.26 L1081.3 1666.11 L1081.3 1661.18 L1115.86 1674.38 Z" fill="#000000" fill-rule="evenodd" fill-opacity="1" /><path clip-path="url(#clip230)" d="M1097.51 1714.28 Q1097 1715.79 1095.33 1717.2 Q1093.67 1718.63 1090.75 1720.07 L1081.3 1724.82 L1081.3 1719.79 L1090.17 1715.37 Q1093.64 1713.66 1094.78 1712.04 Q1095.91 1710.44 1095.91 1707.66 L1095.91 1702.57 L1081.3 1702.57 L1081.3 1697.89 L1115.86 1697.89 L1115.86 1708.45 Q1115.86 1714.38 1113.39 1717.29 Q1110.91 1720.21 1105.91 1720.21 Q1102.65 1720.21 1100.49 1718.68 Q1098.34 1717.18 1097.51 1714.28 M1112.02 1702.57 L1099.75 1702.57 L1099.75 1708.45 Q1099.75 1711.83 1101.3 1713.54 Q1102.88 1715.28 1105.91 1715.28 Q1108.94 1715.28 1110.47 1713.54 Q1112.02 1711.83 1112.02 1708.45 L1112.02 1702.57 Z" fill="#000000" fill-rule="evenodd" fill-opacity="1" /><path clip-path="url(#clip230)" d="M1086.23 1754.4 L1095.52 1754.4 L1095.52 1746.76 L1099.36 1746.76 L1099.36 1759.03 L1084.52 1759.03 Q1082.6 1756.32 1081.6 1753.06 Q1080.63 1749.79 1080.63 1746.09 Q1080.63 1737.99 1085.35 1733.4 Q1090.1 1728.84 1098.55 1728.84 Q1107.02 1728.84 1111.74 1733.4 Q1116.49 1737.99 1116.49 1746.09 Q1116.49 1749.47 1115.66 1752.5 Q1114.82 1755.56 1113.2 1758.13 L1108.23 1758.13 Q1110.42 1755.53 1111.54 1752.62 Q1112.65 1749.7 1112.65 1746.48 Q1112.65 1740.14 1109.1 1736.94 Q1105.56 1733.77 1098.55 1733.77 Q1091.56 1733.77 1088.02 1736.94 Q1084.48 1740.14 1084.48 1746.48 Q1084.48 1748.96 1084.89 1750.9 Q1085.33 1752.85 1086.23 1754.4 Z" fill="#000000" fill-rule="evenodd" fill-opacity="1" /><path clip-path="url(#clip230)" d="M1115.86 1767.04 L1115.86 1771.74 L1094.87 1771.74 Q1089.31 1771.74 1086.86 1773.75 Q1084.43 1775.76 1084.43 1780.28 Q1084.43 1784.77 1086.86 1786.78 Q1089.31 1788.8 1094.87 1788.8 L1115.86 1788.8 L1115.86 1793.5 L1094.29 1793.5 Q1087.53 1793.5 1084.08 1790.14 Q1080.63 1786.81 1080.63 1780.28 Q1080.63 1773.73 1084.08 1770.37 Q1087.53 1767.04 1094.29 1767.04 L1115.86 1767.04 Z" fill="#000000" fill-rule="evenodd" fill-opacity="1" /><path clip-path="url(#clip230)" d="M1115.86 1802.27 L1115.86 1809.24 L1092.35 1818.06 L1115.86 1826.92 L1115.86 1833.89 L1081.3 1833.89 L1081.3 1829.33 L1111.65 1829.33 L1087.95 1820.42 L1087.95 1815.72 L1111.65 1806.81 L1081.3 1806.81 L1081.3 1802.27 L1115.86 1802.27 Z" fill="#000000" fill-rule="evenodd" fill-opacity="1" /><path clip-path="url(#clip230)" d="M1115.86 1843.17 L1115.86 1865.02 L1111.93 1865.02 L1111.93 1847.85 L1101.7 1847.85 L1101.7 1864.31 L1097.76 1864.31 L1097.76 1847.85 L1085.24 1847.85 L1085.24 1865.44 L1081.3 1865.44 L1081.3 1843.17 L1115.86 1843.17 Z" fill="#000000" fill-rule="evenodd" fill-opacity="1" /><path clip-path="url(#clip230)" d="M1115.86 1873.12 L1115.86 1879.42 L1086.95 1894.74 L1115.86 1894.74 L1115.86 1899.28 L1081.3 1899.28 L1081.3 1892.99 L1110.22 1877.66 L1081.3 1877.66 L1081.3 1873.12 L1115.86 1873.12 Z" fill="#000000" fill-rule="evenodd" fill-opacity="1" /><path clip-path="url(#clip230)" d="M1115.86 1903.8 L1115.86 1933.03 L1111.93 1933.03 L1111.93 1920.76 L1081.3 1920.76 L1081.3 1916.06 L1111.93 1916.06 L1111.93 1903.8 L1115.86 1903.8 Z" fill="#000000" fill-rule="evenodd" fill-opacity="1" /><path clip-path="url(#clip230)" d="M1701.16 1661.18 L1701.16 1665.9 L1671.95 1673.17 L1701.16 1680.42 L1701.16 1685.67 L1671.95 1692.94 L1701.16 1700.19 L1701.16 1704.93 L1666.6 1696.25 L1666.6 1690.37 L1696.6 1683.08 L1666.6 1675.72 L1666.6 1669.84 L1701.16 1661.18 Z" fill="#000000" fill-rule="evenodd" fill-opacity="1" /><path clip-path="url(#clip230)" d="M1682.81 1727.52 Q1682.3 1729.03 1680.63 1730.44 Q1678.97 1731.88 1676.05 1733.31 L1666.6 1738.06 L1666.6 1733.03 L1675.47 1728.61 Q1678.94 1726.9 1680.08 1725.28 Q1681.21 1723.68 1681.21 1720.9 L1681.21 1715.81 L1666.6 1715.81 L1666.6 1711.13 L1701.16 1711.13 L1701.16 1721.69 Q1701.16 1727.62 1698.69 1730.53 Q1696.21 1733.45 1691.21 1733.45 Q1687.95 1733.45 1685.79 1731.92 Q1683.64 1730.42 1682.81 1727.52 M1697.32 1715.81 L1685.05 1715.81 L1685.05 1721.69 Q1685.05 1725.07 1686.6 1726.78 Q1688.18 1728.52 1691.21 1728.52 Q1694.24 1728.52 1695.77 1726.78 Q1697.32 1725.07 1697.32 1721.69 L1697.32 1715.81 Z" fill="#000000" fill-rule="evenodd" fill-opacity="1" /><path clip-path="url(#clip230)" d="M1701.16 1744.07 L1701.16 1748.75 L1666.6 1748.75 L1666.6 1744.07 L1701.16 1744.07 Z" fill="#000000" fill-rule="evenodd" fill-opacity="1" /><path clip-path="url(#clip230)" d="M1701.16 1753.26 L1701.16 1782.5 L1697.23 1782.5 L1697.23 1770.23 L1666.6 1770.23 L1666.6 1765.53 L1697.23 1765.53 L1697.23 1753.26 L1701.16 1753.26 Z" fill="#000000" fill-rule="evenodd" fill-opacity="1" /><path clip-path="url(#clip230)" d="M1701.16 1787.01 L1701.16 1791.69 L1666.6 1791.69 L1666.6 1787.01 L1701.16 1787.01 Z" fill="#000000" fill-rule="evenodd" fill-opacity="1" /><path clip-path="url(#clip230)" d="M1701.16 1801 L1701.16 1807.29 L1672.25 1822.62 L1701.16 1822.62 L1701.16 1827.15 L1666.6 1827.15 L1666.6 1820.86 L1695.52 1805.53 L1666.6 1805.53 L1666.6 1801 L1701.16 1801 Z" fill="#000000" fill-rule="evenodd" fill-opacity="1" /><path clip-path="url(#clip230)" d="M1671.53 1860.02 L1680.82 1860.02 L1680.82 1852.38 L1684.66 1852.38 L1684.66 1864.65 L1669.82 1864.65 Q1667.9 1861.94 1666.9 1858.68 Q1665.93 1855.42 1665.93 1851.71 Q1665.93 1843.61 1670.65 1839.03 Q1675.4 1834.47 1683.85 1834.47 Q1692.32 1834.47 1697.04 1839.03 Q1701.79 1843.61 1701.79 1851.71 Q1701.79 1855.09 1700.96 1858.12 Q1700.12 1861.18 1698.5 1863.75 L1693.53 1863.75 Q1695.72 1861.16 1696.84 1858.24 Q1697.95 1855.32 1697.95 1852.11 Q1697.95 1845.76 1694.4 1842.57 Q1690.86 1839.4 1683.85 1839.4 Q1676.86 1839.4 1673.32 1842.57 Q1669.78 1845.76 1669.78 1852.11 Q1669.78 1854.58 1670.19 1856.53 Q1670.63 1858.47 1671.53 1860.02 Z" fill="#000000" fill-rule="evenodd" fill-opacity="1" /><path clip-path="url(#clip230)" d="M2282.62 1665.86 L2255.75 1665.86 L2255.75 1671.51 Q2255.75 1678.66 2258.99 1681.97 Q2262.23 1685.3 2269.22 1685.3 Q2276.16 1685.3 2279.38 1681.97 Q2282.62 1678.66 2282.62 1671.51 L2282.62 1665.86 M2286.46 1661.18 L2286.46 1670.79 Q2286.46 1680.83 2282.27 1685.53 Q2278.11 1690.23 2269.22 1690.23 Q2260.28 1690.23 2256.09 1685.51 Q2251.9 1680.79 2251.9 1670.79 L2251.9 1661.18 L2286.46 1661.18 Z" fill="#000000" fill-rule="evenodd" fill-opacity="1" /><path clip-path="url(#clip230)" d="M2286.46 1697.69 L2286.46 1719.54 L2282.53 1719.54 L2282.53 1702.36 L2272.3 1702.36 L2272.3 1718.82 L2268.36 1718.82 L2268.36 1702.36 L2255.84 1702.36 L2255.84 1719.95 L2251.9 1719.95 L2251.9 1697.69 L2286.46 1697.69 Z" fill="#000000" fill-rule="evenodd" fill-opacity="1" /><path clip-path="url(#clip230)" d="M2282.62 1732.32 L2269.64 1732.32 L2269.64 1738.19 Q2269.64 1741.46 2271.33 1743.24 Q2273.02 1745.02 2276.14 1745.02 Q2279.24 1745.02 2280.93 1743.24 Q2282.62 1741.46 2282.62 1738.19 L2282.62 1732.32 M2286.46 1727.64 L2286.46 1738.19 Q2286.46 1744 2283.83 1746.97 Q2281.21 1749.95 2276.14 1749.95 Q2271.02 1749.95 2268.41 1746.97 Q2265.79 1744 2265.79 1738.19 L2265.79 1732.32 L2251.9 1732.32 L2251.9 1727.64 L2286.46 1727.64 Z" fill="#000000" fill-rule="evenodd" fill-opacity="1" /><path clip-path="url(#clip230)" d="M2286.46 1751.44 L2286.46 1780.67 L2282.53 1780.67 L2282.53 1768.4 L2251.9 1768.4 L2251.9 1763.7 L2282.53 1763.7 L2282.53 1751.44 L2286.46 1751.44 Z" fill="#000000" fill-rule="evenodd" fill-opacity="1" /><path clip-path="url(#clip230)" d="M2286.46 1785.19 L2286.46 1789.86 L2272.3 1789.86 L2272.3 1806.85 L2286.46 1806.85 L2286.46 1811.53 L2251.9 1811.53 L2251.9 1806.85 L2268.36 1806.85 L2268.36 1789.86 L2251.9 1789.86 L2251.9 1785.19 L2286.46 1785.19 Z" fill="#000000" fill-rule="evenodd" fill-opacity="1" /><polyline clip-path="url(#clip232)" style="stroke:#000000; stroke-linecap:round; stroke-linejoin:round; stroke-width:2; stroke-opacity:0.1; fill:none" points="
  141.712,1594.61 2640.76,1594.61 
  "/>
<polyline clip-path="url(#clip232)" style="stroke:#000000; stroke-linecap:round; stroke-linejoin:round; stroke-width:2; stroke-opacity:0.1; fill:none" points="
  141.712,1147.5 2640.76,1147.5 
  "/>
<polyline clip-path="url(#clip232)" style="stroke:#000000; stroke-linecap:round; stroke-linejoin:round; stroke-width:2; stroke-opacity:0.1; fill:none" points="
  141.712,700.385 2640.76,700.385 
  "/>
<polyline clip-path="url(#clip232)" style="stroke:#000000; stroke-linecap:round; stroke-linejoin:round; stroke-width:2; stroke-opacity:0.1; fill:none" points="
  141.712,253.273 2640.76,253.273 
  "/>
<polyline clip-path="url(#clip230)" style="stroke:#000000; stroke-linecap:round; stroke-linejoin:round; stroke-width:4; stroke-opacity:1; fill:none" points="
  141.712,1639.68 141.712,47.2441 
  "/>
<polyline clip-path="url(#clip230)" style="stroke:#000000; stroke-linecap:round; stroke-linejoin:round; stroke-width:4; stroke-opacity:1; fill:none" points="
  141.712,1594.61 160.61,1594.61 
  "/>
<polyline clip-path="url(#clip230)" style="stroke:#000000; stroke-linecap:round; stroke-linejoin:round; stroke-width:4; stroke-opacity:1; fill:none" points="
  141.712,1147.5 160.61,1147.5 
  "/>
<polyline clip-path="url(#clip230)" style="stroke:#000000; stroke-linecap:round; stroke-linejoin:round; stroke-width:4; stroke-opacity:1; fill:none" points="
  141.712,700.385 160.61,700.385 
  "/>
<polyline clip-path="url(#clip230)" style="stroke:#000000; stroke-linecap:round; stroke-linejoin:round; stroke-width:4; stroke-opacity:1; fill:none" points="
  141.712,253.273 160.61,253.273 
  "/>
<path clip-path="url(#clip230)" d="M89.6734 1594.61 Q89.6734 1591 86.1086 1589.17 Q82.567 1587.36 75.4374 1587.36 Q68.331 1587.36 64.7662 1589.17 Q61.2245 1591 61.2245 1594.61 Q61.2245 1598.24 64.7662 1600.05 Q68.331 1601.88 75.4374 1601.88 Q82.567 1601.88 86.1086 1600.05 Q89.6734 1598.24 89.6734 1594.61 M93.3771 1594.61 Q93.3771 1600.42 88.7707 1603.47 Q84.1874 1606.55 75.4374 1606.55 Q66.7106 1606.55 62.1041 1603.47 Q57.5208 1600.42 57.5208 1594.61 Q57.5208 1588.8 62.1041 1585.72 Q66.7106 1582.66 75.4374 1582.66 Q84.1874 1582.66 88.7707 1585.72 Q93.3771 1588.8 93.3771 1594.61 Z" fill="#000000" fill-rule="evenodd" fill-opacity="1" /><path clip-path="url(#clip230)" d="M92.7521 1122.2 L92.7521 1140.55 L88.817 1140.55 L88.817 1126.48 L80.3448 1126.48 Q80.692 1127.5 80.854 1128.52 Q81.0392 1129.53 81.0392 1130.55 Q81.0392 1136.34 77.8679 1139.72 Q74.6967 1143.1 69.28 1143.1 Q63.7014 1143.1 60.5995 1139.63 Q57.5208 1136.15 57.5208 1129.83 Q57.5208 1127.66 57.8912 1125.39 Q58.2616 1123.14 59.0023 1120.74 L63.7014 1120.74 Q62.5671 1122.82 62.0115 1125.04 Q61.456 1127.27 61.456 1129.74 Q61.456 1133.75 63.5625 1136.08 Q65.6689 1138.42 69.28 1138.42 Q72.8911 1138.42 74.9976 1136.08 Q77.1041 1133.75 77.1041 1129.74 Q77.1041 1127.87 76.6874 1125.99 Q76.2707 1124.14 75.3911 1122.2 L92.7521 1122.2 Z" fill="#000000" fill-rule="evenodd" fill-opacity="1" /><path clip-path="url(#clip230)" d="M89.6734 1162.31 Q89.6734 1158.7 86.1086 1156.87 Q82.567 1155.07 75.4374 1155.07 Q68.331 1155.07 64.7662 1156.87 Q61.2245 1158.7 61.2245 1162.31 Q61.2245 1165.95 64.7662 1167.75 Q68.331 1169.58 75.4374 1169.58 Q82.567 1169.58 86.1086 1167.75 Q89.6734 1165.95 89.6734 1162.31 M93.3771 1162.31 Q93.3771 1168.12 88.7707 1171.18 Q84.1874 1174.26 75.4374 1174.26 Q66.7106 1174.26 62.1041 1171.18 Q57.5208 1168.12 57.5208 1162.31 Q57.5208 1156.5 62.1041 1153.42 Q66.7106 1150.37 75.4374 1150.37 Q84.1874 1150.37 88.7707 1153.42 Q93.3771 1156.5 93.3771 1162.31 Z" fill="#000000" fill-rule="evenodd" fill-opacity="1" /><path clip-path="url(#clip230)" d="M62.1273 659.992 L62.1273 667.63 L88.4929 667.63 L86.8262 659.32 L91.0855 659.32 L92.7521 667.584 L92.7521 672.26 L62.1273 672.26 L62.1273 679.899 L58.1921 679.899 L58.1921 659.992 L62.1273 659.992 Z" fill="#000000" fill-rule="evenodd" fill-opacity="1" /><path clip-path="url(#clip230)" d="M89.6734 699.343 Q89.6734 695.732 86.1086 693.903 Q82.567 692.098 75.4374 692.098 Q68.331 692.098 64.7662 693.903 Q61.2245 695.732 61.2245 699.343 Q61.2245 702.978 64.7662 704.783 Q68.331 706.612 75.4374 706.612 Q82.567 706.612 86.1086 704.783 Q89.6734 702.978 89.6734 699.343 M93.3771 699.343 Q93.3771 705.153 88.7707 708.209 Q84.1874 711.288 75.4374 711.288 Q66.7106 711.288 62.1041 708.209 Q57.5208 705.153 57.5208 699.343 Q57.5208 693.533 62.1041 690.454 Q66.7106 687.399 75.4374 687.399 Q84.1874 687.399 88.7707 690.454 Q93.3771 693.533 93.3771 699.343 Z" fill="#000000" fill-rule="evenodd" fill-opacity="1" /><path clip-path="url(#clip230)" d="M89.6734 729.505 Q89.6734 725.894 86.1086 724.065 Q82.567 722.26 75.4374 722.26 Q68.331 722.26 64.7662 724.065 Q61.2245 725.894 61.2245 729.505 Q61.2245 733.139 64.7662 734.945 Q68.331 736.774 75.4374 736.774 Q82.567 736.774 86.1086 734.945 Q89.6734 733.139 89.6734 729.505 M93.3771 729.505 Q93.3771 735.315 88.7707 738.371 Q84.1874 741.45 75.4374 741.45 Q66.7106 741.45 62.1041 738.371 Q57.5208 735.315 57.5208 729.505 Q57.5208 723.695 62.1041 720.616 Q66.7106 717.561 75.4374 717.561 Q84.1874 717.561 88.7707 720.616 Q93.3771 723.695 93.3771 729.505 Z" fill="#000000" fill-rule="evenodd" fill-opacity="1" /><path clip-path="url(#clip230)" d="M62.1273 212.88 L62.1273 220.519 L88.4929 220.519 L86.8262 212.209 L91.0855 212.209 L92.7521 220.472 L92.7521 225.148 L62.1273 225.148 L62.1273 232.787 L58.1921 232.787 L58.1921 212.88 L62.1273 212.88 Z" fill="#000000" fill-rule="evenodd" fill-opacity="1" /><path clip-path="url(#clip230)" d="M92.7521 242.278 L92.7521 260.634 L88.817 260.634 L88.817 246.56 L80.3448 246.56 Q80.692 247.579 80.854 248.597 Q81.0392 249.616 81.0392 250.634 Q81.0392 256.421 77.8679 259.801 Q74.6967 263.181 69.28 263.181 Q63.7014 263.181 60.5995 259.708 Q57.5208 256.236 57.5208 249.917 Q57.5208 247.741 57.8912 245.472 Q58.2616 243.227 59.0023 240.82 L63.7014 240.82 Q62.5671 242.903 62.0115 245.125 Q61.456 247.347 61.456 249.824 Q61.456 253.829 63.5625 256.167 Q65.6689 258.505 69.28 258.505 Q72.8911 258.505 74.9976 256.167 Q77.1041 253.829 77.1041 249.824 Q77.1041 247.949 76.6874 246.074 Q76.2707 244.222 75.3911 242.278 L92.7521 242.278 Z" fill="#000000" fill-rule="evenodd" fill-opacity="1" /><path clip-path="url(#clip230)" d="M89.6734 282.393 Q89.6734 278.782 86.1086 276.954 Q82.567 275.148 75.4374 275.148 Q68.331 275.148 64.7662 276.954 Q61.2245 278.782 61.2245 282.393 Q61.2245 286.028 64.7662 287.833 Q68.331 289.662 75.4374 289.662 Q82.567 289.662 86.1086 287.833 Q89.6734 286.028 89.6734 282.393 M93.3771 282.393 Q93.3771 288.204 88.7707 291.259 Q84.1874 294.338 75.4374 294.338 Q66.7106 294.338 62.1041 291.259 Q57.5208 288.204 57.5208 282.393 Q57.5208 276.583 62.1041 273.505 Q66.7106 270.449 75.4374 270.449 Q84.1874 270.449 88.7707 273.505 Q93.3771 276.583 93.3771 282.393 Z" fill="#000000" fill-rule="evenodd" fill-opacity="1" /><path clip-path="url(#clip232)" d="
M279.164 92.313 L279.164 1594.61 L747.404 1594.61 L747.404 92.313 L279.164 92.313 L279.164 92.313  Z
  " fill="#009af9" fill-rule="evenodd" fill-opacity="1"/>
<polyline clip-path="url(#clip232)" style="stroke:#000000; stroke-linecap:round; stroke-linejoin:round; stroke-width:4; stroke-opacity:1; fill:none" points="
  279.164,92.313 279.164,1594.61 747.404,1594.61 747.404,92.313 279.164,92.313 
  "/>
<path clip-path="url(#clip232)" d="
M864.464 235.389 L864.464 1594.61 L1332.7 1594.61 L1332.7 235.389 L864.464 235.389 L864.464 235.389  Z
  " fill="#009af9" fill-rule="evenodd" fill-opacity="1"/>
<polyline clip-path="url(#clip232)" style="stroke:#000000; stroke-linecap:round; stroke-linejoin:round; stroke-width:4; stroke-opacity:1; fill:none" points="
  864.464,235.389 864.464,1594.61 1332.7,1594.61 1332.7,235.389 864.464,235.389 
  "/>
<path clip-path="url(#clip232)" d="
M1449.76 253.273 L1449.76 1594.61 L1918 1594.61 L1918 253.273 L1449.76 253.273 L1449.76 253.273  Z
  " fill="#009af9" fill-rule="evenodd" fill-opacity="1"/>
<polyline clip-path="url(#clip232)" style="stroke:#000000; stroke-linecap:round; stroke-linejoin:round; stroke-width:4; stroke-opacity:1; fill:none" points="
  1449.76,253.273 1449.76,1594.61 1918,1594.61 1918,253.273 1449.76,253.273 
  "/>
<path clip-path="url(#clip232)" d="
M2035.06 360.58 L2035.06 1594.61 L2503.3 1594.61 L2503.3 360.58 L2035.06 360.58 L2035.06 360.58  Z
  " fill="#009af9" fill-rule="evenodd" fill-opacity="1"/>
<polyline clip-path="url(#clip232)" style="stroke:#000000; stroke-linecap:round; stroke-linejoin:round; stroke-width:4; stroke-opacity:1; fill:none" points="
  2035.06,360.58 2035.06,1594.61 2503.3,1594.61 2503.3,360.58 2035.06,360.58 
  "/>
<circle clip-path="url(#clip232)" style="fill:#009af9; stroke:none; fill-opacity:0" cx="513.284" cy="92.313" r="2"/>
<circle clip-path="url(#clip232)" style="fill:#009af9; stroke:none; fill-opacity:0" cx="1098.58" cy="235.389" r="2"/>
<circle clip-path="url(#clip232)" style="fill:#009af9; stroke:none; fill-opacity:0" cx="1683.88" cy="253.273" r="2"/>
<circle clip-path="url(#clip232)" style="fill:#009af9; stroke:none; fill-opacity:0" cx="2269.18" cy="360.58" r="2"/>
</svg>
