<?xml version="1.0" encoding="utf-8"?>
<svg xmlns="http://www.w3.org/2000/svg" xmlns:xlink="http://www.w3.org/1999/xlink" width="672" height="480" viewBox="0 0 2688 1920">
<defs>
  <clipPath id="clip020">
    <rect x="0" y="0" width="2688" height="1920"/>
  </clipPath>
</defs>
<path clip-path="url(#clip020)" d="
M0 1920 L2688 1920 L2688 0 L0 0  Z
  " fill="#ffffff" fill-rule="evenodd" fill-opacity="1"/>
<defs>
  <clipPath id="clip021">
    <rect x="537" y="0" width="1883" height="1883"/>
  </clipPath>
</defs>
<path clip-path="url(#clip020)" d="
M141.712 1515.11 L2640.76 1515.11 L2640.76 47.2441 L141.712 47.2441  Z
  " fill="#ffffff" fill-rule="evenodd" fill-opacity="1"/>
<defs>
  <clipPath id="clip022">
    <rect x="141" y="47" width="2500" height="1469"/>
  </clipPath>
</defs>
<polyline clip-path="url(#clip022)" style="stroke:#000000; stroke-linecap:round; stroke-linejoin:round; stroke-width:2; stroke-opacity:0.1; fill:none" points="
  464.509,1515.11 464.509,47.2441 
  "/>
<polyline clip-path="url(#clip022)" style="stroke:#000000; stroke-linecap:round; stroke-linejoin:round; stroke-width:2; stroke-opacity:0.1; fill:none" points="
  927.872,1515.11 927.872,47.2441 
  "/>
<polyline clip-path="url(#clip022)" style="stroke:#000000; stroke-linecap:round; stroke-linejoin:round; stroke-width:2; stroke-opacity:0.1; fill:none" points="
  1391.23,1515.11 1391.23,47.2441 
  "/>
<polyline clip-path="url(#clip022)" style="stroke:#000000; stroke-linecap:round; stroke-linejoin:round; stroke-width:2; stroke-opacity:0.1; fill:none" points="
  1854.6,1515.11 1854.6,47.2441 
  "/>
<polyline clip-path="url(#clip022)" style="stroke:#000000; stroke-linecap:round; stroke-linejoin:round; stroke-width:2; stroke-opacity:0.1; fill:none" points="
  2317.96,1515.11 2317.96,47.2441 
  "/>
<polyline clip-path="url(#clip020)" style="stroke:#000000; stroke-linecap:round; stroke-linejoin:round; stroke-width:4; stroke-opacity:1; fill:none" points="
  141.712,1515.11 2640.76,1515.11 
  "/>
<polyline clip-path="url(#clip020)" style="stroke:#000000; stroke-linecap:round; stroke-linejoin:round; stroke-width:4; stroke-opacity:1; fill:none" points="
  464.509,1515.11 464.509,1496.21 
  "/>
<polyline clip-path="url(#clip020)" style="stroke:#000000; stroke-linecap:round; stroke-linejoin:round; stroke-width:4; stroke-opacity:1; fill:none" points="
  927.872,1515.11 927.872,1496.21 
  "/>
<polyline clip-path="url(#clip020)" style="stroke:#000000; stroke-linecap:round; stroke-linejoin:round; stroke-width:4; stroke-opacity:1; fill:none" points="
  1391.23,1515.11 1391.23,1496.21 
  "/>
<polyline clip-path="url(#clip020)" style="stroke:#000000; stroke-linecap:round; stroke-linejoin:round; stroke-width:4; stroke-opacity:1; fill:none" points="
  1854.6,1515.11 1854.6,1496.21 
  "/>
<polyline clip-path="url(#clip020)" style="stroke:#000000; stroke-linecap:round; stroke-linejoin:round; stroke-width:4; stroke-opacity:1; fill:none" points="
  2317.96,1515.11 2317.96,1496.21 
  "/>
<path clip-path="url(#clip020)" d="M452.16 1562.17 L461.442 1562.17 L461.442 1554.53 L465.284 1554.53 L465.284 1566.8 L450.447 1566.8 Q448.525 1564.09 447.53 1560.82 Q446.558 1557.56 446.558 1553.86 Q446.558 1545.76 451.28 1541.17 Q456.025 1536.61 464.474 1536.61 Q472.946 1536.61 477.669 1541.17 Q482.414 1545.76 482.414 1553.86 Q482.414 1557.24 481.581 1560.27 Q480.747 1563.32 479.127 1565.89 L474.15 1565.89 Q476.349 1563.3 477.46 1560.38 Q478.571 1557.47 478.571 1554.25 Q478.571 1547.91 475.03 1544.71 Q471.488 1541.54 464.474 1541.54 Q457.484 1541.54 453.942 1544.71 Q450.4 1547.91 450.4 1554.25 Q450.4 1556.73 450.817 1558.67 Q451.257 1560.62 452.16 1562.17 Z" fill="#000000" fill-rule="evenodd" fill-opacity="1" /><path clip-path="url(#clip020)" d="M478.618 1589.37 Q478.618 1584.27 474.821 1581.26 Q471.025 1578.28 464.474 1578.28 Q457.947 1578.28 454.15 1581.26 Q450.354 1584.27 450.354 1589.37 Q450.354 1594.46 454.15 1597.42 Q457.947 1600.41 464.474 1600.41 Q471.025 1600.41 474.821 1597.42 Q478.618 1594.46 478.618 1589.37 M482.414 1589.37 Q482.414 1596.63 477.53 1600.99 Q472.669 1605.34 464.474 1605.34 Q456.303 1605.34 451.419 1600.99 Q446.558 1596.63 446.558 1589.37 Q446.558 1582.07 451.419 1577.7 Q456.28 1573.35 464.474 1573.35 Q472.669 1573.35 477.53 1577.7 Q482.414 1582.07 482.414 1589.37 Z" fill="#000000" fill-rule="evenodd" fill-opacity="1" /><path clip-path="url(#clip020)" d="M478.618 1626.68 Q478.618 1621.59 474.821 1618.58 Q471.025 1615.59 464.474 1615.59 Q457.947 1615.59 454.15 1618.58 Q450.354 1621.59 450.354 1626.68 Q450.354 1631.77 454.15 1634.74 Q457.947 1637.72 464.474 1637.72 Q471.025 1637.72 474.821 1634.74 Q478.618 1631.77 478.618 1626.68 M482.414 1626.68 Q482.414 1633.95 477.53 1638.3 Q472.669 1642.65 464.474 1642.65 Q456.303 1642.65 451.419 1638.3 Q446.558 1633.95 446.558 1626.68 Q446.558 1619.39 451.419 1615.01 Q456.28 1610.66 464.474 1610.66 Q472.669 1610.66 477.53 1615.01 Q482.414 1619.39 482.414 1626.68 Z" fill="#000000" fill-rule="evenodd" fill-opacity="1" /><path clip-path="url(#clip020)" d="M477.946 1654.64 L451.072 1654.64 L451.072 1660.29 Q451.072 1667.44 454.312 1670.75 Q457.553 1674.09 464.544 1674.09 Q471.488 1674.09 474.706 1670.75 Q477.946 1667.44 477.946 1660.29 L477.946 1654.64 M481.789 1649.97 L481.789 1659.57 Q481.789 1669.62 477.599 1674.32 Q473.433 1679.02 464.544 1679.02 Q455.609 1679.02 451.419 1674.3 Q447.229 1669.57 447.229 1659.57 L447.229 1649.97 L481.789 1649.97 Z" fill="#000000" fill-rule="evenodd" fill-opacity="1" /><path clip-path="url(#clip020)" d="M439.359 1705.99 L436.048 1705.99 L436.048 1681.36 L439.359 1681.36 L439.359 1705.99 Z" fill="#000000" fill-rule="evenodd" fill-opacity="1" /><path clip-path="url(#clip020)" d="M477.183 1721.73 L459.984 1715.38 L459.984 1728.09 L477.183 1721.73 M481.789 1719.09 L481.789 1724.39 L447.229 1737.56 L447.229 1732.7 L456.095 1729.55 L456.095 1713.97 L447.229 1710.82 L447.229 1705.89 L481.789 1719.09 Z" fill="#000000" fill-rule="evenodd" fill-opacity="1" /><path clip-path="url(#clip020)" d="M480.655 1763.32 L476.095 1763.32 Q477.368 1760.66 477.993 1758.3 Q478.618 1755.94 478.618 1753.74 Q478.618 1749.92 477.136 1747.84 Q475.655 1745.78 472.923 1745.78 Q470.632 1745.78 469.451 1747.14 Q468.294 1748.53 467.576 1752.37 L466.997 1755.2 Q466.002 1760.43 463.479 1762.91 Q460.979 1765.41 456.766 1765.41 Q451.743 1765.41 449.15 1762.03 Q446.558 1758.67 446.558 1752.17 Q446.558 1749.71 447.113 1746.93 Q447.669 1744.18 448.757 1741.22 L453.572 1741.22 Q451.974 1744.06 451.164 1746.8 Q450.354 1749.53 450.354 1752.17 Q450.354 1756.17 451.928 1758.35 Q453.502 1760.52 456.419 1760.52 Q458.965 1760.52 460.4 1758.95 Q461.835 1757.4 462.553 1753.83 L463.109 1750.99 Q464.15 1745.75 466.372 1743.42 Q468.595 1741.08 472.553 1741.08 Q477.136 1741.08 479.775 1744.3 Q482.414 1747.54 482.414 1753.21 Q482.414 1755.64 481.974 1758.16 Q481.534 1760.68 480.655 1763.32 Z" fill="#000000" fill-rule="evenodd" fill-opacity="1" /><path clip-path="url(#clip020)" d="M477.946 1777.37 L464.96 1777.37 L464.96 1783.25 Q464.96 1786.52 466.65 1788.3 Q468.34 1790.08 471.465 1790.08 Q474.567 1790.08 476.257 1788.3 Q477.946 1786.52 477.946 1783.25 L477.946 1777.37 M481.789 1772.7 L481.789 1783.25 Q481.789 1789.06 479.15 1792.03 Q476.534 1795.01 471.465 1795.01 Q466.349 1795.01 463.734 1792.03 Q461.118 1789.06 461.118 1783.25 L461.118 1777.37 L447.229 1777.37 L447.229 1772.7 L481.789 1772.7 Z" fill="#000000" fill-rule="evenodd" fill-opacity="1" /><path clip-path="url(#clip020)" d="M481.789 1801.29 L481.789 1823.14 L477.854 1823.14 L477.854 1805.96 L467.622 1805.96 L467.622 1822.42 L463.687 1822.42 L463.687 1805.96 L451.164 1805.96 L451.164 1823.55 L447.229 1823.55 L447.229 1801.29 L481.789 1801.29 Z" fill="#000000" fill-rule="evenodd" fill-opacity="1" /><path clip-path="url(#clip020)" d="M479.127 1857.12 L474.196 1857.12 Q476.395 1854.76 477.483 1852.07 Q478.571 1849.41 478.571 1846.4 Q478.571 1840.48 474.937 1837.33 Q471.326 1834.18 464.474 1834.18 Q457.646 1834.18 454.011 1837.33 Q450.4 1840.48 450.4 1846.4 Q450.4 1849.41 451.488 1852.07 Q452.576 1854.76 454.775 1857.12 L449.891 1857.12 Q448.224 1854.67 447.391 1851.91 Q446.558 1849.18 446.558 1846.12 Q446.558 1838.28 451.349 1833.76 Q456.164 1829.25 464.474 1829.25 Q472.808 1829.25 477.599 1833.76 Q482.414 1838.28 482.414 1846.12 Q482.414 1849.23 481.581 1851.96 Q480.77 1854.71 479.127 1857.12 Z" fill="#000000" fill-rule="evenodd" fill-opacity="1" /><path clip-path="url(#clip020)" d="M481.789 1859.55 L481.789 1888.79 L477.854 1888.79 L477.854 1876.52 L447.229 1876.52 L447.229 1871.82 L477.854 1871.82 L477.854 1859.55 L481.789 1859.55 Z" fill="#000000" fill-rule="evenodd" fill-opacity="1" /><path clip-path="url(#clip020)" d="M480.655 1914.02 L476.095 1914.02 Q477.368 1911.36 477.993 1908.99 Q478.618 1906.63 478.618 1904.43 Q478.618 1900.61 477.136 1898.53 Q475.655 1896.47 472.923 1896.47 Q470.632 1896.47 469.451 1897.84 Q468.294 1899.23 467.576 1903.07 L466.997 1905.89 Q466.002 1911.12 463.479 1913.6 Q460.979 1916.1 456.766 1916.1 Q451.743 1916.1 449.15 1912.72 Q446.558 1909.36 446.558 1902.86 Q446.558 1900.41 447.113 1897.63 Q447.669 1894.87 448.757 1891.91 L453.572 1891.91 Q451.974 1894.76 451.164 1897.49 Q450.354 1900.22 450.354 1902.86 Q450.354 1906.86 451.928 1909.04 Q453.502 1911.22 456.419 1911.22 Q458.965 1911.22 460.4 1909.64 Q461.835 1908.09 462.553 1904.53 L463.109 1901.68 Q464.15 1896.45 466.372 1894.11 Q468.595 1891.77 472.553 1891.77 Q477.136 1891.77 479.775 1894.99 Q482.414 1898.23 482.414 1903.9 Q482.414 1906.33 481.974 1908.86 Q481.534 1911.38 480.655 1914.02 Z" fill="#000000" fill-rule="evenodd" fill-opacity="1" /><path clip-path="url(#clip020)" d="M915.522 1562.17 L924.804 1562.17 L924.804 1554.53 L928.647 1554.53 L928.647 1566.8 L913.809 1566.8 Q911.888 1564.09 910.892 1560.82 Q909.92 1557.56 909.92 1553.86 Q909.92 1545.76 914.642 1541.17 Q919.388 1536.61 927.837 1536.61 Q936.309 1536.61 941.031 1541.17 Q945.776 1545.76 945.776 1553.86 Q945.776 1557.24 944.943 1560.27 Q944.11 1563.32 942.489 1565.89 L937.513 1565.89 Q939.712 1563.3 940.823 1560.38 Q941.934 1557.47 941.934 1554.25 Q941.934 1547.91 938.392 1544.71 Q934.851 1541.54 927.837 1541.54 Q920.846 1541.54 917.304 1544.71 Q913.763 1547.91 913.763 1554.25 Q913.763 1556.73 914.179 1558.67 Q914.619 1560.62 915.522 1562.17 Z" fill="#000000" fill-rule="evenodd" fill-opacity="1" /><path clip-path="url(#clip020)" d="M941.98 1589.37 Q941.98 1584.27 938.184 1581.26 Q934.388 1578.28 927.837 1578.28 Q921.309 1578.28 917.513 1581.26 Q913.716 1584.27 913.716 1589.37 Q913.716 1594.46 917.513 1597.42 Q921.309 1600.41 927.837 1600.41 Q934.388 1600.41 938.184 1597.42 Q941.98 1594.46 941.98 1589.37 M945.776 1589.37 Q945.776 1596.63 940.892 1600.99 Q936.031 1605.34 927.837 1605.34 Q919.666 1605.34 914.781 1600.99 Q909.92 1596.63 909.92 1589.37 Q909.92 1582.07 914.781 1577.7 Q919.642 1573.35 927.837 1573.35 Q936.031 1573.35 940.892 1577.7 Q945.776 1582.07 945.776 1589.37 Z" fill="#000000" fill-rule="evenodd" fill-opacity="1" /><path clip-path="url(#clip020)" d="M941.98 1626.68 Q941.98 1621.59 938.184 1618.58 Q934.388 1615.59 927.837 1615.59 Q921.309 1615.59 917.513 1618.58 Q913.716 1621.59 913.716 1626.68 Q913.716 1631.77 917.513 1634.74 Q921.309 1637.72 927.837 1637.72 Q934.388 1637.72 938.184 1634.74 Q941.98 1631.77 941.98 1626.68 M945.776 1626.68 Q945.776 1633.95 940.892 1638.3 Q936.031 1642.65 927.837 1642.65 Q919.666 1642.65 914.781 1638.3 Q909.92 1633.95 909.92 1626.68 Q909.92 1619.39 914.781 1615.01 Q919.642 1610.66 927.837 1610.66 Q936.031 1610.66 940.892 1615.01 Q945.776 1619.39 945.776 1626.68 Z" fill="#000000" fill-rule="evenodd" fill-opacity="1" /><path clip-path="url(#clip020)" d="M941.309 1654.64 L914.434 1654.64 L914.434 1660.29 Q914.434 1667.44 917.675 1670.75 Q920.916 1674.09 927.906 1674.09 Q934.851 1674.09 938.068 1670.75 Q941.309 1667.44 941.309 1660.29 L941.309 1654.64 M945.152 1649.97 L945.152 1659.57 Q945.152 1669.62 940.962 1674.32 Q936.795 1679.02 927.906 1679.02 Q918.971 1679.02 914.781 1674.3 Q910.592 1669.57 910.592 1659.57 L910.592 1649.97 L945.152 1649.97 Z" fill="#000000" fill-rule="evenodd" fill-opacity="1" /><path clip-path="url(#clip020)" d="M902.721 1705.99 L899.411 1705.99 L899.411 1681.36 L902.721 1681.36 L902.721 1705.99 Z" fill="#000000" fill-rule="evenodd" fill-opacity="1" /><path clip-path="url(#clip020)" d="M942.489 1736.06 L937.559 1736.06 Q939.758 1733.69 940.846 1731.01 Q941.934 1728.35 941.934 1725.34 Q941.934 1719.41 938.3 1716.26 Q934.689 1713.12 927.837 1713.12 Q921.008 1713.12 917.374 1716.26 Q913.763 1719.41 913.763 1725.34 Q913.763 1728.35 914.851 1731.01 Q915.939 1733.69 918.138 1736.06 L913.254 1736.06 Q911.587 1733.6 910.754 1730.85 Q909.92 1728.12 909.92 1725.06 Q909.92 1717.21 914.712 1712.7 Q919.527 1708.19 927.837 1708.19 Q936.17 1708.19 940.962 1712.7 Q945.776 1717.21 945.776 1725.06 Q945.776 1728.16 944.943 1730.89 Q944.133 1733.65 942.489 1736.06 Z" fill="#000000" fill-rule="evenodd" fill-opacity="1" /><path clip-path="url(#clip020)" d="M945.152 1743.28 L945.152 1747.95 L930.985 1747.95 L930.985 1764.94 L945.152 1764.94 L945.152 1769.62 L910.592 1769.62 L910.592 1764.94 L927.05 1764.94 L927.05 1747.95 L910.592 1747.95 L910.592 1743.28 L945.152 1743.28 Z" fill="#000000" fill-rule="evenodd" fill-opacity="1" /><path clip-path="url(#clip020)" d="M940.545 1790.48 L923.346 1784.13 L923.346 1796.84 L940.545 1790.48 M945.152 1787.84 L945.152 1793.14 L910.592 1806.31 L910.592 1801.45 L919.457 1798.3 L919.457 1782.72 L910.592 1779.57 L910.592 1774.64 L945.152 1787.84 Z" fill="#000000" fill-rule="evenodd" fill-opacity="1" /><path clip-path="url(#clip020)" d="M944.017 1832.07 L939.457 1832.07 Q940.73 1829.41 941.355 1827.05 Q941.98 1824.69 941.98 1822.49 Q941.98 1818.67 940.499 1816.59 Q939.017 1814.53 936.286 1814.53 Q933.994 1814.53 932.814 1815.89 Q931.656 1817.28 930.939 1821.12 L930.36 1823.95 Q929.365 1829.18 926.841 1831.66 Q924.341 1834.16 920.128 1834.16 Q915.105 1834.16 912.513 1830.78 Q909.92 1827.42 909.92 1820.92 Q909.92 1818.46 910.476 1815.68 Q911.031 1812.93 912.119 1809.97 L916.934 1809.97 Q915.337 1812.81 914.527 1815.55 Q913.716 1818.28 913.716 1820.92 Q913.716 1824.92 915.291 1827.1 Q916.865 1829.27 919.781 1829.27 Q922.328 1829.27 923.763 1827.7 Q925.198 1826.15 925.915 1822.58 L926.471 1819.74 Q927.513 1814.5 929.735 1812.17 Q931.957 1809.83 935.915 1809.83 Q940.499 1809.83 943.138 1813.05 Q945.776 1816.29 945.776 1821.96 Q945.776 1824.39 945.337 1826.91 Q944.897 1829.43 944.017 1832.07 Z" fill="#000000" fill-rule="evenodd" fill-opacity="1" /><path clip-path="url(#clip020)" d="M945.152 1841.45 L945.152 1863.3 L941.216 1863.3 L941.216 1846.12 L930.985 1846.12 L930.985 1862.58 L927.05 1862.58 L927.05 1846.12 L914.527 1846.12 L914.527 1863.72 L910.592 1863.72 L910.592 1841.45 L945.152 1841.45 Z" fill="#000000" fill-rule="evenodd" fill-opacity="1" /><path clip-path="url(#clip020)" d="M1378.88 1562.17 L1388.17 1562.17 L1388.17 1554.53 L1392.01 1554.53 L1392.01 1566.8 L1377.17 1566.8 Q1375.25 1564.09 1374.25 1560.82 Q1373.28 1557.56 1373.28 1553.86 Q1373.28 1545.76 1378 1541.17 Q1382.75 1536.61 1391.2 1536.61 Q1399.67 1536.61 1404.39 1541.17 Q1409.14 1545.76 1409.14 1553.86 Q1409.14 1557.24 1408.31 1560.27 Q1407.47 1563.32 1405.85 1565.89 L1400.88 1565.89 Q1403.07 1563.3 1404.19 1560.38 Q1405.3 1557.47 1405.3 1554.25 Q1405.3 1547.91 1401.75 1544.71 Q1398.21 1541.54 1391.2 1541.54 Q1384.21 1541.54 1380.67 1544.71 Q1377.13 1547.91 1377.13 1554.25 Q1377.13 1556.73 1377.54 1558.67 Q1377.98 1560.62 1378.88 1562.17 Z" fill="#000000" fill-rule="evenodd" fill-opacity="1" /><path clip-path="url(#clip020)" d="M1405.34 1589.37 Q1405.34 1584.27 1401.55 1581.26 Q1397.75 1578.28 1391.2 1578.28 Q1384.67 1578.28 1380.88 1581.26 Q1377.08 1584.27 1377.08 1589.37 Q1377.08 1594.46 1380.88 1597.42 Q1384.67 1600.41 1391.2 1600.41 Q1397.75 1600.41 1401.55 1597.42 Q1405.34 1594.46 1405.34 1589.37 M1409.14 1589.37 Q1409.14 1596.63 1404.25 1600.99 Q1399.39 1605.34 1391.2 1605.34 Q1383.03 1605.34 1378.14 1600.99 Q1373.28 1596.63 1373.28 1589.37 Q1373.28 1582.07 1378.14 1577.7 Q1383 1573.35 1391.2 1573.35 Q1399.39 1573.35 1404.25 1577.7 Q1409.14 1582.07 1409.14 1589.37 Z" fill="#000000" fill-rule="evenodd" fill-opacity="1" /><path clip-path="url(#clip020)" d="M1405.34 1626.68 Q1405.34 1621.59 1401.55 1618.58 Q1397.75 1615.59 1391.2 1615.59 Q1384.67 1615.59 1380.88 1618.58 Q1377.08 1621.59 1377.08 1626.68 Q1377.08 1631.77 1380.88 1634.74 Q1384.67 1637.72 1391.2 1637.72 Q1397.75 1637.72 1401.55 1634.74 Q1405.34 1631.77 1405.34 1626.68 M1409.14 1626.68 Q1409.14 1633.95 1404.25 1638.3 Q1399.39 1642.65 1391.2 1642.65 Q1383.03 1642.65 1378.14 1638.3 Q1373.28 1633.95 1373.28 1626.68 Q1373.28 1619.39 1378.14 1615.01 Q1383 1610.66 1391.2 1610.66 Q1399.39 1610.66 1404.25 1615.01 Q1409.14 1619.39 1409.14 1626.68 Z" fill="#000000" fill-rule="evenodd" fill-opacity="1" /><path clip-path="url(#clip020)" d="M1404.67 1654.64 L1377.8 1654.64 L1377.8 1660.29 Q1377.8 1667.44 1381.04 1670.75 Q1384.28 1674.09 1391.27 1674.09 Q1398.21 1674.09 1401.43 1670.75 Q1404.67 1667.44 1404.67 1660.29 L1404.67 1654.64 M1408.51 1649.97 L1408.51 1659.57 Q1408.51 1669.62 1404.32 1674.32 Q1400.16 1679.02 1391.27 1679.02 Q1382.33 1679.02 1378.14 1674.3 Q1373.95 1669.57 1373.95 1659.57 L1373.95 1649.97 L1408.51 1649.97 Z" fill="#000000" fill-rule="evenodd" fill-opacity="1" /><path clip-path="url(#clip020)" d="M1366.08 1705.99 L1362.77 1705.99 L1362.77 1681.36 L1366.08 1681.36 L1366.08 1705.99 Z" fill="#000000" fill-rule="evenodd" fill-opacity="1" /><path clip-path="url(#clip020)" d="M1408.51 1710.18 L1408.51 1730.04 L1404.58 1730.04 L1404.58 1714.85 L1394.39 1714.85 L1394.39 1728.56 L1390.46 1728.56 L1390.46 1714.85 L1373.95 1714.85 L1373.95 1710.18 L1408.51 1710.18 Z" fill="#000000" fill-rule="evenodd" fill-opacity="1" /><path clip-path="url(#clip020)" d="M1408.51 1737.44 L1408.51 1742.12 L1377.89 1742.12 L1377.89 1758.95 L1373.95 1758.95 L1373.95 1737.44 L1408.51 1737.44 Z" fill="#000000" fill-rule="evenodd" fill-opacity="1" /><path clip-path="url(#clip020)" d="M1405.34 1776.19 Q1405.34 1771.1 1401.55 1768.09 Q1397.75 1765.11 1391.2 1765.11 Q1384.67 1765.11 1380.88 1768.09 Q1377.08 1771.1 1377.08 1776.19 Q1377.08 1781.29 1380.88 1784.25 Q1384.67 1787.24 1391.2 1787.24 Q1397.75 1787.24 1401.55 1784.25 Q1405.34 1781.29 1405.34 1776.19 M1409.14 1776.19 Q1409.14 1783.46 1404.25 1787.81 Q1399.39 1792.17 1391.2 1792.17 Q1383.03 1792.17 1378.14 1787.81 Q1373.28 1783.46 1373.28 1776.19 Q1373.28 1768.9 1378.14 1764.53 Q1383 1760.18 1391.2 1760.18 Q1399.39 1760.18 1404.25 1764.53 Q1409.14 1768.9 1409.14 1776.19 Z" fill="#000000" fill-rule="evenodd" fill-opacity="1" /><path clip-path="url(#clip020)" d="M1408.51 1796.4 L1408.51 1801.12 L1379.3 1808.39 L1408.51 1815.64 L1408.51 1820.89 L1379.3 1828.16 L1408.51 1835.41 L1408.51 1840.15 L1373.95 1831.47 L1373.95 1825.59 L1403.95 1818.3 L1373.95 1810.94 L1373.95 1805.06 L1408.51 1796.4 Z" fill="#000000" fill-rule="evenodd" fill-opacity="1" /><path clip-path="url(#clip020)" d="M1842.25 1562.17 L1851.53 1562.17 L1851.53 1554.53 L1855.37 1554.53 L1855.37 1566.8 L1840.53 1566.8 Q1838.61 1564.09 1837.62 1560.82 Q1836.65 1557.56 1836.65 1553.86 Q1836.65 1545.76 1841.37 1541.17 Q1846.11 1536.61 1854.56 1536.61 Q1863.03 1536.61 1867.76 1541.17 Q1872.5 1545.76 1872.5 1553.86 Q1872.5 1557.24 1871.67 1560.27 Q1870.83 1563.32 1869.21 1565.89 L1864.24 1565.89 Q1866.44 1563.3 1867.55 1560.38 Q1868.66 1557.47 1868.66 1554.25 Q1868.66 1547.91 1865.12 1544.71 Q1861.58 1541.54 1854.56 1541.54 Q1847.57 1541.54 1844.03 1544.71 Q1840.49 1547.91 1840.49 1554.25 Q1840.49 1556.73 1840.9 1558.67 Q1841.34 1560.62 1842.25 1562.17 Z" fill="#000000" fill-rule="evenodd" fill-opacity="1" /><path clip-path="url(#clip020)" d="M1868.71 1589.37 Q1868.71 1584.27 1864.91 1581.26 Q1861.11 1578.28 1854.56 1578.28 Q1848.03 1578.28 1844.24 1581.26 Q1840.44 1584.27 1840.44 1589.37 Q1840.44 1594.46 1844.24 1597.42 Q1848.03 1600.41 1854.56 1600.41 Q1861.11 1600.41 1864.91 1597.42 Q1868.71 1594.46 1868.71 1589.37 M1872.5 1589.37 Q1872.5 1596.63 1867.62 1600.99 Q1862.76 1605.34 1854.56 1605.34 Q1846.39 1605.34 1841.51 1600.99 Q1836.65 1596.63 1836.65 1589.37 Q1836.65 1582.07 1841.51 1577.7 Q1846.37 1573.35 1854.56 1573.35 Q1862.76 1573.35 1867.62 1577.7 Q1872.5 1582.07 1872.5 1589.37 Z" fill="#000000" fill-rule="evenodd" fill-opacity="1" /><path clip-path="url(#clip020)" d="M1868.71 1626.68 Q1868.71 1621.59 1864.91 1618.58 Q1861.11 1615.59 1854.56 1615.59 Q1848.03 1615.59 1844.24 1618.58 Q1840.44 1621.59 1840.44 1626.68 Q1840.44 1631.77 1844.24 1634.74 Q1848.03 1637.72 1854.56 1637.72 Q1861.11 1637.72 1864.91 1634.74 Q1868.71 1631.77 1868.71 1626.68 M1872.5 1626.68 Q1872.5 1633.95 1867.62 1638.3 Q1862.76 1642.65 1854.56 1642.65 Q1846.39 1642.65 1841.51 1638.3 Q1836.65 1633.95 1836.65 1626.68 Q1836.65 1619.39 1841.51 1615.01 Q1846.37 1610.66 1854.56 1610.66 Q1862.76 1610.66 1867.62 1615.01 Q1872.5 1619.39 1872.5 1626.68 Z" fill="#000000" fill-rule="evenodd" fill-opacity="1" /><path clip-path="url(#clip020)" d="M1868.03 1654.64 L1841.16 1654.64 L1841.16 1660.29 Q1841.16 1667.44 1844.4 1670.75 Q1847.64 1674.09 1854.63 1674.09 Q1861.58 1674.09 1864.79 1670.75 Q1868.03 1667.44 1868.03 1660.29 L1868.03 1654.64 M1871.88 1649.97 L1871.88 1659.57 Q1871.88 1669.62 1867.69 1674.32 Q1863.52 1679.02 1854.63 1679.02 Q1845.7 1679.02 1841.51 1674.3 Q1837.32 1669.57 1837.32 1659.57 L1837.32 1649.97 L1871.88 1649.97 Z" fill="#000000" fill-rule="evenodd" fill-opacity="1" /><path clip-path="url(#clip020)" d="M1829.45 1705.99 L1826.14 1705.99 L1826.14 1681.36 L1829.45 1681.36 L1829.45 1705.99 Z" fill="#000000" fill-rule="evenodd" fill-opacity="1" /><path clip-path="url(#clip020)" d="M1871.88 1705.38 L1871.88 1734.62 L1867.94 1734.62 L1867.94 1722.35 L1837.32 1722.35 L1837.32 1717.65 L1867.94 1717.65 L1867.94 1705.38 L1871.88 1705.38 Z" fill="#000000" fill-rule="evenodd" fill-opacity="1" /><path clip-path="url(#clip020)" d="M1868.71 1753.16 Q1868.71 1748.07 1864.91 1745.06 Q1861.11 1742.07 1854.56 1742.07 Q1848.03 1742.07 1844.24 1745.06 Q1840.44 1748.07 1840.44 1753.16 Q1840.44 1758.25 1844.24 1761.22 Q1848.03 1764.2 1854.56 1764.2 Q1861.11 1764.2 1864.91 1761.22 Q1868.71 1758.25 1868.71 1753.16 M1872.5 1753.16 Q1872.5 1760.43 1867.62 1764.78 Q1862.76 1769.13 1854.56 1769.13 Q1846.39 1769.13 1841.51 1764.78 Q1836.65 1760.43 1836.65 1753.16 Q1836.65 1745.87 1841.51 1741.5 Q1846.37 1737.14 1854.56 1737.14 Q1862.76 1737.14 1867.62 1741.5 Q1872.5 1745.87 1872.5 1753.16 Z" fill="#000000" fill-rule="evenodd" fill-opacity="1" /><path clip-path="url(#clip020)" d="M1868.03 1781.12 L1855.05 1781.12 L1855.05 1787 Q1855.05 1790.27 1856.74 1792.05 Q1858.43 1793.83 1861.55 1793.83 Q1864.65 1793.83 1866.34 1792.05 Q1868.03 1790.27 1868.03 1787 L1868.03 1781.12 M1871.88 1776.45 L1871.88 1787 Q1871.88 1792.81 1869.24 1795.78 Q1866.62 1798.76 1861.55 1798.76 Q1856.44 1798.76 1853.82 1795.78 Q1851.21 1792.81 1851.21 1787 L1851.21 1781.12 L1837.32 1781.12 L1837.32 1776.45 L1871.88 1776.45 Z" fill="#000000" fill-rule="evenodd" fill-opacity="1" /><path clip-path="url(#clip020)" d="M1829.45 1824.55 L1826.14 1824.55 L1826.14 1799.92 L1829.45 1799.92 L1829.45 1824.55 Z" fill="#000000" fill-rule="evenodd" fill-opacity="1" /><path clip-path="url(#clip020)" d="M1868.03 1833.42 L1841.16 1833.42 L1841.16 1839.06 Q1841.16 1846.22 1844.4 1849.53 Q1847.64 1852.86 1854.63 1852.86 Q1861.58 1852.86 1864.79 1849.53 Q1868.03 1846.22 1868.03 1839.06 L1868.03 1833.42 M1871.88 1828.74 L1871.88 1838.35 Q1871.88 1848.39 1867.69 1853.09 Q1863.52 1857.79 1854.63 1857.79 Q1845.7 1857.79 1841.51 1853.07 Q1837.32 1848.35 1837.32 1838.35 L1837.32 1828.74 L1871.88 1828.74 Z" fill="#000000" fill-rule="evenodd" fill-opacity="1" /><path clip-path="url(#clip020)" d="M1871.88 1865.24 L1871.88 1887.1 L1867.94 1887.1 L1867.94 1869.92 L1857.71 1869.92 L1857.71 1886.38 L1853.77 1886.38 L1853.77 1869.92 L1841.25 1869.92 L1841.25 1887.51 L1837.32 1887.51 L1837.32 1865.24 L1871.88 1865.24 Z" fill="#000000" fill-rule="evenodd" fill-opacity="1" /><path clip-path="url(#clip020)" d="M1871.88 1890.41 L1871.88 1919.64 L1867.94 1919.64 L1867.94 1907.37 L1837.32 1907.37 L1837.32 1902.67 L1867.94 1902.67 L1867.94 1890.41 L1871.88 1890.41 Z" fill="#000000" fill-rule="evenodd" fill-opacity="1" /><path clip-path="url(#clip020)" d="M1867.27 1932.03 L1850.07 1925.68 L1850.07 1938.39 L1867.27 1932.03 M1871.88 1929.39 L1871.88 1934.69 L1837.32 1947.86 L1837.32 1943 L1846.18 1939.85 L1846.18 1924.27 L1837.32 1921.12 L1837.32 1916.19 L1871.88 1929.39 Z" fill="#000000" fill-rule="evenodd" fill-opacity="1" /><path clip-path="url(#clip020)" d="M1871.88 1952.91 L1871.88 1957.58 L1837.32 1957.58 L1837.32 1952.91 L1871.88 1952.91 Z" fill="#000000" fill-rule="evenodd" fill-opacity="1" /><path clip-path="url(#clip020)" d="M1871.88 1966.89 L1871.88 1971.56 L1841.25 1971.56 L1841.25 1988.39 L1837.32 1988.39 L1837.32 1966.89 L1871.88 1966.89 Z" fill="#000000" fill-rule="evenodd" fill-opacity="1" /><path clip-path="url(#clip020)" d="M2305.61 1562.17 L2314.89 1562.17 L2314.89 1554.53 L2318.73 1554.53 L2318.73 1566.8 L2303.9 1566.8 Q2301.98 1564.09 2300.98 1560.82 Q2300.01 1557.56 2300.01 1553.86 Q2300.01 1545.76 2304.73 1541.17 Q2309.48 1536.61 2317.92 1536.61 Q2326.4 1536.61 2331.12 1541.17 Q2335.86 1545.76 2335.86 1553.86 Q2335.86 1557.24 2335.03 1560.27 Q2334.2 1563.32 2332.58 1565.89 L2327.6 1565.89 Q2329.8 1563.3 2330.91 1560.38 Q2332.02 1557.47 2332.02 1554.25 Q2332.02 1547.91 2328.48 1544.71 Q2324.94 1541.54 2317.92 1541.54 Q2310.93 1541.54 2307.39 1544.71 Q2303.85 1547.91 2303.85 1554.25 Q2303.85 1556.73 2304.27 1558.67 Q2304.71 1560.62 2305.61 1562.17 Z" fill="#000000" fill-rule="evenodd" fill-opacity="1" /><path clip-path="url(#clip020)" d="M2332.07 1589.37 Q2332.07 1584.27 2328.27 1581.26 Q2324.48 1578.28 2317.92 1578.28 Q2311.4 1578.28 2307.6 1581.26 Q2303.8 1584.27 2303.8 1589.37 Q2303.8 1594.46 2307.6 1597.42 Q2311.4 1600.41 2317.92 1600.41 Q2324.48 1600.41 2328.27 1597.42 Q2332.07 1594.46 2332.07 1589.37 M2335.86 1589.37 Q2335.86 1596.63 2330.98 1600.99 Q2326.12 1605.34 2317.92 1605.34 Q2309.75 1605.34 2304.87 1600.99 Q2300.01 1596.63 2300.01 1589.37 Q2300.01 1582.07 2304.87 1577.7 Q2309.73 1573.35 2317.92 1573.35 Q2326.12 1573.35 2330.98 1577.7 Q2335.86 1582.07 2335.86 1589.37 Z" fill="#000000" fill-rule="evenodd" fill-opacity="1" /><path clip-path="url(#clip020)" d="M2332.07 1626.68 Q2332.07 1621.59 2328.27 1618.58 Q2324.48 1615.59 2317.92 1615.59 Q2311.4 1615.59 2307.6 1618.58 Q2303.8 1621.59 2303.8 1626.68 Q2303.8 1631.77 2307.6 1634.74 Q2311.4 1637.72 2317.92 1637.72 Q2324.48 1637.72 2328.27 1634.74 Q2332.07 1631.77 2332.07 1626.68 M2335.86 1626.68 Q2335.86 1633.95 2330.98 1638.3 Q2326.12 1642.65 2317.92 1642.65 Q2309.75 1642.65 2304.87 1638.3 Q2300.01 1633.95 2300.01 1626.68 Q2300.01 1619.39 2304.87 1615.01 Q2309.73 1610.66 2317.92 1610.66 Q2326.12 1610.66 2330.98 1615.01 Q2335.86 1619.39 2335.86 1626.68 Z" fill="#000000" fill-rule="evenodd" fill-opacity="1" /><path clip-path="url(#clip020)" d="M2331.4 1654.64 L2304.52 1654.64 L2304.52 1660.29 Q2304.52 1667.44 2307.76 1670.75 Q2311 1674.09 2317.99 1674.09 Q2324.94 1674.09 2328.16 1670.75 Q2331.4 1667.44 2331.4 1660.29 L2331.4 1654.64 M2335.24 1649.97 L2335.24 1659.57 Q2335.24 1669.62 2331.05 1674.32 Q2326.88 1679.02 2317.99 1679.02 Q2309.06 1679.02 2304.87 1674.3 Q2300.68 1669.57 2300.68 1659.57 L2300.68 1649.97 L2335.24 1649.97 Z" fill="#000000" fill-rule="evenodd" fill-opacity="1" /><path clip-path="url(#clip020)" d="M2292.81 1705.99 L2289.5 1705.99 L2289.5 1681.36 L2292.81 1681.36 L2292.81 1705.99 Z" fill="#000000" fill-rule="evenodd" fill-opacity="1" /><path clip-path="url(#clip020)" d="M2300.68 1719.09 L2335.24 1705.89 L2335.24 1710.78 L2306.14 1721.73 L2335.24 1732.7 L2335.24 1737.56 L2300.68 1724.39 L2300.68 1719.09 Z" fill="#000000" fill-rule="evenodd" fill-opacity="1" /><path clip-path="url(#clip020)" d="M2330.63 1751.12 L2313.43 1744.78 L2313.43 1757.49 L2330.63 1751.12 M2335.24 1748.49 L2335.24 1753.79 L2300.68 1766.96 L2300.68 1762.1 L2309.54 1758.95 L2309.54 1743.37 L2300.68 1740.22 L2300.68 1735.29 L2335.24 1748.49 Z" fill="#000000" fill-rule="evenodd" fill-opacity="1" /><path clip-path="url(#clip020)" d="M2316.88 1788.39 Q2316.37 1789.9 2314.71 1791.31 Q2313.04 1792.74 2310.12 1794.18 L2300.68 1798.93 L2300.68 1793.9 L2309.54 1789.48 Q2313.02 1787.77 2314.15 1786.15 Q2315.29 1784.55 2315.29 1781.77 L2315.29 1776.68 L2300.68 1776.68 L2300.68 1772 L2335.24 1772 L2335.24 1782.56 Q2335.24 1788.49 2332.76 1791.4 Q2330.29 1794.32 2325.29 1794.32 Q2322.02 1794.32 2319.87 1792.79 Q2317.72 1791.29 2316.88 1788.39 M2331.4 1776.68 L2319.13 1776.68 L2319.13 1782.56 Q2319.13 1785.94 2320.68 1787.65 Q2322.25 1789.39 2325.29 1789.39 Q2328.32 1789.39 2329.85 1787.65 Q2331.4 1785.94 2331.4 1782.56 L2331.4 1776.68 Z" fill="#000000" fill-rule="evenodd" fill-opacity="1" /><path clip-path="url(#clip020)" d="M2335.24 1804.94 L2335.24 1809.62 L2300.68 1809.62 L2300.68 1804.94 L2335.24 1804.94 Z" fill="#000000" fill-rule="evenodd" fill-opacity="1" /><path clip-path="url(#clip020)" d="M2335.24 1818.93 L2335.24 1840.78 L2331.3 1840.78 L2331.3 1823.6 L2321.07 1823.6 L2321.07 1840.06 L2317.14 1840.06 L2317.14 1823.6 L2304.61 1823.6 L2304.61 1841.19 L2300.68 1841.19 L2300.68 1818.93 L2335.24 1818.93 Z" fill="#000000" fill-rule="evenodd" fill-opacity="1" /><path clip-path="url(#clip020)" d="M2335.24 1844.09 L2335.24 1873.32 L2331.3 1873.32 L2331.3 1861.05 L2300.68 1861.05 L2300.68 1856.36 L2331.3 1856.36 L2331.3 1844.09 L2335.24 1844.09 Z" fill="#000000" fill-rule="evenodd" fill-opacity="1" /><path clip-path="url(#clip020)" d="M2335.24 1873.09 L2335.24 1878.11 L2321.03 1887.7 L2335.24 1897.21 L2335.24 1902.23 L2317.14 1890.01 L2300.68 1890.01 L2300.68 1885.31 L2317.14 1885.31 L2335.24 1873.09 Z" fill="#000000" fill-rule="evenodd" fill-opacity="1" /><polyline clip-path="url(#clip022)" style="stroke:#000000; stroke-linecap:round; stroke-linejoin:round; stroke-width:2; stroke-opacity:0.1; fill:none" points="
  141.712,1473.56 2640.76,1473.56 
  "/>
<polyline clip-path="url(#clip022)" style="stroke:#000000; stroke-linecap:round; stroke-linejoin:round; stroke-width:2; stroke-opacity:0.1; fill:none" points="
  141.712,1134.16 2640.76,1134.16 
  "/>
<polyline clip-path="url(#clip022)" style="stroke:#000000; stroke-linecap:round; stroke-linejoin:round; stroke-width:2; stroke-opacity:0.1; fill:none" points="
  141.712,794.752 2640.76,794.752 
  "/>
<polyline clip-path="url(#clip022)" style="stroke:#000000; stroke-linecap:round; stroke-linejoin:round; stroke-width:2; stroke-opacity:0.1; fill:none" points="
  141.712,455.346 2640.76,455.346 
  "/>
<polyline clip-path="url(#clip022)" style="stroke:#000000; stroke-linecap:round; stroke-linejoin:round; stroke-width:2; stroke-opacity:0.1; fill:none" points="
  141.712,115.94 2640.76,115.94 
  "/>
<polyline clip-path="url(#clip020)" style="stroke:#000000; stroke-linecap:round; stroke-linejoin:round; stroke-width:4; stroke-opacity:1; fill:none" points="
  141.712,1515.11 141.712,47.2441 
  "/>
<polyline clip-path="url(#clip020)" style="stroke:#000000; stroke-linecap:round; stroke-linejoin:round; stroke-width:4; stroke-opacity:1; fill:none" points="
  141.712,1473.56 160.61,1473.56 
  "/>
<polyline clip-path="url(#clip020)" style="stroke:#000000; stroke-linecap:round; stroke-linejoin:round; stroke-width:4; stroke-opacity:1; fill:none" points="
  141.712,1134.16 160.61,1134.16 
  "/>
<polyline clip-path="url(#clip020)" style="stroke:#000000; stroke-linecap:round; stroke-linejoin:round; stroke-width:4; stroke-opacity:1; fill:none" points="
  141.712,794.752 160.61,794.752 
  "/>
<polyline clip-path="url(#clip020)" style="stroke:#000000; stroke-linecap:round; stroke-linejoin:round; stroke-width:4; stroke-opacity:1; fill:none" points="
  141.712,455.346 160.61,455.346 
  "/>
<polyline clip-path="url(#clip020)" style="stroke:#000000; stroke-linecap:round; stroke-linejoin:round; stroke-width:4; stroke-opacity:1; fill:none" points="
  141.712,115.94 160.61,115.94 
  "/>
<path clip-path="url(#clip020)" d="M89.6734 1473.56 Q89.6734 1469.95 86.1086 1468.12 Q82.567 1466.32 75.4374 1466.32 Q68.331 1466.32 64.7662 1468.12 Q61.2245 1469.95 61.2245 1473.56 Q61.2245 1477.2 64.7662 1479 Q68.331 1480.83 75.4374 1480.83 Q82.567 1480.83 86.1086 1479 Q89.6734 1477.2 89.6734 1473.56 M93.3771 1473.56 Q93.3771 1479.37 88.7707 1482.43 Q84.1874 1485.51 75.4374 1485.51 Q66.7106 1485.51 62.1041 1482.43 Q57.5208 1479.37 57.5208 1473.56 Q57.5208 1467.75 62.1041 1464.68 Q66.7106 1461.62 75.4374 1461.62 Q84.1874 1461.62 88.7707 1464.68 Q93.3771 1467.75 93.3771 1473.56 Z" fill="#000000" fill-rule="evenodd" fill-opacity="1" /><path clip-path="url(#clip020)" d="M62.1273 1113.43 L62.1273 1129.75 L58.1921 1129.75 L58.1921 1107.8 L62.1273 1107.8 Q64.8819 1110.47 69.5115 1115.05 Q74.1643 1119.66 75.5068 1120.84 Q78.03 1123.08 79.7661 1123.96 Q81.5253 1124.86 83.2151 1124.86 Q85.9698 1124.86 87.7059 1122.92 Q89.442 1121 89.442 1117.9 Q89.442 1115.7 88.6781 1113.24 Q87.9142 1110.81 86.3633 1108.04 L91.0855 1108.04 Q92.2197 1110.86 92.7984 1113.31 Q93.3771 1115.77 93.3771 1117.8 Q93.3771 1123.17 90.692 1126.37 Q88.0068 1129.56 83.5161 1129.56 Q81.3864 1129.56 79.4652 1128.75 Q77.567 1127.97 74.9744 1125.86 Q74.3032 1125.28 71.0856 1122.18 Q67.8911 1119.08 62.1273 1113.43 Z" fill="#000000" fill-rule="evenodd" fill-opacity="1" /><path clip-path="url(#clip020)" d="M92.7521 1139.61 L92.7521 1157.97 L88.817 1157.97 L88.817 1143.89 L80.3448 1143.89 Q80.692 1144.91 80.854 1145.93 Q81.0392 1146.95 81.0392 1147.97 Q81.0392 1153.75 77.8679 1157.13 Q74.6967 1160.51 69.28 1160.51 Q63.7014 1160.51 60.5995 1157.04 Q57.5208 1153.57 57.5208 1147.25 Q57.5208 1145.07 57.8912 1142.8 Q58.2616 1140.56 59.0023 1138.15 L63.7014 1138.15 Q62.5671 1140.23 62.0115 1142.46 Q61.456 1144.68 61.456 1147.16 Q61.456 1151.16 63.5625 1153.5 Q65.6689 1155.84 69.28 1155.84 Q72.8911 1155.84 74.9976 1153.5 Q77.1041 1151.16 77.1041 1147.16 Q77.1041 1145.28 76.6874 1143.41 Q76.2707 1141.55 75.3911 1139.61 L92.7521 1139.61 Z" fill="#000000" fill-rule="evenodd" fill-opacity="1" /><path clip-path="url(#clip020)" d="M92.7521 769.451 L92.7521 787.808 L88.817 787.808 L88.817 773.734 L80.3448 773.734 Q80.692 774.752 80.854 775.771 Q81.0392 776.789 81.0392 777.808 Q81.0392 783.595 77.8679 786.974 Q74.6967 790.354 69.28 790.354 Q63.7014 790.354 60.5995 786.882 Q57.5208 783.41 57.5208 777.09 Q57.5208 774.914 57.8912 772.646 Q58.2616 770.401 59.0023 767.993 L63.7014 767.993 Q62.5671 770.076 62.0115 772.299 Q61.456 774.521 61.456 776.998 Q61.456 781.002 63.5625 783.34 Q65.6689 785.678 69.28 785.678 Q72.8911 785.678 74.9976 783.34 Q77.1041 781.002 77.1041 776.998 Q77.1041 775.123 76.6874 773.248 Q76.2707 771.396 75.3911 769.451 L92.7521 769.451 Z" fill="#000000" fill-rule="evenodd" fill-opacity="1" /><path clip-path="url(#clip020)" d="M89.6734 809.567 Q89.6734 805.956 86.1086 804.127 Q82.567 802.322 75.4374 802.322 Q68.331 802.322 64.7662 804.127 Q61.2245 805.956 61.2245 809.567 Q61.2245 813.201 64.7662 815.007 Q68.331 816.835 75.4374 816.835 Q82.567 816.835 86.1086 815.007 Q89.6734 813.201 89.6734 809.567 M93.3771 809.567 Q93.3771 815.377 88.7707 818.433 Q84.1874 821.511 75.4374 821.511 Q66.7106 821.511 62.1041 818.433 Q57.5208 815.377 57.5208 809.567 Q57.5208 803.757 62.1041 800.678 Q66.7106 797.623 75.4374 797.623 Q84.1874 797.623 88.7707 800.678 Q93.3771 803.757 93.3771 809.567 Z" fill="#000000" fill-rule="evenodd" fill-opacity="1" /><path clip-path="url(#clip020)" d="M92.7521 429.2 L92.7521 451.422 L90.7614 451.422 L58.1921 438.876 L58.1921 433.992 L88.817 445.798 L88.817 429.2 L92.7521 429.2 Z" fill="#000000" fill-rule="evenodd" fill-opacity="1" /><path clip-path="url(#clip020)" d="M92.7521 460.589 L92.7521 478.945 L88.817 478.945 L88.817 464.871 L80.3448 464.871 Q80.692 465.89 80.854 466.909 Q81.0392 467.927 81.0392 468.946 Q81.0392 474.733 77.8679 478.112 Q74.6967 481.492 69.28 481.492 Q63.7014 481.492 60.5995 478.02 Q57.5208 474.547 57.5208 468.228 Q57.5208 466.052 57.8912 463.784 Q58.2616 461.538 59.0023 459.131 L63.7014 459.131 Q62.5671 461.214 62.0115 463.436 Q61.456 465.659 61.456 468.135 Q61.456 472.14 63.5625 474.478 Q65.6689 476.816 69.28 476.816 Q72.8911 476.816 74.9976 474.478 Q77.1041 472.14 77.1041 468.135 Q77.1041 466.26 76.6874 464.385 Q76.2707 462.534 75.3911 460.589 L92.7521 460.589 Z" fill="#000000" fill-rule="evenodd" fill-opacity="1" /><path clip-path="url(#clip020)" d="M62.1273 75.5466 L62.1273 83.1854 L88.4929 83.1854 L86.8262 74.8753 L91.0855 74.8753 L92.7521 83.1392 L92.7521 87.8151 L62.1273 87.8151 L62.1273 95.4539 L58.1921 95.4539 L58.1921 75.5466 L62.1273 75.5466 Z" fill="#000000" fill-rule="evenodd" fill-opacity="1" /><path clip-path="url(#clip020)" d="M89.6734 114.898 Q89.6734 111.287 86.1086 109.458 Q82.567 107.653 75.4374 107.653 Q68.331 107.653 64.7662 109.458 Q61.2245 111.287 61.2245 114.898 Q61.2245 118.532 64.7662 120.338 Q68.331 122.167 75.4374 122.167 Q82.567 122.167 86.1086 120.338 Q89.6734 118.532 89.6734 114.898 M93.3771 114.898 Q93.3771 120.708 88.7707 123.764 Q84.1874 126.843 75.4374 126.843 Q66.7106 126.843 62.1041 123.764 Q57.5208 120.708 57.5208 114.898 Q57.5208 109.088 62.1041 106.009 Q66.7106 102.954 75.4374 102.954 Q84.1874 102.954 88.7707 106.009 Q93.3771 109.088 93.3771 114.898 Z" fill="#000000" fill-rule="evenodd" fill-opacity="1" /><path clip-path="url(#clip020)" d="M89.6734 145.06 Q89.6734 141.449 86.1086 139.62 Q82.567 137.815 75.4374 137.815 Q68.331 137.815 64.7662 139.62 Q61.2245 141.449 61.2245 145.06 Q61.2245 148.694 64.7662 150.5 Q68.331 152.329 75.4374 152.329 Q82.567 152.329 86.1086 150.5 Q89.6734 148.694 89.6734 145.06 M93.3771 145.06 Q93.3771 150.87 88.7707 153.926 Q84.1874 157.004 75.4374 157.004 Q66.7106 157.004 62.1041 153.926 Q57.5208 150.87 57.5208 145.06 Q57.5208 139.25 62.1041 136.171 Q66.7106 133.116 75.4374 133.116 Q84.1874 133.116 88.7707 136.171 Q93.3771 139.25 93.3771 145.06 Z" fill="#000000" fill-rule="evenodd" fill-opacity="1" /><path clip-path="url(#clip022)" d="
M279.164 944.091 L279.164 1473.56 L649.854 1473.56 L649.854 944.091 L279.164 944.091 L279.164 944.091  Z
  " fill="#009af9" fill-rule="evenodd" fill-opacity="1"/>
<polyline clip-path="url(#clip022)" style="stroke:#000000; stroke-linecap:round; stroke-linejoin:round; stroke-width:4; stroke-opacity:1; fill:none" points="
  279.164,944.091 279.164,1473.56 649.854,1473.56 649.854,944.091 279.164,944.091 
  "/>
<path clip-path="url(#clip022)" d="
M742.526 88.7874 L742.526 1473.56 L1113.22 1473.56 L1113.22 88.7874 L742.526 88.7874 L742.526 88.7874  Z
  " fill="#009af9" fill-rule="evenodd" fill-opacity="1"/>
<polyline clip-path="url(#clip022)" style="stroke:#000000; stroke-linecap:round; stroke-linejoin:round; stroke-width:4; stroke-opacity:1; fill:none" points="
  742.526,88.7874 742.526,1473.56 1113.22,1473.56 1113.22,88.7874 742.526,88.7874 
  "/>
<path clip-path="url(#clip022)" d="
M1205.89 401.041 L1205.89 1473.56 L1576.58 1473.56 L1576.58 401.041 L1205.89 401.041 L1205.89 401.041  Z
  " fill="#009af9" fill-rule="evenodd" fill-opacity="1"/>
<polyline clip-path="url(#clip022)" style="stroke:#000000; stroke-linecap:round; stroke-linejoin:round; stroke-width:4; stroke-opacity:1; fill:none" points="
  1205.89,401.041 1205.89,1473.56 1576.58,1473.56 1576.58,401.041 1205.89,401.041 
  "/>
<path clip-path="url(#clip022)" d="
M1669.25 930.515 L1669.25 1473.56 L2039.94 1473.56 L2039.94 930.515 L1669.25 930.515 L1669.25 930.515  Z
  " fill="#009af9" fill-rule="evenodd" fill-opacity="1"/>
<polyline clip-path="url(#clip022)" style="stroke:#000000; stroke-linecap:round; stroke-linejoin:round; stroke-width:4; stroke-opacity:1; fill:none" points="
  1669.25,930.515 1669.25,1473.56 2039.94,1473.56 2039.94,930.515 1669.25,930.515 
  "/>
<path clip-path="url(#clip022)" d="
M2132.61 794.752 L2132.61 1473.56 L2503.3 1473.56 L2503.3 794.752 L2132.61 794.752 L2132.61 794.752  Z
  " fill="#009af9" fill-rule="evenodd" fill-opacity="1"/>
<polyline clip-path="url(#clip022)" style="stroke:#000000; stroke-linecap:round; stroke-linejoin:round; stroke-width:4; stroke-opacity:1; fill:none" points="
  2132.61,794.752 2132.61,1473.56 2503.3,1473.56 2503.3,794.752 2132.61,794.752 
  "/>
<circle clip-path="url(#clip022)" style="fill:#009af9; stroke:none; fill-opacity:0" cx="464.509" cy="944.091" r="2"/>
<circle clip-path="url(#clip022)" style="fill:#009af9; stroke:none; fill-opacity:0" cx="927.872" cy="88.7874" r="2"/>
<circle clip-path="url(#clip022)" style="fill:#009af9; stroke:none; fill-opacity:0" cx="1391.23" cy="401.041" r="2"/>
<circle clip-path="url(#clip022)" style="fill:#009af9; stroke:none; fill-opacity:0" cx="1854.6" cy="930.515" r="2"/>
<circle clip-path="url(#clip022)" style="fill:#009af9; stroke:none; fill-opacity:0" cx="2317.96" cy="794.752" r="2"/>
<path clip-path="url(#clip020)" d="
M2227.35 199.853 L2557.45 199.853 L2557.45 96.1729 L2227.35 96.1729  Z
  " fill="#ffffff" fill-rule="evenodd" fill-opacity="1"/>
<polyline clip-path="url(#clip020)" style="stroke:#000000; stroke-linecap:round; stroke-linejoin:round; stroke-width:4; stroke-opacity:1; fill:none" points="
  2227.35,199.853 2557.45,199.853 2557.45,96.1729 2227.35,96.1729 2227.35,199.853 
  "/>
<path clip-path="url(#clip020)" d="
M2255.12 168.749 L2421.72 168.749 L2421.72 127.277 L2255.12 127.277 L2255.12 168.749  Z
  " fill="#009af9" fill-rule="evenodd" fill-opacity="1"/>
<polyline clip-path="url(#clip020)" style="stroke:#000000; stroke-linecap:round; stroke-linejoin:round; stroke-width:4; stroke-opacity:1; fill:none" points="
  2255.12,168.749 2421.72,168.749 2421.72,127.277 2255.12,127.277 2255.12,168.749 
  "/>
<path clip-path="url(#clip020)" d="M2463.33 167.7 Q2461.53 172.33 2459.81 173.742 Q2458.1 175.154 2455.23 175.154 L2451.83 175.154 L2451.83 171.589 L2454.33 171.589 Q2456.09 171.589 2457.06 170.756 Q2458.03 169.922 2459.21 166.821 L2459.98 164.876 L2449.49 139.367 L2454 139.367 L2462.11 159.645 L2470.21 139.367 L2474.72 139.367 L2463.33 167.7 Z" fill="#000000" fill-rule="evenodd" fill-opacity="1" /><path clip-path="url(#clip020)" d="M2482.01 161.358 L2489.65 161.358 L2489.65 134.992 L2481.34 136.659 L2481.34 132.4 L2489.61 130.733 L2494.28 130.733 L2494.28 161.358 L2501.92 161.358 L2501.92 165.293 L2482.01 165.293 L2482.01 161.358 Z" fill="#000000" fill-rule="evenodd" fill-opacity="1" /></svg>
